<ttFont>
<head>
    <!-- Most of this table will be recalculated by the compiler -->
    <tableVersion value="1.0"/>
    <fontRevision value="1.301"/>
    <checkSumAdjustment value="0x3e19b3ee"/>
    <magicNumber value="0x5f0f3cf5"/>
    <flags value="00000000 00001011"/>
    <unitsPerEm value="1000"/>
    <created value="Fri Oct 21 16:09:00 2005"/>
    <modified value="Thu Mar  6 17:43:49 2014"/>
    <xMin value="-16"/>
    <yMin value="-311"/>
    <xMax value="1614"/>
    <yMax value="816"/>
    <macStyle value="00000000 00000000"/>
    <lowestRecPPEM value="9"/>
    <fontDirectionHint value="2"/>
    <indexToLocFormat value="0"/>
    <glyphDataFormat value="0"/>
  </head>
    <TTGlyph name="A" xMin="-14" yMin="-214" xMax="1014" yMax="800">
      <contour>
        <pt x="1014" y="-200" on="1"/>
        <pt x="1014" y="-214" on="0"/>
        <pt x="1007" y="-214" on="1"/>
        <pt x="1000" y="-214" on="1"/>
        <pt x="847" y="-214" on="0"/>
        <pt x="572" y="-148" on="0"/>
        <pt x="457" y="-91" on="1"/>
        <pt x="371" y="-144" on="0"/>
        <pt x="148" y="-214" on="0"/>
        <pt x="0" y="-214" on="1"/>
        <pt x="-6" y="-214" on="1"/>
        <pt x="-14" y="-214" on="0"/>
        <pt x="-14" y="-200" on="1"/>
        <pt x="-14" y="-186" on="0"/>
        <pt x="-6" y="-186" on="1"/>
        <pt x="0" y="-186" on="1"/>
        <pt x="46" y="-186" on="0"/>
        <pt x="129" y="-157" on="0"/>
        <pt x="206" y="-107" on="0"/>
        <pt x="277" y="-41" on="0"/>
        <pt x="313" y="-4" on="1"/>
        <pt x="188" y="88" on="0"/>
        <pt x="46" y="323" on="0"/>
        <pt x="46" y="451" on="1"/>
        <pt x="46" y="527" on="0"/>
        <pt x="93" y="656" on="0"/>
        <pt x="175" y="748" on="0"/>
        <pt x="286" y="800" on="0"/>
        <pt x="351" y="800" on="1"/>
        <pt x="411" y="800" on="0"/>
        <pt x="508" y="761" on="0"/>
        <pt x="576" y="692" on="0"/>
        <pt x="612" y="599" on="0"/>
        <pt x="612" y="544" on="1"/>
        <pt x="612" y="496" on="0"/>
        <pt x="577" y="424" on="0"/>
        <pt x="521" y="376" on="0"/>
        <pt x="453" y="352" on="0"/>
        <pt x="419" y="352" on="1"/>
        <pt x="389" y="352" on="0"/>
        <pt x="335" y="370" on="0"/>
        <pt x="316" y="389" on="1"/>
        <pt x="310" y="395" on="0"/>
        <pt x="321" y="404" on="1"/>
        <pt x="330" y="415" on="0"/>
        <pt x="336" y="409" on="1"/>
        <pt x="359" y="399" on="0"/>
        <pt x="385" y="399" on="1"/>
        <pt x="422" y="399" on="0"/>
        <pt x="476" y="450" on="0"/>
        <pt x="476" y="502" on="1"/>
        <pt x="476" y="549" on="0"/>
        <pt x="414" y="613" on="0"/>
        <pt x="350" y="613" on="1"/>
        <pt x="313" y="613" on="0"/>
        <pt x="249" y="587" on="0"/>
        <pt x="201" y="528" on="0"/>
        <pt x="174" y="435" on="0"/>
        <pt x="174" y="368" on="1"/>
        <pt x="174" y="335" on="0"/>
        <pt x="194" y="254" on="0"/>
        <pt x="237" y="166" on="0"/>
        <pt x="303" y="76" on="0"/>
        <pt x="349" y="34" on="1"/>
        <pt x="399" y="87" on="0"/>
        <pt x="505" y="194" on="0"/>
        <pt x="626" y="280" on="0"/>
        <pt x="770" y="334" on="0"/>
        <pt x="857" y="334" on="1"/>
        <pt x="883" y="334" on="0"/>
        <pt x="920" y="332" on="0"/>
        <pt x="951" y="327" on="0"/>
        <pt x="981" y="320" on="0"/>
        <pt x="1000" y="315" on="1"/>
        <pt x="1006" y="314" on="1"/>
        <pt x="1014" y="314" on="0"/>
        <pt x="1014" y="300" on="1"/>
        <pt x="1014" y="286" on="0"/>
        <pt x="1006" y="286" on="1"/>
        <pt x="1000" y="286" on="1"/>
        <pt x="954" y="286" on="0"/>
        <pt x="874" y="254" on="0"/>
        <pt x="797" y="200" on="0"/>
        <pt x="721" y="128" on="0"/>
        <pt x="638" y="50" on="0"/>
        <pt x="546" y="-31" on="0"/>
        <pt x="492" y="-68" on="1"/>
        <pt x="587" y="-121" on="0"/>
        <pt x="838" y="-186" on="0"/>
        <pt x="1000" y="-186" on="1"/>
        <pt x="1007" y="-186" on="1"/>
        <pt x="1014" y="-186" on="0"/>
      </contour>
      <contour>
        <pt x="557" y="528" on="1"/>
        <pt x="557" y="570" on="0"/>
        <pt x="529" y="643" on="0"/>
        <pt x="476" y="696" on="0"/>
        <pt x="399" y="726" on="0"/>
        <pt x="350" y="726" on="1"/>
        <pt x="296" y="726" on="0"/>
        <pt x="204" y="685" on="0"/>
        <pt x="136" y="606" on="0"/>
        <pt x="97" y="491" on="0"/>
        <pt x="97" y="418" on="1"/>
        <pt x="97" y="324" on="0"/>
        <pt x="196" y="132" on="0"/>
        <pt x="291" y="48" on="1"/>
        <pt x="252" y="90" on="0"/>
        <pt x="195" y="178" on="0"/>
        <pt x="159" y="262" on="0"/>
        <pt x="141" y="338" on="0"/>
        <pt x="141" y="369" on="1"/>
        <pt x="141" y="444" on="0"/>
        <pt x="174" y="549" on="0"/>
        <pt x="231" y="615" on="0"/>
        <pt x="307" y="646" on="0"/>
        <pt x="350" y="646" on="1"/>
        <pt x="389" y="646" on="0"/>
        <pt x="448" y="623" on="0"/>
        <pt x="488" y="584" on="0"/>
        <pt x="508" y="532" on="0"/>
        <pt x="508" y="503" on="1"/>
        <pt x="508" y="462" on="0"/>
        <pt x="479" y="406" on="0"/>
        <pt x="456" y="390" on="1"/>
        <pt x="497" y="400" on="0"/>
        <pt x="557" y="466" on="0"/>
      </contour>
      <contour>
        <pt x="907" y="298" on="1"/>
        <pt x="818" y="294" on="0"/>
        <pt x="687" y="242" on="0"/>
        <pt x="580" y="163" on="0"/>
        <pt x="487" y="66" on="0"/>
        <pt x="382" y="-35" on="0"/>
        <pt x="256" y="-132" on="0"/>
        <pt x="170" y="-170" on="1"/>
        <pt x="268" y="-152" on="0"/>
        <pt x="424" y="-80" on="0"/>
        <pt x="551" y="12" on="0"/>
        <pt x="657" y="113" on="0"/>
        <pt x="755" y="205" on="0"/>
        <pt x="852" y="279" on="0"/>
      </contour>
    </TTGlyph>
    <TTGlyph name="B" xMin="-8" yMin="-214" xMax="1020" yMax="800">
      <contour>
        <pt x="1020" y="-200" on="1"/>
        <pt x="1020" y="-214" on="0"/>
        <pt x="1012" y="-214" on="1"/>
        <pt x="1006" y="-214" on="1"/>
        <pt x="858" y="-214" on="0"/>
        <pt x="635" y="-144" on="0"/>
        <pt x="549" y="-91" on="1"/>
        <pt x="434" y="-148" on="0"/>
        <pt x="159" y="-214" on="0"/>
        <pt x="6" y="-214" on="1"/>
        <pt x="-1" y="-214" on="1"/>
        <pt x="-8" y="-214" on="0"/>
        <pt x="-8" y="-200" on="1"/>
        <pt x="-8" y="-186" on="0"/>
        <pt x="-1" y="-186" on="1"/>
        <pt x="6" y="-186" on="1"/>
        <pt x="168" y="-186" on="0"/>
        <pt x="419" y="-121" on="0"/>
        <pt x="514" y="-68" on="1"/>
        <pt x="460" y="-31" on="0"/>
        <pt x="368" y="50" on="0"/>
        <pt x="285" y="128" on="0"/>
        <pt x="209" y="200" on="0"/>
        <pt x="132" y="254" on="0"/>
        <pt x="51" y="286" on="0"/>
        <pt x="6" y="286" on="1"/>
        <pt x="0" y="286" on="1"/>
        <pt x="-8" y="286" on="0"/>
        <pt x="-8" y="300" on="1"/>
        <pt x="-8" y="314" on="0"/>
        <pt x="0" y="314" on="1"/>
        <pt x="6" y="315" on="1"/>
        <pt x="25" y="320" on="0"/>
        <pt x="55" y="327" on="0"/>
        <pt x="86" y="332" on="0"/>
        <pt x="123" y="334" on="0"/>
        <pt x="149" y="334" on="1"/>
        <pt x="236" y="334" on="0"/>
        <pt x="380" y="280" on="0"/>
        <pt x="501" y="194" on="0"/>
        <pt x="607" y="87" on="0"/>
        <pt x="657" y="34" on="1"/>
        <pt x="703" y="76" on="0"/>
        <pt x="769" y="166" on="0"/>
        <pt x="812" y="254" on="0"/>
        <pt x="832" y="335" on="0"/>
        <pt x="832" y="368" on="1"/>
        <pt x="832" y="435" on="0"/>
        <pt x="805" y="528" on="0"/>
        <pt x="757" y="587" on="0"/>
        <pt x="693" y="613" on="0"/>
        <pt x="656" y="613" on="1"/>
        <pt x="592" y="613" on="0"/>
        <pt x="530" y="549" on="0"/>
        <pt x="530" y="502" on="1"/>
        <pt x="530" y="450" on="0"/>
        <pt x="584" y="399" on="0"/>
        <pt x="621" y="399" on="1"/>
        <pt x="647" y="399" on="0"/>
        <pt x="670" y="409" on="1"/>
        <pt x="676" y="415" on="0"/>
        <pt x="685" y="404" on="1"/>
        <pt x="696" y="395" on="0"/>
        <pt x="690" y="389" on="1"/>
        <pt x="671" y="370" on="0"/>
        <pt x="617" y="352" on="0"/>
        <pt x="587" y="352" on="1"/>
        <pt x="553" y="352" on="0"/>
        <pt x="484" y="376" on="0"/>
        <pt x="429" y="424" on="0"/>
        <pt x="394" y="496" on="0"/>
        <pt x="394" y="544" on="1"/>
        <pt x="394" y="599" on="0"/>
        <pt x="430" y="692" on="0"/>
        <pt x="498" y="761" on="0"/>
        <pt x="595" y="800" on="0"/>
        <pt x="655" y="800" on="1"/>
        <pt x="720" y="800" on="0"/>
        <pt x="831" y="748" on="0"/>
        <pt x="913" y="656" on="0"/>
        <pt x="960" y="527" on="0"/>
        <pt x="960" y="451" on="1"/>
        <pt x="960" y="323" on="0"/>
        <pt x="818" y="88" on="0"/>
        <pt x="693" y="-4" on="1"/>
        <pt x="729" y="-41" on="0"/>
        <pt x="800" y="-107" on="0"/>
        <pt x="877" y="-157" on="0"/>
        <pt x="959" y="-186" on="0"/>
        <pt x="1006" y="-186" on="1"/>
        <pt x="1012" y="-186" on="1"/>
        <pt x="1020" y="-186" on="0"/>
      </contour>
      <contour>
        <pt x="909" y="418" on="1"/>
        <pt x="909" y="491" on="0"/>
        <pt x="870" y="606" on="0"/>
        <pt x="802" y="685" on="0"/>
        <pt x="710" y="726" on="0"/>
        <pt x="656" y="726" on="1"/>
        <pt x="607" y="726" on="0"/>
        <pt x="530" y="696" on="0"/>
        <pt x="477" y="643" on="0"/>
        <pt x="449" y="570" on="0"/>
        <pt x="449" y="528" on="1"/>
        <pt x="449" y="466" on="0"/>
        <pt x="509" y="400" on="0"/>
        <pt x="550" y="390" on="1"/>
        <pt x="527" y="406" on="0"/>
        <pt x="498" y="462" on="0"/>
        <pt x="498" y="503" on="1"/>
        <pt x="498" y="532" on="0"/>
        <pt x="518" y="584" on="0"/>
        <pt x="558" y="623" on="0"/>
        <pt x="617" y="646" on="0"/>
        <pt x="656" y="646" on="1"/>
        <pt x="699" y="646" on="0"/>
        <pt x="775" y="615" on="0"/>
        <pt x="832" y="549" on="0"/>
        <pt x="865" y="444" on="0"/>
        <pt x="865" y="369" on="1"/>
        <pt x="865" y="338" on="0"/>
        <pt x="847" y="262" on="0"/>
        <pt x="811" y="178" on="0"/>
        <pt x="754" y="90" on="0"/>
        <pt x="715" y="48" on="1"/>
        <pt x="810" y="132" on="0"/>
        <pt x="909" y="324" on="0"/>
      </contour>
      <contour>
        <pt x="836" y="-170" on="1"/>
        <pt x="750" y="-132" on="0"/>
        <pt x="624" y="-35" on="0"/>
        <pt x="519" y="66" on="0"/>
        <pt x="426" y="163" on="0"/>
        <pt x="319" y="242" on="0"/>
        <pt x="188" y="293" on="0"/>
        <pt x="99" y="298" on="1"/>
        <pt x="154" y="279" on="0"/>
        <pt x="251" y="205" on="0"/>
        <pt x="349" y="113" on="0"/>
        <pt x="455" y="12" on="0"/>
        <pt x="582" y="-80" on="0"/>
        <pt x="737" y="-152" on="0"/>
      </contour>
    </TTGlyph>
    <TTGlyph name="C" xMin="-14" yMin="-200" xMax="1014" yMax="814">
      <contour>
        <pt x="1014" y="300" on="1"/>
        <pt x="1014" y="286" on="0"/>
        <pt x="1006" y="286" on="1"/>
        <pt x="1000" y="285" on="1"/>
        <pt x="981" y="280" on="0"/>
        <pt x="951" y="273" on="0"/>
        <pt x="920" y="268" on="0"/>
        <pt x="883" y="266" on="0"/>
        <pt x="857" y="266" on="1"/>
        <pt x="770" y="266" on="0"/>
        <pt x="626" y="320" on="0"/>
        <pt x="505" y="406" on="0"/>
        <pt x="399" y="513" on="0"/>
        <pt x="349" y="566" on="1"/>
        <pt x="303" y="524" on="0"/>
        <pt x="237" y="434" on="0"/>
        <pt x="194" y="346" on="0"/>
        <pt x="174" y="265" on="0"/>
        <pt x="174" y="232" on="1"/>
        <pt x="174" y="165" on="0"/>
        <pt x="201" y="72" on="0"/>
        <pt x="249" y="13" on="0"/>
        <pt x="313" y="-13" on="0"/>
        <pt x="350" y="-13" on="1"/>
        <pt x="414" y="-13" on="0"/>
        <pt x="476" y="51" on="0"/>
        <pt x="476" y="98" on="1"/>
        <pt x="476" y="150" on="0"/>
        <pt x="422" y="201" on="0"/>
        <pt x="385" y="201" on="1"/>
        <pt x="359" y="201" on="0"/>
        <pt x="336" y="191" on="1"/>
        <pt x="330" y="185" on="0"/>
        <pt x="321" y="196" on="1"/>
        <pt x="310" y="205" on="0"/>
        <pt x="316" y="211" on="1"/>
        <pt x="335" y="230" on="0"/>
        <pt x="389" y="248" on="0"/>
        <pt x="419" y="248" on="1"/>
        <pt x="453" y="248" on="0"/>
        <pt x="521" y="224" on="0"/>
        <pt x="577" y="176" on="0"/>
        <pt x="612" y="104" on="0"/>
        <pt x="612" y="56" on="1"/>
        <pt x="612" y="1" on="0"/>
        <pt x="576" y="-92" on="0"/>
        <pt x="508" y="-161" on="0"/>
        <pt x="411" y="-200" on="0"/>
        <pt x="351" y="-200" on="1"/>
        <pt x="286" y="-200" on="0"/>
        <pt x="175" y="-148" on="0"/>
        <pt x="93" y="-56" on="0"/>
        <pt x="46" y="72" on="0"/>
        <pt x="46" y="149" on="1"/>
        <pt x="46" y="277" on="0"/>
        <pt x="188" y="512" on="0"/>
        <pt x="313" y="604" on="1"/>
        <pt x="277" y="641" on="0"/>
        <pt x="206" y="707" on="0"/>
        <pt x="129" y="757" on="0"/>
        <pt x="46" y="786" on="0"/>
        <pt x="0" y="786" on="1"/>
        <pt x="-6" y="786" on="1"/>
        <pt x="-14" y="786" on="0"/>
        <pt x="-14" y="800" on="1"/>
        <pt x="-14" y="814" on="0"/>
        <pt x="-6" y="814" on="1"/>
        <pt x="0" y="814" on="1"/>
        <pt x="148" y="814" on="0"/>
        <pt x="371" y="744" on="0"/>
        <pt x="457" y="691" on="1"/>
        <pt x="572" y="748" on="0"/>
        <pt x="847" y="814" on="0"/>
        <pt x="1000" y="814" on="1"/>
        <pt x="1007" y="814" on="1"/>
        <pt x="1014" y="814" on="0"/>
        <pt x="1014" y="800" on="1"/>
        <pt x="1014" y="786" on="0"/>
        <pt x="1007" y="786" on="1"/>
        <pt x="1000" y="786" on="1"/>
        <pt x="838" y="786" on="0"/>
        <pt x="587" y="721" on="0"/>
        <pt x="492" y="668" on="1"/>
        <pt x="546" y="631" on="0"/>
        <pt x="638" y="550" on="0"/>
        <pt x="721" y="472" on="0"/>
        <pt x="797" y="400" on="0"/>
        <pt x="874" y="346" on="0"/>
        <pt x="954" y="314" on="0"/>
        <pt x="1000" y="314" on="1"/>
        <pt x="1006" y="314" on="1"/>
        <pt x="1014" y="314" on="0"/>
      </contour>
      <contour>
        <pt x="907" y="302" on="1"/>
        <pt x="852" y="321" on="0"/>
        <pt x="755" y="395" on="0"/>
        <pt x="657" y="487" on="0"/>
        <pt x="551" y="588" on="0"/>
        <pt x="424" y="680" on="0"/>
        <pt x="268" y="752" on="0"/>
        <pt x="170" y="770" on="1"/>
        <pt x="256" y="732" on="0"/>
        <pt x="382" y="635" on="0"/>
        <pt x="487" y="534" on="0"/>
        <pt x="580" y="437" on="0"/>
        <pt x="687" y="358" on="0"/>
        <pt x="818" y="306" on="0"/>
      </contour>
      <contour>
        <pt x="557" y="72" on="1"/>
        <pt x="557" y="103" on="0"/>
        <pt x="541" y="150" on="0"/>
        <pt x="513" y="184" on="0"/>
        <pt x="477" y="205" on="0"/>
        <pt x="456" y="210" on="1"/>
        <pt x="479" y="194" on="0"/>
        <pt x="508" y="138" on="0"/>
        <pt x="508" y="97" on="1"/>
        <pt x="508" y="68" on="0"/>
        <pt x="488" y="16" on="0"/>
        <pt x="448" y="-23" on="0"/>
        <pt x="389" y="-46" on="0"/>
        <pt x="350" y="-46" on="1"/>
        <pt x="307" y="-46" on="0"/>
        <pt x="231" y="-15" on="0"/>
        <pt x="174" y="51" on="0"/>
        <pt x="141" y="156" on="0"/>
        <pt x="141" y="231" on="1"/>
        <pt x="141" y="262" on="0"/>
        <pt x="159" y="338" on="0"/>
        <pt x="195" y="422" on="0"/>
        <pt x="252" y="510" on="0"/>
        <pt x="291" y="552" on="1"/>
        <pt x="196" y="468" on="0"/>
        <pt x="97" y="276" on="0"/>
        <pt x="97" y="182" on="1"/>
        <pt x="97" y="109" on="0"/>
        <pt x="136" y="-6" on="0"/>
        <pt x="204" y="-85" on="0"/>
        <pt x="296" y="-126" on="0"/>
        <pt x="350" y="-126" on="1"/>
        <pt x="399" y="-126" on="0"/>
        <pt x="476" y="-96" on="0"/>
        <pt x="529" y="-43" on="0"/>
        <pt x="557" y="30" on="0"/>
      </contour>
    </TTGlyph>
    <TTGlyph name="D" xMin="-8" yMin="-200" xMax="1020" yMax="814">
      <contour>
        <pt x="1020" y="800" on="1"/>
        <pt x="1020" y="786" on="0"/>
        <pt x="1012" y="786" on="1"/>
        <pt x="1006" y="786" on="1"/>
        <pt x="959" y="786" on="0"/>
        <pt x="877" y="757" on="0"/>
        <pt x="800" y="707" on="0"/>
        <pt x="729" y="641" on="0"/>
        <pt x="693" y="604" on="1"/>
        <pt x="818" y="512" on="0"/>
        <pt x="960" y="277" on="0"/>
        <pt x="960" y="149" on="1"/>
        <pt x="960" y="72" on="0"/>
        <pt x="913" y="-56" on="0"/>
        <pt x="831" y="-148" on="0"/>
        <pt x="720" y="-200" on="0"/>
        <pt x="655" y="-200" on="1"/>
        <pt x="595" y="-200" on="0"/>
        <pt x="498" y="-161" on="0"/>
        <pt x="430" y="-92" on="0"/>
        <pt x="394" y="1" on="0"/>
        <pt x="394" y="56" on="1"/>
        <pt x="394" y="104" on="0"/>
        <pt x="429" y="176" on="0"/>
        <pt x="484" y="224" on="0"/>
        <pt x="553" y="248" on="0"/>
        <pt x="587" y="248" on="1"/>
        <pt x="617" y="248" on="0"/>
        <pt x="671" y="230" on="0"/>
        <pt x="690" y="211" on="1"/>
        <pt x="696" y="205" on="0"/>
        <pt x="685" y="196" on="1"/>
        <pt x="676" y="185" on="0"/>
        <pt x="670" y="191" on="1"/>
        <pt x="647" y="201" on="0"/>
        <pt x="621" y="201" on="1"/>
        <pt x="584" y="201" on="0"/>
        <pt x="530" y="150" on="0"/>
        <pt x="530" y="98" on="1"/>
        <pt x="530" y="51" on="0"/>
        <pt x="592" y="-13" on="0"/>
        <pt x="656" y="-13" on="1"/>
        <pt x="693" y="-13" on="0"/>
        <pt x="757" y="13" on="0"/>
        <pt x="805" y="72" on="0"/>
        <pt x="832" y="165" on="0"/>
        <pt x="832" y="232" on="1"/>
        <pt x="832" y="265" on="0"/>
        <pt x="812" y="346" on="0"/>
        <pt x="769" y="434" on="0"/>
        <pt x="703" y="524" on="0"/>
        <pt x="657" y="566" on="1"/>
        <pt x="607" y="513" on="0"/>
        <pt x="501" y="406" on="0"/>
        <pt x="380" y="320" on="0"/>
        <pt x="236" y="266" on="0"/>
        <pt x="149" y="266" on="1"/>
        <pt x="123" y="266" on="0"/>
        <pt x="86" y="268" on="0"/>
        <pt x="55" y="273" on="0"/>
        <pt x="25" y="280" on="0"/>
        <pt x="6" y="285" on="1"/>
        <pt x="0" y="286" on="1"/>
        <pt x="-8" y="286" on="0"/>
        <pt x="-8" y="300" on="1"/>
        <pt x="-8" y="314" on="0"/>
        <pt x="0" y="314" on="1"/>
        <pt x="6" y="314" on="1"/>
        <pt x="51" y="314" on="0"/>
        <pt x="132" y="346" on="0"/>
        <pt x="209" y="400" on="0"/>
        <pt x="285" y="472" on="0"/>
        <pt x="368" y="550" on="0"/>
        <pt x="460" y="631" on="0"/>
        <pt x="514" y="668" on="1"/>
        <pt x="419" y="721" on="0"/>
        <pt x="168" y="786" on="0"/>
        <pt x="6" y="786" on="1"/>
        <pt x="-1" y="786" on="1"/>
        <pt x="-8" y="786" on="0"/>
        <pt x="-8" y="800" on="1"/>
        <pt x="-8" y="814" on="0"/>
        <pt x="-1" y="814" on="1"/>
        <pt x="6" y="814" on="1"/>
        <pt x="159" y="814" on="0"/>
        <pt x="434" y="748" on="0"/>
        <pt x="549" y="691" on="1"/>
        <pt x="635" y="744" on="0"/>
        <pt x="858" y="814" on="0"/>
        <pt x="1006" y="814" on="1"/>
        <pt x="1012" y="814" on="1"/>
        <pt x="1020" y="814" on="0"/>
      </contour>
      <contour>
        <pt x="836" y="770" on="1"/>
        <pt x="738" y="752" on="0"/>
        <pt x="582" y="680" on="0"/>
        <pt x="455" y="588" on="0"/>
        <pt x="349" y="487" on="0"/>
        <pt x="251" y="395" on="0"/>
        <pt x="154" y="321" on="0"/>
        <pt x="99" y="302" on="1"/>
        <pt x="188" y="306" on="0"/>
        <pt x="319" y="358" on="0"/>
        <pt x="426" y="437" on="0"/>
        <pt x="519" y="534" on="0"/>
        <pt x="624" y="635" on="0"/>
        <pt x="750" y="732" on="0"/>
      </contour>
      <contour>
        <pt x="909" y="182" on="1"/>
        <pt x="909" y="276" on="0"/>
        <pt x="810" y="468" on="0"/>
        <pt x="715" y="552" on="1"/>
        <pt x="754" y="510" on="0"/>
        <pt x="811" y="422" on="0"/>
        <pt x="847" y="338" on="0"/>
        <pt x="865" y="262" on="0"/>
        <pt x="865" y="231" on="1"/>
        <pt x="865" y="156" on="0"/>
        <pt x="832" y="51" on="0"/>
        <pt x="775" y="-15" on="0"/>
        <pt x="699" y="-46" on="0"/>
        <pt x="656" y="-46" on="1"/>
        <pt x="617" y="-46" on="0"/>
        <pt x="558" y="-23" on="0"/>
        <pt x="518" y="16" on="0"/>
        <pt x="498" y="68" on="0"/>
        <pt x="498" y="97" on="1"/>
        <pt x="498" y="138" on="0"/>
        <pt x="527" y="194" on="0"/>
        <pt x="550" y="210" on="1"/>
        <pt x="529" y="205" on="0"/>
        <pt x="493" y="184" on="0"/>
        <pt x="465" y="150" on="0"/>
        <pt x="449" y="103" on="0"/>
        <pt x="449" y="72" on="1"/>
        <pt x="449" y="30" on="0"/>
        <pt x="477" y="-43" on="0"/>
        <pt x="530" y="-96" on="0"/>
        <pt x="607" y="-126" on="0"/>
        <pt x="656" y="-126" on="1"/>
        <pt x="710" y="-126" on="0"/>
        <pt x="802" y="-85" on="0"/>
        <pt x="870" y="-6" on="0"/>
        <pt x="909" y="109" on="0"/>
      </contour>
    </TTGlyph>
    <TTGlyph name="E" xMin="0" yMin="-221" xMax="1014" yMax="807">
      <contour>
        <pt x="1014" y="-213" on="1"/>
        <pt x="1014" y="-221" on="0"/>
        <pt x="1000" y="-221" on="1"/>
        <pt x="986" y="-221" on="0"/>
        <pt x="986" y="-213" on="1"/>
        <pt x="986" y="-207" on="1"/>
        <pt x="986" y="-161" on="0"/>
        <pt x="957" y="-78" on="0"/>
        <pt x="907" y="-1" on="0"/>
        <pt x="841" y="70" on="0"/>
        <pt x="804" y="106" on="1"/>
        <pt x="712" y="-19" on="0"/>
        <pt x="477" y="-161" on="0"/>
        <pt x="349" y="-161" on="1"/>
        <pt x="272" y="-161" on="0"/>
        <pt x="144" y="-114" on="0"/>
        <pt x="52" y="-32" on="0"/>
        <pt x="0" y="79" on="0"/>
        <pt x="0" y="144" on="1"/>
        <pt x="0" y="204" on="0"/>
        <pt x="39" y="301" on="0"/>
        <pt x="108" y="369" on="0"/>
        <pt x="201" y="405" on="0"/>
        <pt x="256" y="405" on="1"/>
        <pt x="304" y="405" on="0"/>
        <pt x="376" y="370" on="0"/>
        <pt x="424" y="314" on="0"/>
        <pt x="448" y="246" on="0"/>
        <pt x="448" y="212" on="1"/>
        <pt x="448" y="182" on="0"/>
        <pt x="430" y="128" on="0"/>
        <pt x="411" y="109" on="1"/>
        <pt x="405" y="103" on="0"/>
        <pt x="396" y="114" on="1"/>
        <pt x="385" y="123" on="0"/>
        <pt x="391" y="129" on="1"/>
        <pt x="401" y="152" on="0"/>
        <pt x="401" y="178" on="1"/>
        <pt x="401" y="215" on="0"/>
        <pt x="350" y="269" on="0"/>
        <pt x="298" y="269" on="1"/>
        <pt x="251" y="269" on="0"/>
        <pt x="187" y="207" on="0"/>
        <pt x="187" y="143" on="1"/>
        <pt x="187" y="106" on="0"/>
        <pt x="213" y="42" on="0"/>
        <pt x="272" y="-6" on="0"/>
        <pt x="365" y="-33" on="0"/>
        <pt x="432" y="-33" on="1"/>
        <pt x="465" y="-33" on="0"/>
        <pt x="546" y="-13" on="0"/>
        <pt x="634" y="30" on="0"/>
        <pt x="724" y="96" on="0"/>
        <pt x="766" y="142" on="1"/>
        <pt x="713" y="192" on="0"/>
        <pt x="606" y="298" on="0"/>
        <pt x="520" y="419" on="0"/>
        <pt x="466" y="563" on="0"/>
        <pt x="466" y="650" on="1"/>
        <pt x="466" y="676" on="0"/>
        <pt x="468" y="713" on="0"/>
        <pt x="473" y="744" on="0"/>
        <pt x="480" y="774" on="0"/>
        <pt x="485" y="793" on="1"/>
        <pt x="486" y="799" on="1"/>
        <pt x="486" y="807" on="0"/>
        <pt x="500" y="807" on="1"/>
        <pt x="514" y="807" on="0"/>
        <pt x="514" y="799" on="1"/>
        <pt x="514" y="793" on="1"/>
        <pt x="514" y="748" on="0"/>
        <pt x="546" y="667" on="0"/>
        <pt x="600" y="590" on="0"/>
        <pt x="672" y="514" on="0"/>
        <pt x="750" y="431" on="0"/>
        <pt x="831" y="339" on="0"/>
        <pt x="868" y="285" on="1"/>
        <pt x="921" y="380" on="0"/>
        <pt x="986" y="631" on="0"/>
        <pt x="986" y="793" on="1"/>
        <pt x="986" y="800" on="1"/>
        <pt x="986" y="807" on="0"/>
        <pt x="1000" y="807" on="1"/>
        <pt x="1014" y="807" on="0"/>
        <pt x="1014" y="800" on="1"/>
        <pt x="1014" y="793" on="1"/>
        <pt x="1014" y="640" on="0"/>
        <pt x="948" y="365" on="0"/>
        <pt x="891" y="250" on="1"/>
        <pt x="944" y="164" on="0"/>
        <pt x="1014" y="-59" on="0"/>
        <pt x="1014" y="-207" on="1"/>
      </contour>
      <contour>
        <pt x="970" y="-37" on="1"/>
        <pt x="952" y="61" on="0"/>
        <pt x="880" y="217" on="0"/>
        <pt x="788" y="344" on="0"/>
        <pt x="687" y="450" on="0"/>
        <pt x="595" y="548" on="0"/>
        <pt x="521" y="645" on="0"/>
        <pt x="502" y="700" on="1"/>
        <pt x="506" y="611" on="0"/>
        <pt x="558" y="480" on="0"/>
        <pt x="637" y="373" on="0"/>
        <pt x="734" y="280" on="0"/>
        <pt x="835" y="175" on="0"/>
        <pt x="932" y="49" on="0"/>
      </contour>
      <contour>
        <pt x="752" y="84" on="1"/>
        <pt x="710" y="45" on="0"/>
        <pt x="622" y="-12" on="0"/>
        <pt x="538" y="-48" on="0"/>
        <pt x="462" y="-66" on="0"/>
        <pt x="431" y="-66" on="1"/>
        <pt x="356" y="-66" on="0"/>
        <pt x="251" y="-33" on="0"/>
        <pt x="185" y="24" on="0"/>
        <pt x="154" y="100" on="0"/>
        <pt x="154" y="143" on="1"/>
        <pt x="154" y="182" on="0"/>
        <pt x="177" y="241" on="0"/>
        <pt x="216" y="281" on="0"/>
        <pt x="268" y="301" on="0"/>
        <pt x="297" y="301" on="1"/>
        <pt x="338" y="301" on="0"/>
        <pt x="394" y="272" on="0"/>
        <pt x="410" y="249" on="1"/>
        <pt x="405" y="270" on="0"/>
        <pt x="384" y="306" on="0"/>
        <pt x="350" y="334" on="0"/>
        <pt x="303" y="350" on="0"/>
        <pt x="272" y="350" on="1"/>
        <pt x="230" y="350" on="0"/>
        <pt x="157" y="322" on="0"/>
        <pt x="104" y="269" on="0"/>
        <pt x="74" y="192" on="0"/>
        <pt x="74" y="143" on="1"/>
        <pt x="74" y="89" on="0"/>
        <pt x="115" y="-3" on="0"/>
        <pt x="194" y="-71" on="0"/>
        <pt x="309" y="-110" on="0"/>
        <pt x="382" y="-110" on="1"/>
        <pt x="476" y="-110" on="0"/>
        <pt x="668" y="-11" on="0"/>
      </contour>
    </TTGlyph>
    <TTGlyph name="F" xMin="-14" yMin="-221" xMax="1000" yMax="807">
      <contour>
        <pt x="1000" y="144" on="1"/>
        <pt x="1000" y="79" on="0"/>
        <pt x="948" y="-32" on="0"/>
        <pt x="856" y="-114" on="0"/>
        <pt x="727" y="-161" on="0"/>
        <pt x="651" y="-161" on="1"/>
        <pt x="523" y="-161" on="0"/>
        <pt x="288" y="-19" on="0"/>
        <pt x="196" y="106" on="1"/>
        <pt x="159" y="70" on="0"/>
        <pt x="93" y="-1" on="0"/>
        <pt x="43" y="-78" on="0"/>
        <pt x="14" y="-161" on="0"/>
        <pt x="14" y="-207" on="1"/>
        <pt x="14" y="-213" on="1"/>
        <pt x="14" y="-221" on="0"/>
        <pt x="0" y="-221" on="1"/>
        <pt x="-14" y="-221" on="0"/>
        <pt x="-14" y="-213" on="1"/>
        <pt x="-14" y="-207" on="1"/>
        <pt x="-14" y="-59" on="0"/>
        <pt x="56" y="164" on="0"/>
        <pt x="109" y="250" on="1"/>
        <pt x="52" y="365" on="0"/>
        <pt x="-14" y="640" on="0"/>
        <pt x="-14" y="793" on="1"/>
        <pt x="-14" y="800" on="1"/>
        <pt x="-14" y="807" on="0"/>
        <pt x="0" y="807" on="1"/>
        <pt x="14" y="807" on="0"/>
        <pt x="14" y="800" on="1"/>
        <pt x="14" y="793" on="1"/>
        <pt x="14" y="631" on="0"/>
        <pt x="79" y="380" on="0"/>
        <pt x="132" y="285" on="1"/>
        <pt x="169" y="339" on="0"/>
        <pt x="250" y="431" on="0"/>
        <pt x="328" y="514" on="0"/>
        <pt x="400" y="590" on="0"/>
        <pt x="454" y="667" on="0"/>
        <pt x="486" y="747" on="0"/>
        <pt x="486" y="793" on="1"/>
        <pt x="486" y="799" on="1"/>
        <pt x="486" y="807" on="0"/>
        <pt x="500" y="807" on="1"/>
        <pt x="514" y="807" on="0"/>
        <pt x="514" y="799" on="1"/>
        <pt x="515" y="793" on="1"/>
        <pt x="520" y="774" on="0"/>
        <pt x="527" y="744" on="0"/>
        <pt x="532" y="713" on="0"/>
        <pt x="534" y="676" on="0"/>
        <pt x="534" y="650" on="1"/>
        <pt x="534" y="563" on="0"/>
        <pt x="480" y="419" on="0"/>
        <pt x="394" y="298" on="0"/>
        <pt x="287" y="192" on="0"/>
        <pt x="234" y="142" on="1"/>
        <pt x="276" y="96" on="0"/>
        <pt x="366" y="30" on="0"/>
        <pt x="454" y="-13" on="0"/>
        <pt x="535" y="-33" on="0"/>
        <pt x="568" y="-33" on="1"/>
        <pt x="635" y="-33" on="0"/>
        <pt x="728" y="-6" on="0"/>
        <pt x="787" y="42" on="0"/>
        <pt x="813" y="106" on="0"/>
        <pt x="813" y="143" on="1"/>
        <pt x="813" y="207" on="0"/>
        <pt x="749" y="269" on="0"/>
        <pt x="702" y="269" on="1"/>
        <pt x="650" y="269" on="0"/>
        <pt x="599" y="215" on="0"/>
        <pt x="599" y="178" on="1"/>
        <pt x="599" y="152" on="0"/>
        <pt x="609" y="129" on="1"/>
        <pt x="615" y="123" on="0"/>
        <pt x="604" y="114" on="1"/>
        <pt x="595" y="103" on="0"/>
        <pt x="589" y="109" on="1"/>
        <pt x="570" y="128" on="0"/>
        <pt x="552" y="182" on="0"/>
        <pt x="552" y="212" on="1"/>
        <pt x="552" y="246" on="0"/>
        <pt x="576" y="314" on="0"/>
        <pt x="624" y="370" on="0"/>
        <pt x="696" y="405" on="0"/>
        <pt x="744" y="405" on="1"/>
        <pt x="799" y="405" on="0"/>
        <pt x="892" y="369" on="0"/>
        <pt x="961" y="301" on="0"/>
        <pt x="1000" y="204" on="0"/>
      </contour>
      <contour>
        <pt x="926" y="143" on="1"/>
        <pt x="926" y="192" on="0"/>
        <pt x="896" y="269" on="0"/>
        <pt x="843" y="322" on="0"/>
        <pt x="770" y="350" on="0"/>
        <pt x="728" y="350" on="1"/>
        <pt x="666" y="350" on="0"/>
        <pt x="600" y="290" on="0"/>
        <pt x="590" y="249" on="1"/>
        <pt x="606" y="272" on="0"/>
        <pt x="662" y="301" on="0"/>
        <pt x="703" y="301" on="1"/>
        <pt x="732" y="301" on="0"/>
        <pt x="784" y="281" on="0"/>
        <pt x="823" y="241" on="0"/>
        <pt x="846" y="182" on="0"/>
        <pt x="846" y="143" on="1"/>
        <pt x="846" y="100" on="0"/>
        <pt x="815" y="24" on="0"/>
        <pt x="749" y="-33" on="0"/>
        <pt x="644" y="-66" on="0"/>
        <pt x="569" y="-66" on="1"/>
        <pt x="538" y="-66" on="0"/>
        <pt x="462" y="-48" on="0"/>
        <pt x="378" y="-12" on="0"/>
        <pt x="290" y="45" on="0"/>
        <pt x="248" y="84" on="1"/>
        <pt x="332" y="-11" on="0"/>
        <pt x="524" y="-110" on="0"/>
        <pt x="618" y="-110" on="1"/>
        <pt x="691" y="-110" on="0"/>
        <pt x="806" y="-71" on="0"/>
        <pt x="885" y="-3" on="0"/>
        <pt x="926" y="89" on="0"/>
      </contour>
      <contour>
        <pt x="498" y="700" on="1"/>
        <pt x="479" y="645" on="0"/>
        <pt x="405" y="548" on="0"/>
        <pt x="313" y="450" on="0"/>
        <pt x="212" y="344" on="0"/>
        <pt x="120" y="217" on="0"/>
        <pt x="48" y="61" on="0"/>
        <pt x="30" y="-37" on="1"/>
        <pt x="68" y="49" on="0"/>
        <pt x="165" y="175" on="0"/>
        <pt x="266" y="280" on="0"/>
        <pt x="363" y="373" on="0"/>
        <pt x="442" y="480" on="0"/>
        <pt x="493" y="611" on="0"/>
      </contour>
    </TTGlyph>
    <TTGlyph name="G" xMin="0" yMin="-220" xMax="1014" yMax="808">
      <contour>
        <pt x="1014" y="-213" on="1"/>
        <pt x="1014" y="-220" on="0"/>
        <pt x="1000" y="-220" on="1"/>
        <pt x="986" y="-220" on="0"/>
        <pt x="986" y="-213" on="1"/>
        <pt x="986" y="-206" on="1"/>
        <pt x="986" y="-44" on="0"/>
        <pt x="921" y="207" on="0"/>
        <pt x="868" y="302" on="1"/>
        <pt x="831" y="248" on="0"/>
        <pt x="750" y="156" on="0"/>
        <pt x="672" y="73" on="0"/>
        <pt x="600" y="-3" on="0"/>
        <pt x="546" y="-80" on="0"/>
        <pt x="514" y="-161" on="0"/>
        <pt x="514" y="-206" on="1"/>
        <pt x="514" y="-212" on="1"/>
        <pt x="514" y="-220" on="0"/>
        <pt x="500" y="-220" on="1"/>
        <pt x="486" y="-220" on="0"/>
        <pt x="486" y="-212" on="1"/>
        <pt x="485" y="-206" on="1"/>
        <pt x="480" y="-187" on="0"/>
        <pt x="473" y="-157" on="0"/>
        <pt x="468" y="-126" on="0"/>
        <pt x="466" y="-89" on="0"/>
        <pt x="466" y="-63" on="1"/>
        <pt x="466" y="24" on="0"/>
        <pt x="520" y="168" on="0"/>
        <pt x="606" y="289" on="0"/>
        <pt x="713" y="395" on="0"/>
        <pt x="766" y="445" on="1"/>
        <pt x="724" y="491" on="0"/>
        <pt x="634" y="557" on="0"/>
        <pt x="546" y="600" on="0"/>
        <pt x="465" y="620" on="0"/>
        <pt x="432" y="620" on="1"/>
        <pt x="365" y="620" on="0"/>
        <pt x="272" y="593" on="0"/>
        <pt x="213" y="545" on="0"/>
        <pt x="187" y="481" on="0"/>
        <pt x="187" y="444" on="1"/>
        <pt x="187" y="380" on="0"/>
        <pt x="251" y="318" on="0"/>
        <pt x="298" y="318" on="1"/>
        <pt x="350" y="318" on="0"/>
        <pt x="401" y="372" on="0"/>
        <pt x="401" y="409" on="1"/>
        <pt x="401" y="435" on="0"/>
        <pt x="391" y="458" on="1"/>
        <pt x="385" y="464" on="0"/>
        <pt x="396" y="473" on="1"/>
        <pt x="405" y="484" on="0"/>
        <pt x="411" y="478" on="1"/>
        <pt x="430" y="459" on="0"/>
        <pt x="448" y="405" on="0"/>
        <pt x="448" y="375" on="1"/>
        <pt x="448" y="341" on="0"/>
        <pt x="424" y="272" on="0"/>
        <pt x="376" y="217" on="0"/>
        <pt x="304" y="182" on="0"/>
        <pt x="256" y="182" on="1"/>
        <pt x="201" y="182" on="0"/>
        <pt x="108" y="218" on="0"/>
        <pt x="39" y="286" on="0"/>
        <pt x="0" y="383" on="0"/>
        <pt x="0" y="443" on="1"/>
        <pt x="0" y="508" on="0"/>
        <pt x="52" y="619" on="0"/>
        <pt x="144" y="701" on="0"/>
        <pt x="272" y="748" on="0"/>
        <pt x="349" y="748" on="1"/>
        <pt x="477" y="748" on="0"/>
        <pt x="712" y="606" on="0"/>
        <pt x="804" y="481" on="1"/>
        <pt x="841" y="517" on="0"/>
        <pt x="907" y="588" on="0"/>
        <pt x="957" y="665" on="0"/>
        <pt x="986" y="747" on="0"/>
        <pt x="986" y="794" on="1"/>
        <pt x="986" y="800" on="1"/>
        <pt x="986" y="808" on="0"/>
        <pt x="1000" y="808" on="1"/>
        <pt x="1014" y="808" on="0"/>
        <pt x="1014" y="800" on="1"/>
        <pt x="1014" y="794" on="1"/>
        <pt x="1014" y="646" on="0"/>
        <pt x="944" y="423" on="0"/>
        <pt x="891" y="337" on="1"/>
        <pt x="948" y="222" on="0"/>
        <pt x="1014" y="-53" on="0"/>
        <pt x="1014" y="-206" on="1"/>
      </contour>
      <contour>
        <pt x="970" y="624" on="1"/>
        <pt x="932" y="538" on="0"/>
        <pt x="835" y="412" on="0"/>
        <pt x="734" y="307" on="0"/>
        <pt x="637" y="214" on="0"/>
        <pt x="558" y="107" on="0"/>
        <pt x="506" y="-24" on="0"/>
        <pt x="502" y="-113" on="1"/>
        <pt x="521" y="-58" on="0"/>
        <pt x="595" y="39" on="0"/>
        <pt x="687" y="137" on="0"/>
        <pt x="788" y="243" on="0"/>
        <pt x="880" y="370" on="0"/>
        <pt x="952" y="525" on="0"/>
      </contour>
      <contour>
        <pt x="752" y="503" on="1"/>
        <pt x="668" y="598" on="0"/>
        <pt x="476" y="697" on="0"/>
        <pt x="382" y="697" on="1"/>
        <pt x="309" y="697" on="0"/>
        <pt x="194" y="658" on="0"/>
        <pt x="115" y="590" on="0"/>
        <pt x="74" y="498" on="0"/>
        <pt x="74" y="444" on="1"/>
        <pt x="74" y="395" on="0"/>
        <pt x="104" y="318" on="0"/>
        <pt x="157" y="265" on="0"/>
        <pt x="230" y="237" on="0"/>
        <pt x="272" y="237" on="1"/>
        <pt x="303" y="237" on="0"/>
        <pt x="350" y="253" on="0"/>
        <pt x="384" y="281" on="0"/>
        <pt x="405" y="317" on="0"/>
        <pt x="410" y="338" on="1"/>
        <pt x="394" y="315" on="0"/>
        <pt x="338" y="286" on="0"/>
        <pt x="297" y="286" on="1"/>
        <pt x="268" y="286" on="0"/>
        <pt x="216" y="306" on="0"/>
        <pt x="177" y="346" on="0"/>
        <pt x="154" y="405" on="0"/>
        <pt x="154" y="444" on="1"/>
        <pt x="154" y="487" on="0"/>
        <pt x="185" y="563" on="0"/>
        <pt x="251" y="620" on="0"/>
        <pt x="356" y="653" on="0"/>
        <pt x="431" y="653" on="1"/>
        <pt x="462" y="653" on="0"/>
        <pt x="538" y="635" on="0"/>
        <pt x="622" y="599" on="0"/>
        <pt x="710" y="542" on="0"/>
      </contour>
    </TTGlyph>
    <TTGlyph name="H" xMin="-14" yMin="-220" xMax="1000" yMax="808">
      <contour>
        <pt x="1000" y="443" on="1"/>
        <pt x="1000" y="383" on="0"/>
        <pt x="961" y="286" on="0"/>
        <pt x="892" y="218" on="0"/>
        <pt x="799" y="182" on="0"/>
        <pt x="744" y="182" on="1"/>
        <pt x="696" y="182" on="0"/>
        <pt x="624" y="217" on="0"/>
        <pt x="576" y="272" on="0"/>
        <pt x="552" y="341" on="0"/>
        <pt x="552" y="375" on="1"/>
        <pt x="552" y="405" on="0"/>
        <pt x="570" y="459" on="0"/>
        <pt x="589" y="478" on="1"/>
        <pt x="595" y="484" on="0"/>
        <pt x="604" y="473" on="1"/>
        <pt x="615" y="464" on="0"/>
        <pt x="609" y="458" on="1"/>
        <pt x="599" y="435" on="0"/>
        <pt x="599" y="409" on="1"/>
        <pt x="599" y="372" on="0"/>
        <pt x="650" y="318" on="0"/>
        <pt x="702" y="318" on="1"/>
        <pt x="749" y="318" on="0"/>
        <pt x="813" y="380" on="0"/>
        <pt x="813" y="444" on="1"/>
        <pt x="813" y="481" on="0"/>
        <pt x="787" y="545" on="0"/>
        <pt x="728" y="593" on="0"/>
        <pt x="635" y="620" on="0"/>
        <pt x="568" y="620" on="1"/>
        <pt x="535" y="620" on="0"/>
        <pt x="454" y="600" on="0"/>
        <pt x="366" y="557" on="0"/>
        <pt x="276" y="491" on="0"/>
        <pt x="234" y="445" on="1"/>
        <pt x="287" y="395" on="0"/>
        <pt x="394" y="289" on="0"/>
        <pt x="480" y="168" on="0"/>
        <pt x="534" y="24" on="0"/>
        <pt x="534" y="-63" on="1"/>
        <pt x="534" y="-89" on="0"/>
        <pt x="532" y="-126" on="0"/>
        <pt x="527" y="-157" on="0"/>
        <pt x="520" y="-187" on="0"/>
        <pt x="515" y="-206" on="1"/>
        <pt x="514" y="-212" on="1"/>
        <pt x="514" y="-220" on="0"/>
        <pt x="500" y="-220" on="1"/>
        <pt x="486" y="-220" on="0"/>
        <pt x="486" y="-212" on="1"/>
        <pt x="486" y="-206" on="1"/>
        <pt x="486" y="-161" on="0"/>
        <pt x="454" y="-80" on="0"/>
        <pt x="400" y="-3" on="0"/>
        <pt x="328" y="73" on="0"/>
        <pt x="250" y="156" on="0"/>
        <pt x="169" y="248" on="0"/>
        <pt x="132" y="302" on="1"/>
        <pt x="79" y="207" on="0"/>
        <pt x="14" y="-44" on="0"/>
        <pt x="14" y="-206" on="1"/>
        <pt x="14" y="-213" on="1"/>
        <pt x="14" y="-220" on="0"/>
        <pt x="0" y="-220" on="1"/>
        <pt x="-14" y="-220" on="0"/>
        <pt x="-14" y="-213" on="1"/>
        <pt x="-14" y="-206" on="1"/>
        <pt x="-14" y="-53" on="0"/>
        <pt x="52" y="222" on="0"/>
        <pt x="109" y="337" on="1"/>
        <pt x="56" y="423" on="0"/>
        <pt x="-14" y="646" on="0"/>
        <pt x="-14" y="794" on="1"/>
        <pt x="-14" y="800" on="1"/>
        <pt x="-14" y="808" on="0"/>
        <pt x="0" y="808" on="1"/>
        <pt x="14" y="808" on="0"/>
        <pt x="14" y="800" on="1"/>
        <pt x="14" y="794" on="1"/>
        <pt x="14" y="747" on="0"/>
        <pt x="43" y="665" on="0"/>
        <pt x="93" y="588" on="0"/>
        <pt x="159" y="517" on="0"/>
        <pt x="196" y="481" on="1"/>
        <pt x="288" y="606" on="0"/>
        <pt x="523" y="748" on="0"/>
        <pt x="651" y="748" on="1"/>
        <pt x="727" y="748" on="0"/>
        <pt x="856" y="701" on="0"/>
        <pt x="948" y="619" on="0"/>
        <pt x="1000" y="508" on="0"/>
      </contour>
      <contour>
        <pt x="926" y="444" on="1"/>
        <pt x="926" y="498" on="0"/>
        <pt x="885" y="590" on="0"/>
        <pt x="806" y="658" on="0"/>
        <pt x="691" y="697" on="0"/>
        <pt x="618" y="697" on="1"/>
        <pt x="524" y="697" on="0"/>
        <pt x="332" y="598" on="0"/>
        <pt x="248" y="503" on="1"/>
        <pt x="290" y="542" on="0"/>
        <pt x="378" y="599" on="0"/>
        <pt x="462" y="635" on="0"/>
        <pt x="538" y="653" on="0"/>
        <pt x="569" y="653" on="1"/>
        <pt x="644" y="653" on="0"/>
        <pt x="749" y="620" on="0"/>
        <pt x="815" y="563" on="0"/>
        <pt x="846" y="487" on="0"/>
        <pt x="846" y="444" on="1"/>
        <pt x="846" y="405" on="0"/>
        <pt x="823" y="346" on="0"/>
        <pt x="784" y="306" on="0"/>
        <pt x="732" y="286" on="0"/>
        <pt x="703" y="286" on="1"/>
        <pt x="662" y="286" on="0"/>
        <pt x="606" y="315" on="0"/>
        <pt x="590" y="338" on="1"/>
        <pt x="600" y="297" on="0"/>
        <pt x="666" y="237" on="0"/>
        <pt x="728" y="237" on="1"/>
        <pt x="770" y="237" on="0"/>
        <pt x="843" y="265" on="0"/>
        <pt x="896" y="318" on="0"/>
        <pt x="926" y="395" on="0"/>
      </contour>
      <contour>
        <pt x="498" y="-113" on="1"/>
        <pt x="493" y="-24" on="0"/>
        <pt x="442" y="107" on="0"/>
        <pt x="363" y="214" on="0"/>
        <pt x="266" y="307" on="0"/>
        <pt x="165" y="412" on="0"/>
        <pt x="68" y="538" on="0"/>
        <pt x="30" y="624" on="1"/>
        <pt x="48" y="526" on="0"/>
        <pt x="120" y="370" on="0"/>
        <pt x="212" y="243" on="0"/>
        <pt x="313" y="137" on="0"/>
        <pt x="405" y="39" on="0"/>
        <pt x="479" y="-58" on="0"/>
      </contour>
    </TTGlyph>
    <TTGlyph name="I" xMin="-8" yMin="-214" xMax="1014" yMax="800">
      <contour>
        <pt x="1014" y="-200" on="1"/>
        <pt x="1014" y="-214" on="0"/>
        <pt x="1006" y="-214" on="1"/>
        <pt x="808" y="-214" on="0"/>
        <pt x="496" y="-171" on="0"/>
        <pt x="378" y="-130" on="1"/>
        <pt x="297" y="-169" on="0"/>
        <pt x="108" y="-214" on="0"/>
        <pt x="6" y="-214" on="1"/>
        <pt x="0" y="-214" on="1"/>
        <pt x="-8" y="-214" on="0"/>
        <pt x="-8" y="-200" on="1"/>
        <pt x="-8" y="-186" on="0"/>
        <pt x="0" y="-186" on="1"/>
        <pt x="6" y="-186" on="1"/>
        <pt x="109" y="-186" on="0"/>
        <pt x="274" y="-147" on="0"/>
        <pt x="339" y="-115" on="1"/>
        <pt x="252" y="-81" on="0"/>
        <pt x="124" y="7" on="0"/>
        <pt x="41" y="112" on="0"/>
        <pt x="0" y="233" on="0"/>
        <pt x="0" y="299" on="1"/>
        <pt x="0" y="418" on="0"/>
        <pt x="73" y="605" on="0"/>
        <pt x="205" y="733" on="0"/>
        <pt x="389" y="800" on="0"/>
        <pt x="500" y="800" on="1"/>
        <pt x="569" y="800" on="0"/>
        <pt x="697" y="765" on="0"/>
        <pt x="808" y="702" on="0"/>
        <pt x="899" y="615" on="0"/>
        <pt x="964" y="512" on="0"/>
        <pt x="1000" y="397" on="0"/>
        <pt x="1000" y="337" on="1"/>
        <pt x="1000" y="254" on="0"/>
        <pt x="935" y="111" on="0"/>
        <pt x="828" y="1" on="0"/>
        <pt x="693" y="-69" on="0"/>
        <pt x="623" y="-79" on="1"/>
        <pt x="615" y="-79" on="0"/>
        <pt x="615" y="-65" on="1"/>
        <pt x="615" y="-53" on="0"/>
        <pt x="623" y="-51" on="1"/>
        <pt x="721" y="-26" on="0"/>
        <pt x="833" y="128" on="0"/>
        <pt x="833" y="240" on="1"/>
        <pt x="833" y="315" on="0"/>
        <pt x="780" y="445" on="0"/>
        <pt x="684" y="540" on="0"/>
        <pt x="550" y="594" on="0"/>
        <pt x="469" y="594" on="1"/>
        <pt x="384" y="594" on="0"/>
        <pt x="251" y="548" on="0"/>
        <pt x="160" y="462" on="0"/>
        <pt x="112" y="339" on="0"/>
        <pt x="112" y="262" on="1"/>
        <pt x="112" y="214" on="0"/>
        <pt x="141" y="117" on="0"/>
        <pt x="206" y="26" on="0"/>
        <pt x="311" y="-56" on="0"/>
        <pt x="388" y="-89" on="1"/>
        <pt x="434" y="-61" on="0"/>
        <pt x="503" y="4" on="0"/>
        <pt x="548" y="69" on="0"/>
        <pt x="571" y="130" on="0"/>
        <pt x="571" y="156" on="1"/>
        <pt x="571" y="198" on="0"/>
        <pt x="554" y="258" on="0"/>
        <pt x="524" y="295" on="0"/>
        <pt x="483" y="312" on="0"/>
        <pt x="459" y="312" on="1"/>
        <pt x="418" y="312" on="0"/>
        <pt x="379" y="270" on="0"/>
        <pt x="379" y="241" on="1"/>
        <pt x="379" y="208" on="0"/>
        <pt x="413" y="176" on="0"/>
        <pt x="437" y="176" on="1"/>
        <pt x="451" y="176" on="0"/>
        <pt x="468" y="182" on="1"/>
        <pt x="471" y="185" on="0"/>
        <pt x="478" y="179" on="1"/>
        <pt x="483" y="172" on="0"/>
        <pt x="480" y="169" on="1"/>
        <pt x="468" y="157" on="0"/>
        <pt x="434" y="146" on="0"/>
        <pt x="415" y="146" on="1"/>
        <pt x="394" y="146" on="0"/>
        <pt x="350" y="161" on="0"/>
        <pt x="314" y="191" on="0"/>
        <pt x="292" y="237" on="0"/>
        <pt x="292" y="268" on="1"/>
        <pt x="292" y="303" on="0"/>
        <pt x="315" y="362" on="0"/>
        <pt x="358" y="406" on="0"/>
        <pt x="420" y="430" on="0"/>
        <pt x="458" y="430" on="1"/>
        <pt x="499" y="430" on="0"/>
        <pt x="570" y="397" on="0"/>
        <pt x="622" y="339" on="0"/>
        <pt x="652" y="257" on="0"/>
        <pt x="652" y="208" on="1"/>
        <pt x="652" y="163" on="0"/>
        <pt x="620" y="77" on="0"/>
        <pt x="561" y="-2" on="0"/>
        <pt x="477" y="-74" on="0"/>
        <pt x="426" y="-104" on="1"/>
        <pt x="529" y="-142" on="0"/>
        <pt x="814" y="-186" on="0"/>
        <pt x="1006" y="-186" on="1"/>
        <pt x="1014" y="-186" on="0"/>
      </contour>
      <contour>
        <pt x="933" y="298" on="1"/>
        <pt x="933" y="382" on="0"/>
        <pt x="865" y="534" on="0"/>
        <pt x="745" y="650" on="0"/>
        <pt x="582" y="718" on="0"/>
        <pt x="487" y="718" on="1"/>
        <pt x="386" y="718" on="0"/>
        <pt x="223" y="659" on="0"/>
        <pt x="108" y="548" on="0"/>
        <pt x="44" y="386" on="0"/>
        <pt x="44" y="284" on="1"/>
        <pt x="44" y="206" on="0"/>
        <pt x="107" y="67" on="0"/>
        <pt x="176" y="10" on="1"/>
        <pt x="124" y="72" on="0"/>
        <pt x="80" y="202" on="0"/>
        <pt x="80" y="262" on="1"/>
        <pt x="80" y="346" on="0"/>
        <pt x="133" y="480" on="0"/>
        <pt x="233" y="575" on="0"/>
        <pt x="377" y="626" on="0"/>
        <pt x="469" y="626" on="1"/>
        <pt x="557" y="626" on="0"/>
        <pt x="703" y="567" on="0"/>
        <pt x="808" y="463" on="0"/>
        <pt x="865" y="322" on="0"/>
        <pt x="865" y="240" on="1"/>
        <pt x="865" y="174" on="0"/>
        <pt x="829" y="64" on="0"/>
        <pt x="795" y="23" on="1"/>
        <pt x="858" y="68" on="0"/>
        <pt x="933" y="205" on="0"/>
      </contour>
      <contour>
        <pt x="620" y="187" on="1"/>
        <pt x="620" y="233" on="0"/>
        <pt x="595" y="306" on="0"/>
        <pt x="552" y="357" on="0"/>
        <pt x="493" y="383" on="0"/>
        <pt x="459" y="383" on="1"/>
        <pt x="396" y="383" on="0"/>
        <pt x="327" y="311" on="0"/>
        <pt x="327" y="257" on="1"/>
        <pt x="327" y="237" on="0"/>
        <pt x="342" y="208" on="0"/>
        <pt x="356" y="197" on="1"/>
        <pt x="352" y="206" on="0"/>
        <pt x="347" y="228" on="0"/>
        <pt x="347" y="241" on="1"/>
        <pt x="347" y="262" on="0"/>
        <pt x="361" y="299" on="0"/>
        <pt x="388" y="327" on="0"/>
        <pt x="430" y="344" on="0"/>
        <pt x="459" y="344" on="1"/>
        <pt x="525" y="344" on="0"/>
        <pt x="603" y="250" on="0"/>
        <pt x="603" y="156" on="1"/>
        <pt x="603" y="117" on="0"/>
        <pt x="579" y="69" on="1"/>
        <pt x="599" y="99" on="0"/>
        <pt x="620" y="159" on="0"/>
      </contour>
    </TTGlyph>
    <TTGlyph name="J" xMin="-14" yMin="-214" xMax="1008" yMax="800">
      <contour>
        <pt x="1008" y="-200" on="1"/>
        <pt x="1008" y="-214" on="0"/>
        <pt x="1000" y="-214" on="1"/>
        <pt x="994" y="-214" on="1"/>
        <pt x="892" y="-214" on="0"/>
        <pt x="703" y="-169" on="0"/>
        <pt x="622" y="-130" on="1"/>
        <pt x="504" y="-171" on="0"/>
        <pt x="192" y="-214" on="0"/>
        <pt x="-6" y="-214" on="1"/>
        <pt x="-14" y="-214" on="0"/>
        <pt x="-14" y="-200" on="1"/>
        <pt x="-14" y="-186" on="0"/>
        <pt x="-6" y="-186" on="1"/>
        <pt x="186" y="-186" on="0"/>
        <pt x="471" y="-142" on="0"/>
        <pt x="574" y="-104" on="1"/>
        <pt x="523" y="-74" on="0"/>
        <pt x="439" y="-2" on="0"/>
        <pt x="380" y="77" on="0"/>
        <pt x="348" y="163" on="0"/>
        <pt x="348" y="208" on="1"/>
        <pt x="348" y="257" on="0"/>
        <pt x="378" y="339" on="0"/>
        <pt x="430" y="397" on="0"/>
        <pt x="501" y="430" on="0"/>
        <pt x="542" y="430" on="1"/>
        <pt x="580" y="430" on="0"/>
        <pt x="642" y="406" on="0"/>
        <pt x="685" y="362" on="0"/>
        <pt x="708" y="303" on="0"/>
        <pt x="708" y="268" on="1"/>
        <pt x="708" y="237" on="0"/>
        <pt x="686" y="191" on="0"/>
        <pt x="650" y="161" on="0"/>
        <pt x="606" y="146" on="0"/>
        <pt x="585" y="146" on="1"/>
        <pt x="566" y="146" on="0"/>
        <pt x="532" y="157" on="0"/>
        <pt x="520" y="169" on="1"/>
        <pt x="517" y="172" on="0"/>
        <pt x="522" y="179" on="1"/>
        <pt x="529" y="185" on="0"/>
        <pt x="532" y="182" on="1"/>
        <pt x="548" y="176" on="0"/>
        <pt x="563" y="176" on="1"/>
        <pt x="587" y="176" on="0"/>
        <pt x="621" y="208" on="0"/>
        <pt x="621" y="241" on="1"/>
        <pt x="621" y="270" on="0"/>
        <pt x="582" y="312" on="0"/>
        <pt x="541" y="312" on="1"/>
        <pt x="517" y="312" on="0"/>
        <pt x="476" y="295" on="0"/>
        <pt x="446" y="258" on="0"/>
        <pt x="429" y="198" on="0"/>
        <pt x="429" y="156" on="1"/>
        <pt x="429" y="130" on="0"/>
        <pt x="452" y="69" on="0"/>
        <pt x="497" y="4" on="0"/>
        <pt x="566" y="-61" on="0"/>
        <pt x="612" y="-89" on="1"/>
        <pt x="688" y="-56" on="0"/>
        <pt x="794" y="26" on="0"/>
        <pt x="859" y="117" on="0"/>
        <pt x="888" y="214" on="0"/>
        <pt x="888" y="262" on="1"/>
        <pt x="888" y="339" on="0"/>
        <pt x="840" y="462" on="0"/>
        <pt x="748" y="548" on="0"/>
        <pt x="616" y="594" on="0"/>
        <pt x="531" y="594" on="1"/>
        <pt x="450" y="594" on="0"/>
        <pt x="316" y="540" on="0"/>
        <pt x="220" y="445" on="0"/>
        <pt x="167" y="315" on="0"/>
        <pt x="167" y="240" on="1"/>
        <pt x="167" y="128" on="0"/>
        <pt x="279" y="-26" on="0"/>
        <pt x="377" y="-51" on="1"/>
        <pt x="385" y="-53" on="0"/>
        <pt x="385" y="-65" on="1"/>
        <pt x="385" y="-79" on="0"/>
        <pt x="377" y="-79" on="1"/>
        <pt x="307" y="-69" on="0"/>
        <pt x="172" y="1" on="0"/>
        <pt x="65" y="111" on="0"/>
        <pt x="0" y="254" on="0"/>
        <pt x="0" y="337" on="1"/>
        <pt x="0" y="397" on="0"/>
        <pt x="36" y="512" on="0"/>
        <pt x="101" y="615" on="0"/>
        <pt x="192" y="702" on="0"/>
        <pt x="303" y="765" on="0"/>
        <pt x="431" y="800" on="0"/>
        <pt x="500" y="800" on="1"/>
        <pt x="611" y="800" on="0"/>
        <pt x="795" y="733" on="0"/>
        <pt x="927" y="605" on="0"/>
        <pt x="1000" y="418" on="0"/>
        <pt x="1000" y="299" on="1"/>
        <pt x="1000" y="233" on="0"/>
        <pt x="959" y="112" on="0"/>
        <pt x="876" y="7" on="0"/>
        <pt x="748" y="-81" on="0"/>
        <pt x="661" y="-115" on="1"/>
        <pt x="726" y="-147" on="0"/>
        <pt x="891" y="-186" on="0"/>
        <pt x="994" y="-186" on="1"/>
        <pt x="1000" y="-186" on="1"/>
        <pt x="1008" y="-186" on="0"/>
      </contour>
      <contour>
        <pt x="956" y="284" on="1"/>
        <pt x="956" y="386" on="0"/>
        <pt x="892" y="548" on="0"/>
        <pt x="777" y="659" on="0"/>
        <pt x="613" y="718" on="0"/>
        <pt x="513" y="718" on="1"/>
        <pt x="418" y="718" on="0"/>
        <pt x="255" y="650" on="0"/>
        <pt x="135" y="534" on="0"/>
        <pt x="67" y="382" on="0"/>
        <pt x="67" y="298" on="1"/>
        <pt x="67" y="205" on="0"/>
        <pt x="142" y="68" on="0"/>
        <pt x="205" y="23" on="1"/>
        <pt x="171" y="64" on="0"/>
        <pt x="135" y="174" on="0"/>
        <pt x="135" y="240" on="1"/>
        <pt x="135" y="322" on="0"/>
        <pt x="192" y="463" on="0"/>
        <pt x="297" y="567" on="0"/>
        <pt x="442" y="626" on="0"/>
        <pt x="531" y="626" on="1"/>
        <pt x="622" y="626" on="0"/>
        <pt x="767" y="575" on="0"/>
        <pt x="867" y="480" on="0"/>
        <pt x="920" y="346" on="0"/>
        <pt x="920" y="262" on="1"/>
        <pt x="920" y="202" on="0"/>
        <pt x="876" y="72" on="0"/>
        <pt x="824" y="10" on="1"/>
        <pt x="893" y="67" on="0"/>
        <pt x="956" y="206" on="0"/>
      </contour>
      <contour>
        <pt x="673" y="257" on="1"/>
        <pt x="673" y="311" on="0"/>
        <pt x="604" y="383" on="0"/>
        <pt x="541" y="383" on="1"/>
        <pt x="507" y="383" on="0"/>
        <pt x="448" y="357" on="0"/>
        <pt x="405" y="306" on="0"/>
        <pt x="380" y="233" on="0"/>
        <pt x="380" y="187" on="1"/>
        <pt x="380" y="159" on="0"/>
        <pt x="401" y="99" on="0"/>
        <pt x="421" y="69" on="1"/>
        <pt x="397" y="117" on="0"/>
        <pt x="397" y="156" on="1"/>
        <pt x="397" y="250" on="0"/>
        <pt x="475" y="344" on="0"/>
        <pt x="541" y="344" on="1"/>
        <pt x="569" y="344" on="0"/>
        <pt x="612" y="327" on="0"/>
        <pt x="639" y="299" on="0"/>
        <pt x="653" y="262" on="0"/>
        <pt x="653" y="241" on="1"/>
        <pt x="653" y="228" on="0"/>
        <pt x="648" y="206" on="0"/>
        <pt x="644" y="197" on="1"/>
        <pt x="673" y="220" on="0"/>
      </contour>
    </TTGlyph>
    <TTGlyph name="K" xMin="-8" yMin="-200" xMax="1014" yMax="814">
      <contour>
        <pt x="1014" y="800" on="1"/>
        <pt x="1014" y="786" on="0"/>
        <pt x="1006" y="786" on="1"/>
        <pt x="814" y="786" on="0"/>
        <pt x="529" y="742" on="0"/>
        <pt x="426" y="704" on="1"/>
        <pt x="477" y="674" on="0"/>
        <pt x="561" y="602" on="0"/>
        <pt x="620" y="523" on="0"/>
        <pt x="652" y="437" on="0"/>
        <pt x="652" y="392" on="1"/>
        <pt x="652" y="343" on="0"/>
        <pt x="622" y="261" on="0"/>
        <pt x="570" y="203" on="0"/>
        <pt x="499" y="170" on="0"/>
        <pt x="458" y="170" on="1"/>
        <pt x="420" y="170" on="0"/>
        <pt x="358" y="194" on="0"/>
        <pt x="315" y="238" on="0"/>
        <pt x="292" y="297" on="0"/>
        <pt x="292" y="332" on="1"/>
        <pt x="292" y="363" on="0"/>
        <pt x="314" y="409" on="0"/>
        <pt x="350" y="439" on="0"/>
        <pt x="394" y="454" on="0"/>
        <pt x="415" y="454" on="1"/>
        <pt x="434" y="454" on="0"/>
        <pt x="468" y="443" on="0"/>
        <pt x="480" y="431" on="1"/>
        <pt x="483" y="428" on="0"/>
        <pt x="478" y="421" on="1"/>
        <pt x="471" y="415" on="0"/>
        <pt x="468" y="418" on="1"/>
        <pt x="451" y="424" on="0"/>
        <pt x="437" y="424" on="1"/>
        <pt x="413" y="424" on="0"/>
        <pt x="379" y="392" on="0"/>
        <pt x="379" y="359" on="1"/>
        <pt x="379" y="330" on="0"/>
        <pt x="418" y="288" on="0"/>
        <pt x="459" y="288" on="1"/>
        <pt x="483" y="288" on="0"/>
        <pt x="524" y="305" on="0"/>
        <pt x="554" y="342" on="0"/>
        <pt x="571" y="402" on="0"/>
        <pt x="571" y="444" on="1"/>
        <pt x="571" y="469" on="0"/>
        <pt x="548" y="531" on="0"/>
        <pt x="503" y="596" on="0"/>
        <pt x="434" y="661" on="0"/>
        <pt x="388" y="689" on="1"/>
        <pt x="311" y="656" on="0"/>
        <pt x="206" y="574" on="0"/>
        <pt x="141" y="483" on="0"/>
        <pt x="112" y="386" on="0"/>
        <pt x="112" y="338" on="1"/>
        <pt x="112" y="261" on="0"/>
        <pt x="160" y="138" on="0"/>
        <pt x="251" y="52" on="0"/>
        <pt x="384" y="6" on="0"/>
        <pt x="469" y="6" on="1"/>
        <pt x="550" y="6" on="0"/>
        <pt x="684" y="60" on="0"/>
        <pt x="780" y="155" on="0"/>
        <pt x="833" y="285" on="0"/>
        <pt x="833" y="360" on="1"/>
        <pt x="833" y="472" on="0"/>
        <pt x="721" y="626" on="0"/>
        <pt x="623" y="651" on="1"/>
        <pt x="615" y="653" on="0"/>
        <pt x="615" y="665" on="1"/>
        <pt x="615" y="679" on="0"/>
        <pt x="623" y="679" on="1"/>
        <pt x="693" y="669" on="0"/>
        <pt x="828" y="599" on="0"/>
        <pt x="935" y="489" on="0"/>
        <pt x="1000" y="346" on="0"/>
        <pt x="1000" y="263" on="1"/>
        <pt x="1000" y="203" on="0"/>
        <pt x="964" y="88" on="0"/>
        <pt x="899" y="-15" on="0"/>
        <pt x="808" y="-102" on="0"/>
        <pt x="697" y="-165" on="0"/>
        <pt x="569" y="-200" on="0"/>
        <pt x="500" y="-200" on="1"/>
        <pt x="389" y="-200" on="0"/>
        <pt x="205" y="-133" on="0"/>
        <pt x="73" y="-5" on="0"/>
        <pt x="0" y="182" on="0"/>
        <pt x="0" y="301" on="1"/>
        <pt x="0" y="433" on="0"/>
        <pt x="165" y="647" on="0"/>
        <pt x="339" y="715" on="1"/>
        <pt x="274" y="747" on="0"/>
        <pt x="109" y="786" on="0"/>
        <pt x="6" y="786" on="1"/>
        <pt x="0" y="786" on="1"/>
        <pt x="-8" y="786" on="0"/>
        <pt x="-8" y="800" on="1"/>
        <pt x="-8" y="814" on="0"/>
        <pt x="0" y="814" on="1"/>
        <pt x="6" y="814" on="1"/>
        <pt x="108" y="814" on="0"/>
        <pt x="297" y="769" on="0"/>
        <pt x="378" y="730" on="1"/>
        <pt x="496" y="771" on="0"/>
        <pt x="808" y="814" on="0"/>
        <pt x="1006" y="814" on="1"/>
        <pt x="1014" y="814" on="0"/>
      </contour>
      <contour>
        <pt x="620" y="413" on="1"/>
        <pt x="620" y="441" on="0"/>
        <pt x="599" y="501" on="0"/>
        <pt x="579" y="531" on="1"/>
        <pt x="603" y="483" on="0"/>
        <pt x="603" y="444" on="1"/>
        <pt x="603" y="350" on="0"/>
        <pt x="525" y="256" on="0"/>
        <pt x="459" y="256" on="1"/>
        <pt x="430" y="256" on="0"/>
        <pt x="388" y="273" on="0"/>
        <pt x="361" y="301" on="0"/>
        <pt x="347" y="338" on="0"/>
        <pt x="347" y="359" on="1"/>
        <pt x="347" y="372" on="0"/>
        <pt x="352" y="394" on="0"/>
        <pt x="356" y="403" on="1"/>
        <pt x="342" y="392" on="0"/>
        <pt x="327" y="363" on="0"/>
        <pt x="327" y="343" on="1"/>
        <pt x="327" y="289" on="0"/>
        <pt x="396" y="217" on="0"/>
        <pt x="459" y="217" on="1"/>
        <pt x="493" y="217" on="0"/>
        <pt x="552" y="243" on="0"/>
        <pt x="595" y="294" on="0"/>
        <pt x="620" y="366" on="0"/>
      </contour>
      <contour>
        <pt x="933" y="302" on="1"/>
        <pt x="933" y="395" on="0"/>
        <pt x="858" y="532" on="0"/>
        <pt x="795" y="577" on="1"/>
        <pt x="829" y="536" on="0"/>
        <pt x="865" y="426" on="0"/>
        <pt x="865" y="360" on="1"/>
        <pt x="865" y="278" on="0"/>
        <pt x="808" y="137" on="0"/>
        <pt x="703" y="33" on="0"/>
        <pt x="557" y="-26" on="0"/>
        <pt x="469" y="-26" on="1"/>
        <pt x="377" y="-26" on="0"/>
        <pt x="233" y="25" on="0"/>
        <pt x="133" y="120" on="0"/>
        <pt x="80" y="254" on="0"/>
        <pt x="80" y="338" on="1"/>
        <pt x="80" y="398" on="0"/>
        <pt x="124" y="528" on="0"/>
        <pt x="176" y="590" on="1"/>
        <pt x="107" y="533" on="0"/>
        <pt x="44" y="394" on="0"/>
        <pt x="44" y="316" on="1"/>
        <pt x="44" y="214" on="0"/>
        <pt x="108" y="52" on="0"/>
        <pt x="223" y="-59" on="0"/>
        <pt x="386" y="-118" on="0"/>
        <pt x="487" y="-118" on="1"/>
        <pt x="582" y="-118" on="0"/>
        <pt x="745" y="-50" on="0"/>
        <pt x="865" y="66" on="0"/>
        <pt x="933" y="218" on="0"/>
      </contour>
    </TTGlyph>
    <TTGlyph name="L" xMin="-14" yMin="-200" xMax="1008" yMax="814">
      <contour>
        <pt x="1008" y="800" on="1"/>
        <pt x="1008" y="786" on="0"/>
        <pt x="1000" y="786" on="1"/>
        <pt x="994" y="786" on="1"/>
        <pt x="891" y="786" on="0"/>
        <pt x="726" y="747" on="0"/>
        <pt x="661" y="715" on="1"/>
        <pt x="835" y="647" on="0"/>
        <pt x="1000" y="433" on="0"/>
        <pt x="1000" y="301" on="1"/>
        <pt x="1000" y="182" on="0"/>
        <pt x="927" y="-5" on="0"/>
        <pt x="795" y="-133" on="0"/>
        <pt x="611" y="-200" on="0"/>
        <pt x="500" y="-200" on="1"/>
        <pt x="431" y="-200" on="0"/>
        <pt x="303" y="-165" on="0"/>
        <pt x="192" y="-102" on="0"/>
        <pt x="101" y="-15" on="0"/>
        <pt x="36" y="88" on="0"/>
        <pt x="0" y="203" on="0"/>
        <pt x="0" y="263" on="1"/>
        <pt x="0" y="346" on="0"/>
        <pt x="65" y="489" on="0"/>
        <pt x="172" y="599" on="0"/>
        <pt x="307" y="669" on="0"/>
        <pt x="377" y="679" on="1"/>
        <pt x="385" y="679" on="0"/>
        <pt x="385" y="665" on="1"/>
        <pt x="385" y="653" on="0"/>
        <pt x="377" y="651" on="1"/>
        <pt x="279" y="626" on="0"/>
        <pt x="167" y="472" on="0"/>
        <pt x="167" y="360" on="1"/>
        <pt x="167" y="285" on="0"/>
        <pt x="220" y="155" on="0"/>
        <pt x="316" y="60" on="0"/>
        <pt x="450" y="6" on="0"/>
        <pt x="531" y="6" on="1"/>
        <pt x="616" y="6" on="0"/>
        <pt x="748" y="52" on="0"/>
        <pt x="840" y="138" on="0"/>
        <pt x="888" y="261" on="0"/>
        <pt x="888" y="338" on="1"/>
        <pt x="888" y="386" on="0"/>
        <pt x="859" y="483" on="0"/>
        <pt x="794" y="574" on="0"/>
        <pt x="688" y="656" on="0"/>
        <pt x="612" y="689" on="1"/>
        <pt x="566" y="661" on="0"/>
        <pt x="497" y="596" on="0"/>
        <pt x="452" y="531" on="0"/>
        <pt x="429" y="469" on="0"/>
        <pt x="429" y="444" on="1"/>
        <pt x="429" y="402" on="0"/>
        <pt x="446" y="342" on="0"/>
        <pt x="476" y="305" on="0"/>
        <pt x="517" y="288" on="0"/>
        <pt x="541" y="288" on="1"/>
        <pt x="582" y="288" on="0"/>
        <pt x="621" y="330" on="0"/>
        <pt x="621" y="359" on="1"/>
        <pt x="621" y="392" on="0"/>
        <pt x="587" y="424" on="0"/>
        <pt x="563" y="424" on="1"/>
        <pt x="548" y="424" on="0"/>
        <pt x="532" y="418" on="1"/>
        <pt x="529" y="415" on="0"/>
        <pt x="522" y="421" on="1"/>
        <pt x="517" y="428" on="0"/>
        <pt x="520" y="431" on="1"/>
        <pt x="532" y="443" on="0"/>
        <pt x="566" y="454" on="0"/>
        <pt x="585" y="454" on="1"/>
        <pt x="606" y="454" on="0"/>
        <pt x="650" y="439" on="0"/>
        <pt x="686" y="409" on="0"/>
        <pt x="708" y="363" on="0"/>
        <pt x="708" y="332" on="1"/>
        <pt x="708" y="297" on="0"/>
        <pt x="685" y="238" on="0"/>
        <pt x="642" y="194" on="0"/>
        <pt x="580" y="170" on="0"/>
        <pt x="542" y="170" on="1"/>
        <pt x="501" y="170" on="0"/>
        <pt x="430" y="203" on="0"/>
        <pt x="378" y="261" on="0"/>
        <pt x="348" y="343" on="0"/>
        <pt x="348" y="392" on="1"/>
        <pt x="348" y="437" on="0"/>
        <pt x="380" y="523" on="0"/>
        <pt x="439" y="602" on="0"/>
        <pt x="523" y="674" on="0"/>
        <pt x="574" y="704" on="1"/>
        <pt x="471" y="742" on="0"/>
        <pt x="186" y="786" on="0"/>
        <pt x="-6" y="786" on="1"/>
        <pt x="-14" y="786" on="0"/>
        <pt x="-14" y="800" on="1"/>
        <pt x="-14" y="814" on="0"/>
        <pt x="-6" y="814" on="1"/>
        <pt x="192" y="814" on="0"/>
        <pt x="504" y="771" on="0"/>
        <pt x="622" y="730" on="1"/>
        <pt x="703" y="769" on="0"/>
        <pt x="892" y="814" on="0"/>
        <pt x="994" y="814" on="1"/>
        <pt x="1000" y="814" on="1"/>
        <pt x="1008" y="814" on="0"/>
      </contour>
      <contour>
        <pt x="673" y="343" on="1"/>
        <pt x="673" y="380" on="0"/>
        <pt x="644" y="403" on="1"/>
        <pt x="648" y="394" on="0"/>
        <pt x="653" y="372" on="0"/>
        <pt x="653" y="359" on="1"/>
        <pt x="653" y="338" on="0"/>
        <pt x="639" y="301" on="0"/>
        <pt x="612" y="273" on="0"/>
        <pt x="569" y="256" on="0"/>
        <pt x="541" y="256" on="1"/>
        <pt x="475" y="256" on="0"/>
        <pt x="397" y="350" on="0"/>
        <pt x="397" y="444" on="1"/>
        <pt x="397" y="483" on="0"/>
        <pt x="421" y="531" on="1"/>
        <pt x="401" y="501" on="0"/>
        <pt x="380" y="441" on="0"/>
        <pt x="380" y="413" on="1"/>
        <pt x="380" y="366" on="0"/>
        <pt x="405" y="294" on="0"/>
        <pt x="448" y="243" on="0"/>
        <pt x="507" y="217" on="0"/>
        <pt x="541" y="217" on="1"/>
        <pt x="604" y="217" on="0"/>
        <pt x="673" y="289" on="0"/>
      </contour>
      <contour>
        <pt x="956" y="316" on="1"/>
        <pt x="956" y="394" on="0"/>
        <pt x="893" y="533" on="0"/>
        <pt x="824" y="590" on="1"/>
        <pt x="876" y="528" on="0"/>
        <pt x="920" y="398" on="0"/>
        <pt x="920" y="338" on="1"/>
        <pt x="920" y="254" on="0"/>
        <pt x="867" y="120" on="0"/>
        <pt x="767" y="25" on="0"/>
        <pt x="622" y="-26" on="0"/>
        <pt x="531" y="-26" on="1"/>
        <pt x="442" y="-26" on="0"/>
        <pt x="297" y="33" on="0"/>
        <pt x="192" y="137" on="0"/>
        <pt x="135" y="278" on="0"/>
        <pt x="135" y="360" on="1"/>
        <pt x="135" y="426" on="0"/>
        <pt x="171" y="536" on="0"/>
        <pt x="205" y="577" on="1"/>
        <pt x="142" y="532" on="0"/>
        <pt x="67" y="395" on="0"/>
        <pt x="67" y="302" on="1"/>
        <pt x="67" y="218" on="0"/>
        <pt x="135" y="66" on="0"/>
        <pt x="255" y="-50" on="0"/>
        <pt x="418" y="-118" on="0"/>
        <pt x="513" y="-118" on="1"/>
        <pt x="613" y="-118" on="0"/>
        <pt x="777" y="-59" on="0"/>
        <pt x="892" y="52" on="0"/>
        <pt x="956" y="214" on="0"/>
      </contour>
    </TTGlyph>
    <TTGlyph name="M" xMin="0" yMin="-208" xMax="1014" yMax="814">
      <contour>
        <pt x="1014" y="-200" on="1"/>
        <pt x="1014" y="-208" on="0"/>
        <pt x="1000" y="-208" on="1"/>
        <pt x="986" y="-208" on="0"/>
        <pt x="986" y="-200" on="1"/>
        <pt x="986" y="-194" on="1"/>
        <pt x="986" y="-91" on="0"/>
        <pt x="947" y="74" on="0"/>
        <pt x="915" y="139" on="1"/>
        <pt x="847" y="-35" on="0"/>
        <pt x="633" y="-200" on="0"/>
        <pt x="501" y="-200" on="1"/>
        <pt x="382" y="-200" on="0"/>
        <pt x="195" y="-127" on="0"/>
        <pt x="67" y="5" on="0"/>
        <pt x="0" y="189" on="0"/>
        <pt x="0" y="300" on="1"/>
        <pt x="0" y="369" on="0"/>
        <pt x="35" y="497" on="0"/>
        <pt x="98" y="608" on="0"/>
        <pt x="185" y="699" on="0"/>
        <pt x="288" y="764" on="0"/>
        <pt x="403" y="800" on="0"/>
        <pt x="463" y="800" on="1"/>
        <pt x="546" y="800" on="0"/>
        <pt x="689" y="735" on="0"/>
        <pt x="799" y="628" on="0"/>
        <pt x="869" y="493" on="0"/>
        <pt x="879" y="423" on="1"/>
        <pt x="879" y="415" on="0"/>
        <pt x="865" y="415" on="1"/>
        <pt x="853" y="415" on="0"/>
        <pt x="851" y="423" on="1"/>
        <pt x="826" y="521" on="0"/>
        <pt x="672" y="633" on="0"/>
        <pt x="560" y="633" on="1"/>
        <pt x="485" y="633" on="0"/>
        <pt x="355" y="580" on="0"/>
        <pt x="260" y="484" on="0"/>
        <pt x="206" y="350" on="0"/>
        <pt x="206" y="269" on="1"/>
        <pt x="206" y="184" on="0"/>
        <pt x="252" y="51" on="0"/>
        <pt x="338" y="-40" on="0"/>
        <pt x="461" y="-88" on="0"/>
        <pt x="538" y="-88" on="1"/>
        <pt x="586" y="-88" on="0"/>
        <pt x="683" y="-59" on="0"/>
        <pt x="774" y="6" on="0"/>
        <pt x="856" y="111" on="0"/>
        <pt x="889" y="188" on="1"/>
        <pt x="861" y="234" on="0"/>
        <pt x="796" y="303" on="0"/>
        <pt x="731" y="348" on="0"/>
        <pt x="669" y="371" on="0"/>
        <pt x="644" y="371" on="1"/>
        <pt x="602" y="371" on="0"/>
        <pt x="542" y="354" on="0"/>
        <pt x="505" y="324" on="0"/>
        <pt x="488" y="283" on="0"/>
        <pt x="488" y="259" on="1"/>
        <pt x="488" y="218" on="0"/>
        <pt x="530" y="179" on="0"/>
        <pt x="559" y="179" on="1"/>
        <pt x="592" y="179" on="0"/>
        <pt x="624" y="213" on="0"/>
        <pt x="624" y="237" on="1"/>
        <pt x="624" y="251" on="0"/>
        <pt x="618" y="268" on="1"/>
        <pt x="615" y="271" on="0"/>
        <pt x="621" y="278" on="1"/>
        <pt x="628" y="283" on="0"/>
        <pt x="631" y="280" on="1"/>
        <pt x="643" y="268" on="0"/>
        <pt x="654" y="234" on="0"/>
        <pt x="654" y="215" on="1"/>
        <pt x="654" y="194" on="0"/>
        <pt x="639" y="150" on="0"/>
        <pt x="609" y="114" on="0"/>
        <pt x="563" y="92" on="0"/>
        <pt x="532" y="92" on="1"/>
        <pt x="497" y="92" on="0"/>
        <pt x="438" y="115" on="0"/>
        <pt x="394" y="158" on="0"/>
        <pt x="370" y="220" on="0"/>
        <pt x="370" y="258" on="1"/>
        <pt x="370" y="299" on="0"/>
        <pt x="403" y="370" on="0"/>
        <pt x="461" y="422" on="0"/>
        <pt x="543" y="452" on="0"/>
        <pt x="592" y="452" on="1"/>
        <pt x="637" y="452" on="0"/>
        <pt x="723" y="420" on="0"/>
        <pt x="802" y="361" on="0"/>
        <pt x="874" y="277" on="0"/>
        <pt x="904" y="226" on="1"/>
        <pt x="942" y="329" on="0"/>
        <pt x="986" y="614" on="0"/>
        <pt x="986" y="806" on="1"/>
        <pt x="986" y="814" on="0"/>
        <pt x="1000" y="814" on="1"/>
        <pt x="1014" y="814" on="0"/>
        <pt x="1014" y="806" on="1"/>
        <pt x="1014" y="608" on="0"/>
        <pt x="971" y="296" on="0"/>
        <pt x="930" y="178" on="1"/>
        <pt x="969" y="97" on="0"/>
        <pt x="1014" y="-92" on="0"/>
        <pt x="1014" y="-194" on="1"/>
      </contour>
      <contour>
        <pt x="731" y="379" on="1"/>
        <pt x="701" y="399" on="0"/>
        <pt x="641" y="420" on="0"/>
        <pt x="613" y="420" on="1"/>
        <pt x="566" y="420" on="0"/>
        <pt x="494" y="395" on="0"/>
        <pt x="443" y="352" on="0"/>
        <pt x="417" y="293" on="0"/>
        <pt x="417" y="259" on="1"/>
        <pt x="417" y="196" on="0"/>
        <pt x="489" y="127" on="0"/>
        <pt x="543" y="127" on="1"/>
        <pt x="563" y="127" on="0"/>
        <pt x="592" y="142" on="0"/>
        <pt x="603" y="156" on="1"/>
        <pt x="594" y="152" on="0"/>
        <pt x="572" y="147" on="0"/>
        <pt x="559" y="147" on="1"/>
        <pt x="538" y="147" on="0"/>
        <pt x="501" y="161" on="0"/>
        <pt x="473" y="188" on="0"/>
        <pt x="456" y="230" on="0"/>
        <pt x="456" y="259" on="1"/>
        <pt x="456" y="325" on="0"/>
        <pt x="550" y="403" on="0"/>
        <pt x="644" y="403" on="1"/>
        <pt x="683" y="403" on="0"/>
      </contour>
      <contour>
        <pt x="790" y="-24" on="1"/>
        <pt x="728" y="-76" on="0"/>
        <pt x="598" y="-120" on="0"/>
        <pt x="538" y="-120" on="1"/>
        <pt x="454" y="-120" on="0"/>
        <pt x="320" y="-67" on="0"/>
        <pt x="225" y="33" on="0"/>
        <pt x="174" y="177" on="0"/>
        <pt x="174" y="269" on="1"/>
        <pt x="174" y="357" on="0"/>
        <pt x="233" y="503" on="0"/>
        <pt x="337" y="608" on="0"/>
        <pt x="478" y="665" on="0"/>
        <pt x="560" y="665" on="1"/>
        <pt x="626" y="665" on="0"/>
        <pt x="736" y="629" on="0"/>
        <pt x="777" y="595" on="1"/>
        <pt x="732" y="658" on="0"/>
        <pt x="595" y="733" on="0"/>
        <pt x="502" y="733" on="1"/>
        <pt x="418" y="733" on="0"/>
        <pt x="266" y="665" on="0"/>
        <pt x="150" y="545" on="0"/>
        <pt x="82" y="382" on="0"/>
        <pt x="82" y="287" on="1"/>
        <pt x="82" y="186" on="0"/>
        <pt x="141" y="23" on="0"/>
        <pt x="252" y="-92" on="0"/>
        <pt x="414" y="-156" on="0"/>
        <pt x="516" y="-156" on="1"/>
        <pt x="594" y="-156" on="0"/>
        <pt x="733" y="-93" on="0"/>
      </contour>
    </TTGlyph>
    <TTGlyph name="N" xMin="-14" yMin="-208" xMax="1000" yMax="814">
      <contour>
        <pt x="1000" y="300" on="1"/>
        <pt x="1000" y="189" on="0"/>
        <pt x="933" y="5" on="0"/>
        <pt x="805" y="-127" on="0"/>
        <pt x="618" y="-200" on="0"/>
        <pt x="499" y="-200" on="1"/>
        <pt x="433" y="-200" on="0"/>
        <pt x="312" y="-159" on="0"/>
        <pt x="207" y="-76" on="0"/>
        <pt x="119" y="52" on="0"/>
        <pt x="85" y="139" on="1"/>
        <pt x="53" y="74" on="0"/>
        <pt x="14" y="-91" on="0"/>
        <pt x="14" y="-194" on="1"/>
        <pt x="14" y="-200" on="1"/>
        <pt x="14" y="-208" on="0"/>
        <pt x="0" y="-208" on="1"/>
        <pt x="-14" y="-208" on="0"/>
        <pt x="-14" y="-200" on="1"/>
        <pt x="-14" y="-194" on="1"/>
        <pt x="-14" y="-92" on="0"/>
        <pt x="31" y="97" on="0"/>
        <pt x="70" y="178" on="1"/>
        <pt x="29" y="296" on="0"/>
        <pt x="-14" y="608" on="0"/>
        <pt x="-14" y="806" on="1"/>
        <pt x="-14" y="814" on="0"/>
        <pt x="0" y="814" on="1"/>
        <pt x="14" y="814" on="0"/>
        <pt x="14" y="806" on="1"/>
        <pt x="14" y="614" on="0"/>
        <pt x="58" y="329" on="0"/>
        <pt x="96" y="226" on="1"/>
        <pt x="126" y="277" on="0"/>
        <pt x="198" y="361" on="0"/>
        <pt x="277" y="420" on="0"/>
        <pt x="363" y="452" on="0"/>
        <pt x="408" y="452" on="1"/>
        <pt x="457" y="452" on="0"/>
        <pt x="539" y="422" on="0"/>
        <pt x="597" y="370" on="0"/>
        <pt x="630" y="299" on="0"/>
        <pt x="630" y="258" on="1"/>
        <pt x="630" y="220" on="0"/>
        <pt x="606" y="158" on="0"/>
        <pt x="562" y="115" on="0"/>
        <pt x="503" y="92" on="0"/>
        <pt x="468" y="92" on="1"/>
        <pt x="437" y="92" on="0"/>
        <pt x="391" y="114" on="0"/>
        <pt x="361" y="150" on="0"/>
        <pt x="346" y="194" on="0"/>
        <pt x="346" y="215" on="1"/>
        <pt x="346" y="234" on="0"/>
        <pt x="357" y="268" on="0"/>
        <pt x="369" y="280" on="1"/>
        <pt x="372" y="283" on="0"/>
        <pt x="379" y="278" on="1"/>
        <pt x="385" y="271" on="0"/>
        <pt x="382" y="268" on="1"/>
        <pt x="376" y="251" on="0"/>
        <pt x="376" y="237" on="1"/>
        <pt x="376" y="213" on="0"/>
        <pt x="408" y="179" on="0"/>
        <pt x="441" y="179" on="1"/>
        <pt x="470" y="179" on="0"/>
        <pt x="512" y="218" on="0"/>
        <pt x="512" y="259" on="1"/>
        <pt x="512" y="283" on="0"/>
        <pt x="495" y="324" on="0"/>
        <pt x="458" y="354" on="0"/>
        <pt x="398" y="371" on="0"/>
        <pt x="356" y="371" on="1"/>
        <pt x="330" y="371" on="0"/>
        <pt x="269" y="348" on="0"/>
        <pt x="204" y="303" on="0"/>
        <pt x="139" y="234" on="0"/>
        <pt x="111" y="188" on="1"/>
        <pt x="144" y="111" on="0"/>
        <pt x="226" y="6" on="0"/>
        <pt x="317" y="-59" on="0"/>
        <pt x="414" y="-88" on="0"/>
        <pt x="462" y="-88" on="1"/>
        <pt x="539" y="-88" on="0"/>
        <pt x="662" y="-40" on="0"/>
        <pt x="748" y="51" on="0"/>
        <pt x="794" y="184" on="0"/>
        <pt x="794" y="269" on="1"/>
        <pt x="794" y="350" on="0"/>
        <pt x="740" y="484" on="0"/>
        <pt x="645" y="580" on="0"/>
        <pt x="515" y="633" on="0"/>
        <pt x="440" y="633" on="1"/>
        <pt x="328" y="633" on="0"/>
        <pt x="174" y="521" on="0"/>
        <pt x="149" y="423" on="1"/>
        <pt x="147" y="415" on="0"/>
        <pt x="135" y="415" on="1"/>
        <pt x="121" y="415" on="0"/>
        <pt x="121" y="423" on="1"/>
        <pt x="131" y="493" on="0"/>
        <pt x="201" y="628" on="0"/>
        <pt x="311" y="735" on="0"/>
        <pt x="454" y="800" on="0"/>
        <pt x="537" y="800" on="1"/>
        <pt x="597" y="800" on="0"/>
        <pt x="712" y="764" on="0"/>
        <pt x="815" y="699" on="0"/>
        <pt x="902" y="608" on="0"/>
        <pt x="965" y="497" on="0"/>
        <pt x="1000" y="369" on="0"/>
      </contour>
      <contour>
        <pt x="918" y="287" on="1"/>
        <pt x="918" y="382" on="0"/>
        <pt x="850" y="545" on="0"/>
        <pt x="734" y="665" on="0"/>
        <pt x="582" y="733" on="0"/>
        <pt x="498" y="733" on="1"/>
        <pt x="405" y="733" on="0"/>
        <pt x="268" y="658" on="0"/>
        <pt x="223" y="595" on="1"/>
        <pt x="264" y="629" on="0"/>
        <pt x="374" y="665" on="0"/>
        <pt x="440" y="665" on="1"/>
        <pt x="522" y="665" on="0"/>
        <pt x="663" y="608" on="0"/>
        <pt x="767" y="503" on="0"/>
        <pt x="826" y="357" on="0"/>
        <pt x="826" y="269" on="1"/>
        <pt x="826" y="177" on="0"/>
        <pt x="775" y="33" on="0"/>
        <pt x="680" y="-67" on="0"/>
        <pt x="546" y="-120" on="0"/>
        <pt x="462" y="-120" on="1"/>
        <pt x="402" y="-120" on="0"/>
        <pt x="272" y="-76" on="0"/>
        <pt x="210" y="-24" on="1"/>
        <pt x="267" y="-93" on="0"/>
        <pt x="406" y="-156" on="0"/>
        <pt x="484" y="-156" on="1"/>
        <pt x="586" y="-156" on="0"/>
        <pt x="748" y="-92" on="0"/>
        <pt x="859" y="23" on="0"/>
        <pt x="918" y="186" on="0"/>
      </contour>
      <contour>
        <pt x="583" y="259" on="1"/>
        <pt x="583" y="293" on="0"/>
        <pt x="557" y="352" on="0"/>
        <pt x="506" y="395" on="0"/>
        <pt x="433" y="420" on="0"/>
        <pt x="387" y="420" on="1"/>
        <pt x="359" y="420" on="0"/>
        <pt x="299" y="399" on="0"/>
        <pt x="269" y="379" on="1"/>
        <pt x="317" y="403" on="0"/>
        <pt x="356" y="403" on="1"/>
        <pt x="450" y="403" on="0"/>
        <pt x="544" y="325" on="0"/>
        <pt x="544" y="259" on="1"/>
        <pt x="544" y="230" on="0"/>
        <pt x="527" y="188" on="0"/>
        <pt x="499" y="161" on="0"/>
        <pt x="462" y="147" on="0"/>
        <pt x="441" y="147" on="1"/>
        <pt x="428" y="147" on="0"/>
        <pt x="406" y="152" on="0"/>
        <pt x="397" y="156" on="1"/>
        <pt x="420" y="127" on="0"/>
        <pt x="457" y="127" on="1"/>
        <pt x="511" y="127" on="0"/>
        <pt x="583" y="196" on="0"/>
      </contour>
    </TTGlyph>
    <TTGlyph name="O" xMin="0" yMin="-214" xMax="1014" yMax="808">
      <contour>
        <pt x="1014" y="-206" on="1"/>
        <pt x="1014" y="-214" on="0"/>
        <pt x="1000" y="-214" on="1"/>
        <pt x="986" y="-214" on="0"/>
        <pt x="986" y="-206" on="1"/>
        <pt x="986" y="-14" on="0"/>
        <pt x="942" y="271" on="0"/>
        <pt x="904" y="374" on="1"/>
        <pt x="874" y="323" on="0"/>
        <pt x="802" y="239" on="0"/>
        <pt x="723" y="180" on="0"/>
        <pt x="637" y="148" on="0"/>
        <pt x="592" y="148" on="1"/>
        <pt x="543" y="148" on="0"/>
        <pt x="461" y="178" on="0"/>
        <pt x="403" y="230" on="0"/>
        <pt x="370" y="301" on="0"/>
        <pt x="370" y="342" on="1"/>
        <pt x="370" y="380" on="0"/>
        <pt x="394" y="442" on="0"/>
        <pt x="438" y="485" on="0"/>
        <pt x="497" y="508" on="0"/>
        <pt x="532" y="508" on="1"/>
        <pt x="563" y="508" on="0"/>
        <pt x="609" y="486" on="0"/>
        <pt x="639" y="450" on="0"/>
        <pt x="654" y="406" on="0"/>
        <pt x="654" y="385" on="1"/>
        <pt x="654" y="366" on="0"/>
        <pt x="643" y="332" on="0"/>
        <pt x="631" y="320" on="1"/>
        <pt x="628" y="317" on="0"/>
        <pt x="621" y="322" on="1"/>
        <pt x="615" y="329" on="0"/>
        <pt x="618" y="332" on="1"/>
        <pt x="624" y="348" on="0"/>
        <pt x="624" y="363" on="1"/>
        <pt x="624" y="387" on="0"/>
        <pt x="592" y="421" on="0"/>
        <pt x="559" y="421" on="1"/>
        <pt x="530" y="421" on="0"/>
        <pt x="488" y="382" on="0"/>
        <pt x="488" y="341" on="1"/>
        <pt x="488" y="317" on="0"/>
        <pt x="505" y="276" on="0"/>
        <pt x="542" y="246" on="0"/>
        <pt x="602" y="229" on="0"/>
        <pt x="644" y="229" on="1"/>
        <pt x="669" y="229" on="0"/>
        <pt x="731" y="252" on="0"/>
        <pt x="796" y="297" on="0"/>
        <pt x="861" y="366" on="0"/>
        <pt x="889" y="412" on="1"/>
        <pt x="856" y="488" on="0"/>
        <pt x="774" y="594" on="0"/>
        <pt x="683" y="659" on="0"/>
        <pt x="586" y="688" on="0"/>
        <pt x="538" y="688" on="1"/>
        <pt x="461" y="688" on="0"/>
        <pt x="338" y="640" on="0"/>
        <pt x="252" y="548" on="0"/>
        <pt x="206" y="416" on="0"/>
        <pt x="206" y="331" on="1"/>
        <pt x="206" y="250" on="0"/>
        <pt x="260" y="116" on="0"/>
        <pt x="355" y="20" on="0"/>
        <pt x="485" y="-33" on="0"/>
        <pt x="560" y="-33" on="1"/>
        <pt x="672" y="-33" on="0"/>
        <pt x="826" y="79" on="0"/>
        <pt x="851" y="177" on="1"/>
        <pt x="853" y="185" on="0"/>
        <pt x="865" y="185" on="1"/>
        <pt x="879" y="185" on="0"/>
        <pt x="879" y="177" on="1"/>
        <pt x="869" y="107" on="0"/>
        <pt x="799" y="-28" on="0"/>
        <pt x="689" y="-135" on="0"/>
        <pt x="546" y="-200" on="0"/>
        <pt x="463" y="-200" on="1"/>
        <pt x="403" y="-200" on="0"/>
        <pt x="288" y="-164" on="0"/>
        <pt x="185" y="-99" on="0"/>
        <pt x="98" y="-8" on="0"/>
        <pt x="35" y="103" on="0"/>
        <pt x="0" y="231" on="0"/>
        <pt x="0" y="300" on="1"/>
        <pt x="0" y="411" on="0"/>
        <pt x="67" y="595" on="0"/>
        <pt x="195" y="727" on="0"/>
        <pt x="382" y="800" on="0"/>
        <pt x="501" y="800" on="1"/>
        <pt x="633" y="800" on="0"/>
        <pt x="847" y="635" on="0"/>
        <pt x="915" y="461" on="1"/>
        <pt x="947" y="526" on="0"/>
        <pt x="986" y="691" on="0"/>
        <pt x="986" y="794" on="1"/>
        <pt x="986" y="800" on="1"/>
        <pt x="986" y="808" on="0"/>
        <pt x="1000" y="808" on="1"/>
        <pt x="1014" y="808" on="0"/>
        <pt x="1014" y="800" on="1"/>
        <pt x="1014" y="794" on="1"/>
        <pt x="1014" y="692" on="0"/>
        <pt x="969" y="503" on="0"/>
        <pt x="930" y="422" on="1"/>
        <pt x="971" y="304" on="0"/>
        <pt x="1014" y="-8" on="0"/>
      </contour>
      <contour>
        <pt x="731" y="221" on="1"/>
        <pt x="683" y="197" on="0"/>
        <pt x="644" y="197" on="1"/>
        <pt x="550" y="197" on="0"/>
        <pt x="456" y="275" on="0"/>
        <pt x="456" y="341" on="1"/>
        <pt x="456" y="369" on="0"/>
        <pt x="473" y="412" on="0"/>
        <pt x="501" y="439" on="0"/>
        <pt x="538" y="453" on="0"/>
        <pt x="559" y="453" on="1"/>
        <pt x="572" y="453" on="0"/>
        <pt x="594" y="448" on="0"/>
        <pt x="603" y="444" on="1"/>
        <pt x="592" y="458" on="0"/>
        <pt x="563" y="473" on="0"/>
        <pt x="543" y="473" on="1"/>
        <pt x="489" y="473" on="0"/>
        <pt x="417" y="404" on="0"/>
        <pt x="417" y="341" on="1"/>
        <pt x="417" y="307" on="0"/>
        <pt x="443" y="248" on="0"/>
        <pt x="494" y="205" on="0"/>
        <pt x="566" y="180" on="0"/>
        <pt x="613" y="180" on="1"/>
        <pt x="641" y="180" on="0"/>
        <pt x="701" y="201" on="0"/>
      </contour>
      <contour>
        <pt x="790" y="624" on="1"/>
        <pt x="733" y="693" on="0"/>
        <pt x="594" y="756" on="0"/>
        <pt x="516" y="756" on="1"/>
        <pt x="414" y="756" on="0"/>
        <pt x="252" y="692" on="0"/>
        <pt x="141" y="577" on="0"/>
        <pt x="82" y="413" on="0"/>
        <pt x="82" y="313" on="1"/>
        <pt x="82" y="218" on="0"/>
        <pt x="150" y="55" on="0"/>
        <pt x="266" y="-65" on="0"/>
        <pt x="418" y="-133" on="0"/>
        <pt x="502" y="-133" on="1"/>
        <pt x="595" y="-133" on="0"/>
        <pt x="732" y="-58" on="0"/>
        <pt x="777" y="5" on="1"/>
        <pt x="736" y="-29" on="0"/>
        <pt x="626" y="-65" on="0"/>
        <pt x="560" y="-65" on="1"/>
        <pt x="478" y="-65" on="0"/>
        <pt x="337" y="-8" on="0"/>
        <pt x="233" y="97" on="0"/>
        <pt x="174" y="242" on="0"/>
        <pt x="174" y="331" on="1"/>
        <pt x="174" y="422" on="0"/>
        <pt x="225" y="567" on="0"/>
        <pt x="320" y="667" on="0"/>
        <pt x="454" y="720" on="0"/>
        <pt x="538" y="720" on="1"/>
        <pt x="598" y="720" on="0"/>
        <pt x="728" y="676" on="0"/>
      </contour>
    </TTGlyph>
    <TTGlyph name="P" xMin="-14" yMin="-214" xMax="1000" yMax="808">
      <contour>
        <pt x="1000" y="300" on="1"/>
        <pt x="1000" y="231" on="0"/>
        <pt x="965" y="103" on="0"/>
        <pt x="902" y="-8" on="0"/>
        <pt x="815" y="-99" on="0"/>
        <pt x="712" y="-164" on="0"/>
        <pt x="597" y="-200" on="0"/>
        <pt x="537" y="-200" on="1"/>
        <pt x="454" y="-200" on="0"/>
        <pt x="311" y="-135" on="0"/>
        <pt x="201" y="-28" on="0"/>
        <pt x="131" y="107" on="0"/>
        <pt x="121" y="177" on="1"/>
        <pt x="121" y="185" on="0"/>
        <pt x="135" y="185" on="1"/>
        <pt x="147" y="185" on="0"/>
        <pt x="149" y="177" on="1"/>
        <pt x="174" y="79" on="0"/>
        <pt x="328" y="-33" on="0"/>
        <pt x="440" y="-33" on="1"/>
        <pt x="515" y="-33" on="0"/>
        <pt x="645" y="20" on="0"/>
        <pt x="740" y="116" on="0"/>
        <pt x="794" y="250" on="0"/>
        <pt x="794" y="331" on="1"/>
        <pt x="794" y="416" on="0"/>
        <pt x="748" y="548" on="0"/>
        <pt x="662" y="640" on="0"/>
        <pt x="539" y="688" on="0"/>
        <pt x="462" y="688" on="1"/>
        <pt x="414" y="688" on="0"/>
        <pt x="317" y="659" on="0"/>
        <pt x="226" y="594" on="0"/>
        <pt x="144" y="488" on="0"/>
        <pt x="111" y="412" on="1"/>
        <pt x="139" y="366" on="0"/>
        <pt x="204" y="297" on="0"/>
        <pt x="269" y="252" on="0"/>
        <pt x="330" y="229" on="0"/>
        <pt x="356" y="229" on="1"/>
        <pt x="398" y="229" on="0"/>
        <pt x="458" y="246" on="0"/>
        <pt x="495" y="276" on="0"/>
        <pt x="512" y="317" on="0"/>
        <pt x="512" y="341" on="1"/>
        <pt x="512" y="382" on="0"/>
        <pt x="470" y="421" on="0"/>
        <pt x="441" y="421" on="1"/>
        <pt x="408" y="421" on="0"/>
        <pt x="376" y="387" on="0"/>
        <pt x="376" y="363" on="1"/>
        <pt x="376" y="348" on="0"/>
        <pt x="382" y="332" on="1"/>
        <pt x="385" y="329" on="0"/>
        <pt x="379" y="322" on="1"/>
        <pt x="372" y="317" on="0"/>
        <pt x="369" y="320" on="1"/>
        <pt x="357" y="332" on="0"/>
        <pt x="346" y="366" on="0"/>
        <pt x="346" y="385" on="1"/>
        <pt x="346" y="406" on="0"/>
        <pt x="361" y="450" on="0"/>
        <pt x="391" y="486" on="0"/>
        <pt x="437" y="508" on="0"/>
        <pt x="468" y="508" on="1"/>
        <pt x="503" y="508" on="0"/>
        <pt x="562" y="485" on="0"/>
        <pt x="606" y="442" on="0"/>
        <pt x="630" y="380" on="0"/>
        <pt x="630" y="342" on="1"/>
        <pt x="630" y="301" on="0"/>
        <pt x="597" y="230" on="0"/>
        <pt x="539" y="178" on="0"/>
        <pt x="457" y="148" on="0"/>
        <pt x="408" y="148" on="1"/>
        <pt x="363" y="148" on="0"/>
        <pt x="277" y="180" on="0"/>
        <pt x="198" y="239" on="0"/>
        <pt x="126" y="323" on="0"/>
        <pt x="96" y="374" on="1"/>
        <pt x="58" y="271" on="0"/>
        <pt x="14" y="-14" on="0"/>
        <pt x="14" y="-206" on="1"/>
        <pt x="14" y="-214" on="0"/>
        <pt x="0" y="-214" on="1"/>
        <pt x="-14" y="-214" on="0"/>
        <pt x="-14" y="-206" on="1"/>
        <pt x="-14" y="-8" on="0"/>
        <pt x="29" y="304" on="0"/>
        <pt x="70" y="422" on="1"/>
        <pt x="31" y="503" on="0"/>
        <pt x="-14" y="692" on="0"/>
        <pt x="-14" y="794" on="1"/>
        <pt x="-14" y="800" on="1"/>
        <pt x="-14" y="808" on="0"/>
        <pt x="0" y="808" on="1"/>
        <pt x="14" y="808" on="0"/>
        <pt x="14" y="800" on="1"/>
        <pt x="14" y="794" on="1"/>
        <pt x="14" y="691" on="0"/>
        <pt x="53" y="526" on="0"/>
        <pt x="85" y="461" on="1"/>
        <pt x="119" y="548" on="0"/>
        <pt x="207" y="676" on="0"/>
        <pt x="312" y="759" on="0"/>
        <pt x="433" y="800" on="0"/>
        <pt x="499" y="800" on="1"/>
        <pt x="618" y="800" on="0"/>
        <pt x="805" y="727" on="0"/>
        <pt x="933" y="595" on="0"/>
        <pt x="1000" y="411" on="0"/>
      </contour>
      <contour>
        <pt x="918" y="313" on="1"/>
        <pt x="918" y="413" on="0"/>
        <pt x="859" y="577" on="0"/>
        <pt x="748" y="692" on="0"/>
        <pt x="586" y="756" on="0"/>
        <pt x="484" y="756" on="1"/>
        <pt x="406" y="756" on="0"/>
        <pt x="267" y="693" on="0"/>
        <pt x="210" y="624" on="1"/>
        <pt x="272" y="676" on="0"/>
        <pt x="402" y="720" on="0"/>
        <pt x="462" y="720" on="1"/>
        <pt x="546" y="720" on="0"/>
        <pt x="680" y="667" on="0"/>
        <pt x="775" y="567" on="0"/>
        <pt x="826" y="422" on="0"/>
        <pt x="826" y="331" on="1"/>
        <pt x="826" y="242" on="0"/>
        <pt x="767" y="97" on="0"/>
        <pt x="663" y="-8" on="0"/>
        <pt x="522" y="-65" on="0"/>
        <pt x="440" y="-65" on="1"/>
        <pt x="374" y="-65" on="0"/>
        <pt x="264" y="-29" on="0"/>
        <pt x="223" y="5" on="1"/>
        <pt x="268" y="-58" on="0"/>
        <pt x="405" y="-133" on="0"/>
        <pt x="498" y="-133" on="1"/>
        <pt x="582" y="-133" on="0"/>
        <pt x="734" y="-65" on="0"/>
        <pt x="850" y="55" on="0"/>
        <pt x="918" y="218" on="0"/>
      </contour>
      <contour>
        <pt x="583" y="341" on="1"/>
        <pt x="583" y="404" on="0"/>
        <pt x="511" y="473" on="0"/>
        <pt x="457" y="473" on="1"/>
        <pt x="420" y="473" on="0"/>
        <pt x="397" y="444" on="1"/>
        <pt x="406" y="448" on="0"/>
        <pt x="428" y="453" on="0"/>
        <pt x="441" y="453" on="1"/>
        <pt x="462" y="453" on="0"/>
        <pt x="499" y="439" on="0"/>
        <pt x="527" y="412" on="0"/>
        <pt x="544" y="369" on="0"/>
        <pt x="544" y="341" on="1"/>
        <pt x="544" y="275" on="0"/>
        <pt x="450" y="197" on="0"/>
        <pt x="356" y="197" on="1"/>
        <pt x="317" y="197" on="0"/>
        <pt x="269" y="221" on="1"/>
        <pt x="299" y="201" on="0"/>
        <pt x="359" y="180" on="0"/>
        <pt x="387" y="180" on="1"/>
        <pt x="433" y="180" on="0"/>
        <pt x="506" y="205" on="0"/>
        <pt x="557" y="248" on="0"/>
        <pt x="583" y="307" on="0"/>
      </contour>
    </TTGlyph>
    <TTGlyph name="Uacute" xMin="156" yMin="-260" xMax="883" yMax="802">
      <contour>
        <pt x="883" y="-10" on="1"/>
        <pt x="883" y="-15" on="0"/>
        <pt x="881" y="-19" on="1"/>
        <pt x="860" y="-61" on="0"/>
        <pt x="807" y="-134" on="0"/>
        <pt x="743" y="-188" on="0"/>
        <pt x="666" y="-219" on="0"/>
        <pt x="620" y="-219" on="1"/>
        <pt x="575" y="-219" on="0"/>
        <pt x="498" y="-183" on="0"/>
        <pt x="440" y="-119" on="0"/>
        <pt x="401" y="-28" on="0"/>
        <pt x="392" y="28" on="1"/>
        <pt x="301" y="16" on="0"/>
        <pt x="201" y="-71" on="0"/>
        <pt x="201" y="-128" on="1"/>
        <pt x="201" y="-152" on="0"/>
        <pt x="219" y="-152" on="1"/>
        <pt x="226" y="-152" on="0"/>
        <pt x="235" y="-141" on="0"/>
        <pt x="249" y="-129" on="0"/>
        <pt x="269" y="-118" on="0"/>
        <pt x="286" y="-118" on="1"/>
        <pt x="308" y="-118" on="0"/>
        <pt x="343" y="-148" on="0"/>
        <pt x="343" y="-179" on="1"/>
        <pt x="343" y="-216" on="0"/>
        <pt x="295" y="-260" on="0"/>
        <pt x="256" y="-260" on="1"/>
        <pt x="236" y="-260" on="0"/>
        <pt x="199" y="-242" on="0"/>
        <pt x="172" y="-211" on="0"/>
        <pt x="156" y="-168" on="0"/>
        <pt x="156" y="-142" on="1"/>
        <pt x="156" y="-113" on="0"/>
        <pt x="181" y="-48" on="0"/>
        <pt x="236" y="9" on="0"/>
        <pt x="325" y="52" on="0"/>
        <pt x="389" y="60" on="1"/>
        <pt x="388" y="67" on="0"/>
        <pt x="387" y="80" on="0"/>
        <pt x="387" y="88" on="1"/>
        <pt x="344" y="91" on="0"/>
        <pt x="267" y="118" on="0"/>
        <pt x="208" y="163" on="0"/>
        <pt x="173" y="225" on="0"/>
        <pt x="173" y="263" on="1"/>
        <pt x="173" y="294" on="0"/>
        <pt x="194" y="338" on="0"/>
        <pt x="227" y="366" on="0"/>
        <pt x="268" y="381" on="0"/>
        <pt x="287" y="384" on="1"/>
        <pt x="275" y="410" on="0"/>
        <pt x="263" y="478" on="0"/>
        <pt x="263" y="513" on="1"/>
        <pt x="263" y="580" on="0"/>
        <pt x="286" y="666" on="0"/>
        <pt x="319" y="719" on="0"/>
        <pt x="356" y="744" on="0"/>
        <pt x="371" y="749" on="1"/>
        <pt x="389" y="757" on="0"/>
        <pt x="398" y="777" on="0"/>
        <pt x="398" y="790" on="1"/>
        <pt x="398" y="802" on="0"/>
        <pt x="412" y="802" on="1"/>
        <pt x="426" y="802" on="0"/>
        <pt x="426" y="790" on="1"/>
        <pt x="426" y="777" on="0"/>
        <pt x="435" y="757" on="0"/>
        <pt x="453" y="749" on="1"/>
        <pt x="468" y="744" on="0"/>
        <pt x="505" y="719" on="0"/>
        <pt x="538" y="666" on="0"/>
        <pt x="561" y="580" on="0"/>
        <pt x="561" y="513" on="1"/>
        <pt x="561" y="478" on="0"/>
        <pt x="549" y="410" on="0"/>
        <pt x="538" y="384" on="1"/>
        <pt x="557" y="381" on="0"/>
        <pt x="597" y="366" on="0"/>
        <pt x="630" y="338" on="0"/>
        <pt x="651" y="294" on="0"/>
        <pt x="651" y="263" on="1"/>
        <pt x="651" y="225" on="0"/>
        <pt x="614" y="163" on="0"/>
        <pt x="553" y="118" on="0"/>
        <pt x="474" y="90" on="0"/>
        <pt x="432" y="87" on="1"/>
        <pt x="431" y="81" on="0"/>
        <pt x="430" y="69" on="0"/>
        <pt x="430" y="63" on="1"/>
        <pt x="435" y="63" on="0"/>
        <pt x="446" y="64" on="0"/>
        <pt x="451" y="64" on="1"/>
        <pt x="485" y="64" on="0"/>
        <pt x="562" y="48" on="0"/>
        <pt x="637" y="6" on="0"/>
        <pt x="705" y="-66" on="0"/>
        <pt x="731" y="-122" on="1"/>
        <pt x="759" y="-93" on="0"/>
        <pt x="796" y="-26" on="0"/>
        <pt x="813" y="19" on="1"/>
        <pt x="815" y="25" on="0"/>
        <pt x="823" y="32" on="0"/>
        <pt x="828" y="32" on="1"/>
        <pt x="845" y="32" on="0"/>
        <pt x="873" y="13" on="0"/>
        <pt x="881" y="-1" on="1"/>
        <pt x="883" y="-5" on="0"/>
      </contour>
      <contour>
        <pt x="467" y="686" on="1"/>
        <pt x="467" y="700" on="0"/>
        <pt x="439" y="723" on="0"/>
        <pt x="412" y="723" on="1"/>
        <pt x="361" y="723" on="0"/>
        <pt x="295" y="620" on="0"/>
        <pt x="295" y="513" on="1"/>
        <pt x="295" y="491" on="0"/>
        <pt x="301" y="441" on="0"/>
        <pt x="314" y="398" on="0"/>
        <pt x="335" y="370" on="0"/>
        <pt x="350" y="370" on="1"/>
        <pt x="381" y="370" on="0"/>
        <pt x="414" y="437" on="0"/>
        <pt x="421" y="513" on="1"/>
        <pt x="425" y="552" on="0"/>
        <pt x="434" y="604" on="0"/>
        <pt x="445" y="637" on="0"/>
        <pt x="456" y="657" on="0"/>
        <pt x="461" y="666" on="1"/>
        <pt x="467" y="675" on="0"/>
      </contour>
      <contour>
        <pt x="701" y="-145" on="1"/>
        <pt x="684" y="-93" on="0"/>
        <pt x="623" y="-25" on="0"/>
        <pt x="551" y="15" on="0"/>
        <pt x="478" y="31" on="0"/>
        <pt x="451" y="31" on="1"/>
        <pt x="431" y="31" on="1"/>
        <pt x="435" y="-13" on="0"/>
        <pt x="467" y="-88" on="0"/>
        <pt x="517" y="-142" on="0"/>
        <pt x="579" y="-172" on="0"/>
        <pt x="613" y="-172" on="1"/>
        <pt x="642" y="-172" on="0"/>
        <pt x="682" y="-159" on="0"/>
      </contour>
      <contour>
        <pt x="578" y="300" on="1"/>
        <pt x="578" y="344" on="0"/>
        <pt x="523" y="356" on="1"/>
        <pt x="504" y="327" on="0"/>
        <pt x="447" y="292" on="0"/>
        <pt x="412" y="292" on="1"/>
        <pt x="377" y="292" on="0"/>
        <pt x="320" y="327" on="0"/>
        <pt x="301" y="356" on="1"/>
        <pt x="246" y="344" on="0"/>
        <pt x="246" y="300" on="1"/>
        <pt x="246" y="282" on="0"/>
        <pt x="273" y="255" on="0"/>
        <pt x="319" y="237" on="0"/>
        <pt x="379" y="228" on="0"/>
        <pt x="412" y="228" on="1"/>
        <pt x="445" y="228" on="0"/>
        <pt x="505" y="237" on="0"/>
        <pt x="551" y="255" on="0"/>
        <pt x="578" y="282" on="0"/>
      </contour>
      <contour>
        <pt x="400" y="179" on="1"/>
        <pt x="400" y="186" on="0"/>
        <pt x="397" y="196" on="0"/>
        <pt x="395" y="196" on="1"/>
        <pt x="360" y="197" on="0"/>
        <pt x="295" y="210" on="0"/>
        <pt x="243" y="236" on="0"/>
        <pt x="212" y="274" on="0"/>
        <pt x="212" y="300" on="1"/>
        <pt x="205" y="283" on="0"/>
        <pt x="205" y="263" on="1"/>
        <pt x="205" y="235" on="0"/>
        <pt x="229" y="189" on="0"/>
        <pt x="269" y="155" on="0"/>
        <pt x="321" y="131" on="0"/>
        <pt x="350" y="125" on="1"/>
        <pt x="354" y="124" on="0"/>
        <pt x="362" y="124" on="1"/>
        <pt x="376" y="124" on="0"/>
        <pt x="390" y="140" on="0"/>
        <pt x="395" y="153" on="1"/>
        <pt x="398" y="160" on="0"/>
        <pt x="400" y="173" on="0"/>
      </contour>
    </TTGlyph>
    <TTGlyph name="a" xMin="-13" yMin="-214" xMax="1014" yMax="800">
      <contour>
        <pt x="1014" y="-200" on="1"/>
        <pt x="1014" y="-214" on="0"/>
        <pt x="1006" y="-214" on="1"/>
        <pt x="1000" y="-214" on="1"/>
        <pt x="832" y="-214" on="0"/>
        <pt x="562" y="-149" on="0"/>
        <pt x="455" y="-92" on="1"/>
        <pt x="369" y="-145" on="0"/>
        <pt x="148" y="-214" on="0"/>
        <pt x="1" y="-214" on="1"/>
        <pt x="-5" y="-214" on="1"/>
        <pt x="-13" y="-214" on="0"/>
        <pt x="-13" y="-200" on="1"/>
        <pt x="-13" y="-186" on="0"/>
        <pt x="-5" y="-186" on="1"/>
        <pt x="1" y="-186" on="1"/>
        <pt x="48" y="-186" on="0"/>
        <pt x="131" y="-157" on="0"/>
        <pt x="208" y="-106" on="0"/>
        <pt x="281" y="-39" on="0"/>
        <pt x="317" y="-1" on="1"/>
        <pt x="258" y="48" on="0"/>
        <pt x="169" y="159" on="0"/>
        <pt x="110" y="276" on="0"/>
        <pt x="80" y="397" on="0"/>
        <pt x="80" y="456" on="1"/>
        <pt x="80" y="532" on="0"/>
        <pt x="122" y="658" on="0"/>
        <pt x="198" y="749" on="0"/>
        <pt x="306" y="800" on="0"/>
        <pt x="371" y="800" on="1"/>
        <pt x="436" y="800" on="0"/>
        <pt x="532" y="766" on="0"/>
        <pt x="595" y="706" on="0"/>
        <pt x="626" y="623" on="0"/>
        <pt x="626" y="575" on="1"/>
        <pt x="626" y="527" on="0"/>
        <pt x="588" y="443" on="0"/>
        <pt x="522" y="381" on="0"/>
        <pt x="430" y="346" on="0"/>
        <pt x="376" y="346" on="1"/>
        <pt x="341" y="346" on="0"/>
        <pt x="306" y="375" on="0"/>
        <pt x="299" y="389" on="1"/>
        <pt x="297" y="397" on="0"/>
        <pt x="309" y="402" on="1"/>
        <pt x="321" y="407" on="0"/>
        <pt x="325" y="400" on="1"/>
        <pt x="330" y="391" on="0"/>
        <pt x="353" y="378" on="0"/>
        <pt x="376" y="378" on="1"/>
        <pt x="409" y="378" on="0"/>
        <pt x="443" y="457" on="0"/>
        <pt x="455" y="523" on="1"/>
        <pt x="462" y="561" on="0"/>
        <pt x="508" y="596" on="0"/>
        <pt x="534" y="596" on="1"/>
        <pt x="552" y="596" on="0"/>
        <pt x="580" y="586" on="0"/>
        <pt x="593" y="575" on="1"/>
        <pt x="593" y="617" on="0"/>
        <pt x="567" y="688" on="0"/>
        <pt x="513" y="739" on="0"/>
        <pt x="429" y="768" on="0"/>
        <pt x="371" y="768" on="1"/>
        <pt x="312" y="768" on="0"/>
        <pt x="216" y="722" on="0"/>
        <pt x="149" y="639" on="0"/>
        <pt x="112" y="525" on="0"/>
        <pt x="112" y="456" on="1"/>
        <pt x="112" y="401" on="0"/>
        <pt x="140" y="287" on="0"/>
        <pt x="197" y="175" on="0"/>
        <pt x="281" y="69" on="0"/>
        <pt x="338" y="22" on="1"/>
        <pt x="389" y="76" on="0"/>
        <pt x="497" y="187" on="0"/>
        <pt x="621" y="277" on="0"/>
        <pt x="768" y="334" on="0"/>
        <pt x="858" y="334" on="1"/>
        <pt x="884" y="334" on="0"/>
        <pt x="920" y="332" on="0"/>
        <pt x="951" y="327" on="0"/>
        <pt x="981" y="320" on="0"/>
        <pt x="1000" y="315" on="1"/>
        <pt x="1006" y="314" on="1"/>
        <pt x="1014" y="314" on="0"/>
        <pt x="1014" y="300" on="1"/>
        <pt x="1014" y="286" on="0"/>
        <pt x="1006" y="286" on="1"/>
        <pt x="1000" y="286" on="1"/>
        <pt x="954" y="286" on="0"/>
        <pt x="873" y="253" on="0"/>
        <pt x="795" y="198" on="0"/>
        <pt x="718" y="125" on="0"/>
        <pt x="634" y="46" on="0"/>
        <pt x="539" y="-36" on="0"/>
        <pt x="484" y="-73" on="1"/>
        <pt x="586" y="-125" on="0"/>
        <pt x="842" y="-186" on="0"/>
        <pt x="1000" y="-186" on="1"/>
        <pt x="1006" y="-186" on="1"/>
        <pt x="1014" y="-186" on="0"/>
      </contour>
    </TTGlyph>
    <TTGlyph name="asciicircum" xMin="60" yMin="-22" xMax="1569" yMax="705">
      <contour>
        <pt x="1569" y="138" on="1"/>
        <pt x="1569" y="96" on="0"/>
        <pt x="1548" y="35" on="0"/>
        <pt x="1514" y="-4" on="0"/>
        <pt x="1471" y="-22" on="0"/>
        <pt x="1450" y="-22" on="1"/>
        <pt x="1429" y="-22" on="0"/>
        <pt x="1391" y="-5" on="0"/>
        <pt x="1364" y="23" on="0"/>
        <pt x="1348" y="60" on="0"/>
        <pt x="1348" y="81" on="1"/>
        <pt x="1348" y="102" on="0"/>
        <pt x="1364" y="139" on="0"/>
        <pt x="1391" y="167" on="0"/>
        <pt x="1429" y="183" on="0"/>
        <pt x="1450" y="183" on="1"/>
        <pt x="1476" y="183" on="0"/>
        <pt x="1495" y="173" on="1"/>
        <pt x="1495" y="231" on="0"/>
        <pt x="1447" y="325" on="0"/>
        <pt x="1370" y="389" on="0"/>
        <pt x="1272" y="424" on="0"/>
        <pt x="1223" y="424" on="1"/>
        <pt x="1195" y="424" on="0"/>
        <pt x="1132" y="413" on="0"/>
        <pt x="1070" y="393" on="0"/>
        <pt x="1012" y="366" on="0"/>
        <pt x="990" y="350" on="1"/>
        <pt x="1068" y="327" on="0"/>
        <pt x="1161" y="224" on="0"/>
        <pt x="1161" y="143" on="1"/>
        <pt x="1161" y="110" on="0"/>
        <pt x="1136" y="50" on="0"/>
        <pt x="1091" y="5" on="0"/>
        <pt x="1031" y="-22" on="0"/>
        <pt x="996" y="-22" on="1"/>
        <pt x="964" y="-22" on="0"/>
        <pt x="908" y="3" on="0"/>
        <pt x="866" y="45" on="0"/>
        <pt x="841" y="101" on="0"/>
        <pt x="841" y="133" on="1"/>
        <pt x="841" y="168" on="0"/>
        <pt x="855" y="199" on="1"/>
        <pt x="826" y="141" on="0"/>
        <pt x="735" y="58" on="0"/>
        <pt x="626" y="4" on="0"/>
        <pt x="509" y="-22" on="0"/>
        <pt x="455" y="-22" on="1"/>
        <pt x="371" y="-22" on="0"/>
        <pt x="226" y="33" on="0"/>
        <pt x="120" y="126" on="0"/>
        <pt x="60" y="249" on="0"/>
        <pt x="60" y="318" on="1"/>
        <pt x="60" y="356" on="0"/>
        <pt x="81" y="420" on="0"/>
        <pt x="121" y="467" on="0"/>
        <pt x="177" y="493" on="0"/>
        <pt x="212" y="493" on="1"/>
        <pt x="249" y="493" on="0"/>
        <pt x="303" y="445" on="0"/>
        <pt x="303" y="410" on="1"/>
        <pt x="303" y="381" on="0"/>
        <pt x="266" y="340" on="0"/>
        <pt x="232" y="340" on="1"/>
        <pt x="236" y="353" on="0"/>
        <pt x="236" y="368" on="1"/>
        <pt x="236" y="393" on="0"/>
        <pt x="204" y="422" on="0"/>
        <pt x="181" y="422" on="1"/>
        <pt x="145" y="422" on="0"/>
        <pt x="94" y="366" on="0"/>
        <pt x="94" y="318" on="1"/>
        <pt x="94" y="292" on="0"/>
        <pt x="119" y="221" on="0"/>
        <pt x="170" y="157" on="0"/>
        <pt x="247" y="112" on="0"/>
        <pt x="300" y="112" on="1"/>
        <pt x="352" y="112" on="0"/>
        <pt x="425" y="165" on="0"/>
        <pt x="482" y="246" on="0"/>
        <pt x="531" y="339" on="0"/>
        <pt x="588" y="420" on="0"/>
        <pt x="661" y="473" on="0"/>
        <pt x="713" y="473" on="1"/>
        <pt x="718" y="473" on="0"/>
        <pt x="730" y="469" on="0"/>
        <pt x="738" y="467" on="1"/>
        <pt x="714" y="505" on="0"/>
        <pt x="714" y="550" on="1"/>
        <pt x="714" y="582" on="0"/>
        <pt x="739" y="638" on="0"/>
        <pt x="781" y="680" on="0"/>
        <pt x="837" y="705" on="0"/>
        <pt x="869" y="705" on="1"/>
        <pt x="901" y="705" on="0"/>
        <pt x="959" y="679" on="0"/>
        <pt x="1003" y="635" on="0"/>
        <pt x="1029" y="577" on="0"/>
        <pt x="1029" y="545" on="1"/>
        <pt x="1029" y="527" on="0"/>
        <pt x="1019" y="485" on="0"/>
        <pt x="1004" y="442" on="0"/>
        <pt x="985" y="403" on="0"/>
        <pt x="976" y="388" on="1"/>
        <pt x="998" y="403" on="0"/>
        <pt x="1065" y="428" on="0"/>
        <pt x="1135" y="447" on="0"/>
        <pt x="1201" y="457" on="0"/>
        <pt x="1223" y="457" on="1"/>
        <pt x="1291" y="457" on="0"/>
        <pt x="1416" y="406" on="0"/>
        <pt x="1512" y="319" on="0"/>
        <pt x="1569" y="203" on="0"/>
      </contour>
      <contour>
        <pt x="997" y="545" on="1"/>
        <pt x="997" y="572" on="0"/>
        <pt x="977" y="619" on="0"/>
        <pt x="942" y="653" on="0"/>
        <pt x="895" y="672" on="0"/>
        <pt x="869" y="672" on="1"/>
        <pt x="838" y="672" on="0"/>
        <pt x="792" y="651" on="0"/>
        <pt x="762" y="616" on="0"/>
        <pt x="747" y="572" on="0"/>
        <pt x="747" y="550" on="1"/>
        <pt x="747" y="530" on="0"/>
        <pt x="759" y="480" on="0"/>
        <pt x="769" y="459" on="1"/>
        <pt x="771" y="456" on="0"/>
        <pt x="771" y="452" on="1"/>
        <pt x="771" y="436" on="0"/>
        <pt x="755" y="436" on="1"/>
        <pt x="745" y="436" on="0"/>
        <pt x="722" y="440" on="0"/>
        <pt x="713" y="440" on="1"/>
        <pt x="668" y="440" on="0"/>
        <pt x="604" y="387" on="0"/>
        <pt x="552" y="306" on="0"/>
        <pt x="502" y="213" on="0"/>
        <pt x="440" y="132" on="0"/>
        <pt x="358" y="79" on="0"/>
        <pt x="300" y="79" on="1"/>
        <pt x="313" y="70" on="0"/>
        <pt x="366" y="55" on="0"/>
        <pt x="408" y="55" on="1"/>
        <pt x="450" y="55" on="0"/>
        <pt x="529" y="100" on="0"/>
        <pt x="609" y="169" on="0"/>
        <pt x="690" y="248" on="0"/>
        <pt x="778" y="317" on="0"/>
        <pt x="875" y="362" on="0"/>
        <pt x="930" y="362" on="1"/>
        <pt x="940" y="375" on="0"/>
        <pt x="963" y="422" on="0"/>
        <pt x="983" y="474" on="0"/>
        <pt x="997" y="526" on="0"/>
      </contour>
    </TTGlyph>
    <TTGlyph name="asterisk" xMin="-16" yMin="-216" xMax="1016" yMax="816">
      <contour>
        <pt x="154" y="177" on="1"/>
        <pt x="154" y="141" on="0"/>
        <pt x="121" y="100" on="0"/>
        <pt x="98" y="89" on="1"/>
        <pt x="95" y="87" on="0"/>
        <pt x="87" y="94" on="0"/>
        <pt x="85" y="99" on="1"/>
        <pt x="80" y="111" on="0"/>
        <pt x="87" y="115" on="1"/>
        <pt x="96" y="120" on="0"/>
        <pt x="116" y="134" on="0"/>
        <pt x="116" y="145" on="1"/>
        <pt x="116" y="164" on="0"/>
        <pt x="87" y="178" on="0"/>
        <pt x="58" y="186" on="1"/>
        <pt x="43" y="190" on="0"/>
        <pt x="29" y="209" on="0"/>
        <pt x="29" y="221" on="1"/>
        <pt x="29" y="231" on="0"/>
        <pt x="34" y="243" on="0"/>
        <pt x="41" y="252" on="0"/>
        <pt x="46" y="260" on="0"/>
        <pt x="46" y="265" on="1"/>
        <pt x="46" y="275" on="0"/>
        <pt x="30" y="286" on="0"/>
        <pt x="8" y="286" on="1"/>
        <pt x="0" y="286" on="0"/>
        <pt x="0" y="300" on="1"/>
        <pt x="0" y="314" on="0"/>
        <pt x="8" y="314" on="1"/>
        <pt x="30" y="314" on="0"/>
        <pt x="46" y="325" on="0"/>
        <pt x="46" y="335" on="1"/>
        <pt x="46" y="340" on="0"/>
        <pt x="41" y="348" on="0"/>
        <pt x="34" y="357" on="0"/>
        <pt x="29" y="369" on="0"/>
        <pt x="29" y="379" on="1"/>
        <pt x="29" y="391" on="0"/>
        <pt x="43" y="410" on="0"/>
        <pt x="58" y="414" on="1"/>
        <pt x="87" y="422" on="0"/>
        <pt x="116" y="436" on="0"/>
        <pt x="116" y="455" on="1"/>
        <pt x="116" y="466" on="0"/>
        <pt x="96" y="480" on="0"/>
        <pt x="87" y="485" on="1"/>
        <pt x="80" y="489" on="0"/>
        <pt x="85" y="501" on="1"/>
        <pt x="87" y="506" on="0"/>
        <pt x="95" y="513" on="0"/>
        <pt x="98" y="511" on="1"/>
        <pt x="121" y="500" on="0"/>
        <pt x="154" y="459" on="0"/>
        <pt x="154" y="423" on="1"/>
        <pt x="154" y="373" on="0"/>
        <pt x="105" y="302" on="0"/>
        <pt x="54" y="300" on="1"/>
        <pt x="79" y="299" on="0"/>
        <pt x="117" y="278" on="0"/>
        <pt x="142" y="245" on="0"/>
        <pt x="154" y="201" on="0"/>
      </contour>
      <contour>
        <pt x="711" y="702" on="1"/>
        <pt x="700" y="679" on="0"/>
        <pt x="659" y="646" on="0"/>
        <pt x="623" y="646" on="1"/>
        <pt x="573" y="646" on="0"/>
        <pt x="502" y="694" on="0"/>
        <pt x="500" y="745" on="1"/>
        <pt x="499" y="720" on="0"/>
        <pt x="478" y="683" on="0"/>
        <pt x="445" y="658" on="0"/>
        <pt x="401" y="646" on="0"/>
        <pt x="377" y="646" on="1"/>
        <pt x="341" y="646" on="0"/>
        <pt x="300" y="679" on="0"/>
        <pt x="289" y="702" on="1"/>
        <pt x="287" y="705" on="0"/>
        <pt x="294" y="712" on="0"/>
        <pt x="299" y="714" on="1"/>
        <pt x="311" y="721" on="0"/>
        <pt x="315" y="713" on="1"/>
        <pt x="320" y="704" on="0"/>
        <pt x="334" y="684" on="0"/>
        <pt x="345" y="684" on="1"/>
        <pt x="363" y="684" on="0"/>
        <pt x="378" y="713" on="0"/>
        <pt x="386" y="742" on="1"/>
        <pt x="390" y="757" on="0"/>
        <pt x="409" y="771" on="0"/>
        <pt x="420" y="771" on="1"/>
        <pt x="430" y="771" on="0"/>
        <pt x="443" y="765" on="0"/>
        <pt x="452" y="759" on="0"/>
        <pt x="460" y="753" on="0"/>
        <pt x="465" y="753" on="1"/>
        <pt x="475" y="753" on="0"/>
        <pt x="486" y="770" on="0"/>
        <pt x="486" y="792" on="1"/>
        <pt x="486" y="800" on="0"/>
        <pt x="500" y="800" on="1"/>
        <pt x="514" y="800" on="0"/>
        <pt x="514" y="792" on="1"/>
        <pt x="514" y="770" on="0"/>
        <pt x="525" y="753" on="0"/>
        <pt x="534" y="753" on="1"/>
        <pt x="539" y="753" on="0"/>
        <pt x="547" y="759" on="0"/>
        <pt x="556" y="765" on="0"/>
        <pt x="569" y="771" on="0"/>
        <pt x="579" y="771" on="1"/>
        <pt x="591" y="771" on="0"/>
        <pt x="610" y="757" on="0"/>
        <pt x="614" y="742" on="1"/>
        <pt x="622" y="713" on="0"/>
        <pt x="636" y="684" on="0"/>
        <pt x="655" y="684" on="1"/>
        <pt x="666" y="684" on="0"/>
        <pt x="680" y="704" on="0"/>
        <pt x="685" y="713" on="1"/>
        <pt x="689" y="721" on="0"/>
        <pt x="701" y="714" on="1"/>
        <pt x="706" y="712" on="0"/>
        <pt x="713" y="705" on="0"/>
      </contour>
      <contour>
        <pt x="711" y="-102" on="1"/>
        <pt x="713" y="-105" on="0"/>
        <pt x="706" y="-112" on="0"/>
        <pt x="701" y="-114" on="1"/>
        <pt x="689" y="-121" on="0"/>
        <pt x="685" y="-113" on="1"/>
        <pt x="680" y="-104" on="0"/>
        <pt x="666" y="-84" on="0"/>
        <pt x="655" y="-84" on="1"/>
        <pt x="636" y="-84" on="0"/>
        <pt x="622" y="-113" on="0"/>
        <pt x="614" y="-142" on="1"/>
        <pt x="610" y="-157" on="0"/>
        <pt x="591" y="-171" on="0"/>
        <pt x="579" y="-171" on="1"/>
        <pt x="569" y="-171" on="0"/>
        <pt x="556" y="-165" on="0"/>
        <pt x="547" y="-159" on="0"/>
        <pt x="539" y="-153" on="0"/>
        <pt x="534" y="-153" on="1"/>
        <pt x="525" y="-153" on="0"/>
        <pt x="514" y="-170" on="0"/>
        <pt x="514" y="-192" on="1"/>
        <pt x="514" y="-200" on="0"/>
        <pt x="500" y="-200" on="1"/>
        <pt x="486" y="-200" on="0"/>
        <pt x="486" y="-192" on="1"/>
        <pt x="486" y="-170" on="0"/>
        <pt x="475" y="-153" on="0"/>
        <pt x="465" y="-153" on="1"/>
        <pt x="460" y="-153" on="0"/>
        <pt x="452" y="-159" on="0"/>
        <pt x="443" y="-165" on="0"/>
        <pt x="430" y="-171" on="0"/>
        <pt x="420" y="-171" on="1"/>
        <pt x="409" y="-171" on="0"/>
        <pt x="390" y="-157" on="0"/>
        <pt x="386" y="-142" on="1"/>
        <pt x="378" y="-113" on="0"/>
        <pt x="363" y="-84" on="0"/>
        <pt x="345" y="-84" on="1"/>
        <pt x="334" y="-84" on="0"/>
        <pt x="320" y="-104" on="0"/>
        <pt x="315" y="-113" on="1"/>
        <pt x="311" y="-121" on="0"/>
        <pt x="299" y="-114" on="1"/>
        <pt x="294" y="-112" on="0"/>
        <pt x="287" y="-105" on="0"/>
        <pt x="289" y="-102" on="1"/>
        <pt x="300" y="-79" on="0"/>
        <pt x="341" y="-46" on="0"/>
        <pt x="377" y="-46" on="1"/>
        <pt x="402" y="-46" on="0"/>
        <pt x="447" y="-59" on="0"/>
        <pt x="480" y="-85" on="0"/>
        <pt x="500" y="-124" on="0"/>
        <pt x="500" y="-151" on="1"/>
        <pt x="500" y="-124" on="0"/>
        <pt x="520" y="-85" on="0"/>
        <pt x="553" y="-59" on="0"/>
        <pt x="598" y="-46" on="0"/>
        <pt x="623" y="-46" on="1"/>
        <pt x="659" y="-46" on="0"/>
        <pt x="700" y="-79" on="0"/>
      </contour>
      <contour>
        <pt x="1000" y="300" on="1"/>
        <pt x="1000" y="286" on="0"/>
        <pt x="992" y="286" on="1"/>
        <pt x="970" y="286" on="0"/>
        <pt x="953" y="275" on="0"/>
        <pt x="953" y="265" on="1"/>
        <pt x="953" y="260" on="0"/>
        <pt x="959" y="252" on="0"/>
        <pt x="965" y="243" on="0"/>
        <pt x="971" y="231" on="0"/>
        <pt x="971" y="221" on="1"/>
        <pt x="971" y="209" on="0"/>
        <pt x="956" y="190" on="0"/>
        <pt x="942" y="186" on="1"/>
        <pt x="913" y="178" on="0"/>
        <pt x="884" y="164" on="0"/>
        <pt x="884" y="145" on="1"/>
        <pt x="884" y="134" on="0"/>
        <pt x="904" y="120" on="0"/>
        <pt x="913" y="115" on="1"/>
        <pt x="919" y="112" on="0"/>
        <pt x="914" y="99" on="1"/>
        <pt x="912" y="94" on="0"/>
        <pt x="904" y="87" on="0"/>
        <pt x="901" y="89" on="1"/>
        <pt x="878" y="100" on="0"/>
        <pt x="846" y="141" on="0"/>
        <pt x="846" y="177" on="1"/>
        <pt x="846" y="201" on="0"/>
        <pt x="858" y="245" on="0"/>
        <pt x="883" y="278" on="0"/>
        <pt x="920" y="299" on="0"/>
        <pt x="945" y="300" on="1"/>
        <pt x="894" y="302" on="0"/>
        <pt x="846" y="373" on="0"/>
        <pt x="846" y="423" on="1"/>
        <pt x="846" y="459" on="0"/>
        <pt x="878" y="500" on="0"/>
        <pt x="901" y="511" on="1"/>
        <pt x="904" y="513" on="0"/>
        <pt x="912" y="506" on="0"/>
        <pt x="914" y="501" on="1"/>
        <pt x="919" y="488" on="0"/>
        <pt x="913" y="485" on="1"/>
        <pt x="904" y="480" on="0"/>
        <pt x="884" y="466" on="0"/>
        <pt x="884" y="455" on="1"/>
        <pt x="884" y="436" on="0"/>
        <pt x="913" y="422" on="0"/>
        <pt x="942" y="414" on="1"/>
        <pt x="956" y="410" on="0"/>
        <pt x="971" y="391" on="0"/>
        <pt x="971" y="379" on="1"/>
        <pt x="971" y="369" on="0"/>
        <pt x="965" y="357" on="0"/>
        <pt x="959" y="348" on="0"/>
        <pt x="953" y="340" on="0"/>
        <pt x="953" y="335" on="1"/>
        <pt x="953" y="325" on="0"/>
        <pt x="970" y="314" on="0"/>
        <pt x="992" y="314" on="1"/>
        <pt x="1000" y="314" on="0"/>
      </contour>
      <contour>
        <pt x="377" y="300" on="1"/>
        <pt x="377" y="286" on="0"/>
        <pt x="369" y="286" on="1"/>
        <pt x="344" y="286" on="0"/>
        <pt x="308" y="277" on="0"/>
        <pt x="276" y="266" on="0"/>
        <pt x="247" y="257" on="0"/>
        <pt x="229" y="257" on="1"/>
        <pt x="213" y="257" on="0"/>
        <pt x="204" y="271" on="1"/>
        <pt x="195" y="283" on="0"/>
        <pt x="176" y="286" on="1"/>
        <pt x="168" y="286" on="0"/>
        <pt x="168" y="300" on="1"/>
        <pt x="168" y="314" on="0"/>
        <pt x="176" y="314" on="1"/>
        <pt x="195" y="317" on="0"/>
        <pt x="204" y="329" on="1"/>
        <pt x="213" y="343" on="0"/>
        <pt x="229" y="343" on="1"/>
        <pt x="247" y="343" on="0"/>
        <pt x="276" y="334" on="0"/>
        <pt x="308" y="323" on="0"/>
        <pt x="344" y="314" on="0"/>
        <pt x="369" y="314" on="1"/>
        <pt x="377" y="314" on="0"/>
      </contour>
      <contour>
        <pt x="831" y="300" on="1"/>
        <pt x="831" y="286" on="0"/>
        <pt x="823" y="286" on="1"/>
        <pt x="803" y="283" on="0"/>
        <pt x="796" y="271" on="1"/>
        <pt x="791" y="265" on="0"/>
        <pt x="779" y="257" on="0"/>
        <pt x="771" y="257" on="1"/>
        <pt x="753" y="257" on="0"/>
        <pt x="724" y="266" on="0"/>
        <pt x="692" y="277" on="0"/>
        <pt x="656" y="286" on="0"/>
        <pt x="631" y="286" on="1"/>
        <pt x="623" y="286" on="0"/>
        <pt x="623" y="300" on="1"/>
        <pt x="623" y="314" on="0"/>
        <pt x="631" y="314" on="1"/>
        <pt x="656" y="314" on="0"/>
        <pt x="692" y="323" on="0"/>
        <pt x="724" y="334" on="0"/>
        <pt x="753" y="343" on="0"/>
        <pt x="771" y="343" on="1"/>
        <pt x="779" y="343" on="0"/>
        <pt x="791" y="335" on="0"/>
        <pt x="796" y="329" on="1"/>
        <pt x="803" y="317" on="0"/>
        <pt x="823" y="314" on="1"/>
        <pt x="831" y="314" on="0"/>
      </contour>
      <contour>
        <pt x="542" y="571" on="1"/>
        <pt x="542" y="553" on="0"/>
        <pt x="533" y="524" on="0"/>
        <pt x="523" y="492" on="0"/>
        <pt x="514" y="456" on="0"/>
        <pt x="514" y="431" on="1"/>
        <pt x="514" y="423" on="0"/>
        <pt x="500" y="423" on="1"/>
        <pt x="486" y="423" on="0"/>
        <pt x="486" y="431" on="1"/>
        <pt x="486" y="456" on="0"/>
        <pt x="477" y="492" on="0"/>
        <pt x="466" y="524" on="0"/>
        <pt x="457" y="553" on="0"/>
        <pt x="457" y="571" on="1"/>
        <pt x="457" y="579" on="0"/>
        <pt x="465" y="591" on="0"/>
        <pt x="471" y="596" on="1"/>
        <pt x="483" y="604" on="0"/>
        <pt x="486" y="624" on="1"/>
        <pt x="486" y="632" on="0"/>
        <pt x="500" y="632" on="1"/>
        <pt x="514" y="632" on="0"/>
        <pt x="514" y="624" on="1"/>
        <pt x="517" y="603" on="0"/>
        <pt x="528" y="596" on="1"/>
        <pt x="542" y="585" on="0"/>
      </contour>
      <contour>
        <pt x="542" y="29" on="1"/>
        <pt x="542" y="14" on="0"/>
        <pt x="528" y="4" on="1"/>
        <pt x="517" y="-3" on="0"/>
        <pt x="514" y="-24" on="1"/>
        <pt x="514" y="-32" on="0"/>
        <pt x="500" y="-32" on="1"/>
        <pt x="486" y="-32" on="0"/>
        <pt x="486" y="-24" on="1"/>
        <pt x="483" y="-4" on="0"/>
        <pt x="471" y="4" on="1"/>
        <pt x="457" y="14" on="0"/>
        <pt x="457" y="29" on="1"/>
        <pt x="457" y="47" on="0"/>
        <pt x="466" y="76" on="0"/>
        <pt x="477" y="108" on="0"/>
        <pt x="486" y="144" on="0"/>
        <pt x="486" y="169" on="1"/>
        <pt x="486" y="177" on="0"/>
        <pt x="500" y="177" on="1"/>
        <pt x="514" y="177" on="0"/>
        <pt x="514" y="169" on="1"/>
        <pt x="514" y="144" on="0"/>
        <pt x="523" y="108" on="0"/>
        <pt x="533" y="76" on="0"/>
        <pt x="542" y="47" on="0"/>
      </contour>
      <contour>
        <pt x="550" y="270" on="1"/>
        <pt x="550" y="267" on="0"/>
        <pt x="548" y="261" on="0"/>
        <pt x="543" y="256" on="1"/>
        <pt x="537" y="250" on="0"/>
        <pt x="530" y="250" on="1"/>
        <pt x="524" y="250" on="0"/>
        <pt x="511" y="259" on="0"/>
        <pt x="500" y="259" on="1"/>
        <pt x="489" y="259" on="0"/>
        <pt x="476" y="250" on="0"/>
        <pt x="470" y="250" on="1"/>
        <pt x="463" y="250" on="0"/>
        <pt x="456" y="256" on="1"/>
        <pt x="450" y="263" on="0"/>
        <pt x="450" y="270" on="1"/>
        <pt x="450" y="276" on="0"/>
        <pt x="459" y="289" on="0"/>
        <pt x="459" y="300" on="1"/>
        <pt x="459" y="311" on="0"/>
        <pt x="450" y="324" on="0"/>
        <pt x="450" y="330" on="1"/>
        <pt x="450" y="337" on="0"/>
        <pt x="456" y="344" on="1"/>
        <pt x="463" y="350" on="0"/>
        <pt x="470" y="350" on="1"/>
        <pt x="476" y="350" on="0"/>
        <pt x="489" y="341" on="0"/>
        <pt x="500" y="341" on="1"/>
        <pt x="511" y="341" on="0"/>
        <pt x="524" y="350" on="0"/>
        <pt x="530" y="350" on="1"/>
        <pt x="537" y="350" on="0"/>
        <pt x="543" y="344" on="1"/>
        <pt x="548" y="339" on="0"/>
        <pt x="550" y="333" on="0"/>
        <pt x="550" y="330" on="1"/>
        <pt x="550" y="324" on="0"/>
        <pt x="541" y="311" on="0"/>
        <pt x="541" y="300" on="1"/>
        <pt x="541" y="289" on="0"/>
        <pt x="550" y="276" on="0"/>
      </contour>
      <contour>
        <pt x="937" y="721" on="1"/>
        <pt x="937" y="710" on="0"/>
        <pt x="932" y="705" on="0"/>
        <pt x="921" y="705" on="1"/>
        <pt x="910" y="705" on="0"/>
        <pt x="904" y="710" on="0"/>
        <pt x="904" y="721" on="1"/>
        <pt x="904" y="732" on="0"/>
        <pt x="910" y="737" on="0"/>
        <pt x="921" y="737" on="1"/>
        <pt x="932" y="737" on="0"/>
        <pt x="937" y="732" on="0"/>
      </contour>
      <contour>
        <pt x="699" y="483" on="1"/>
        <pt x="699" y="472" on="0"/>
        <pt x="694" y="467" on="0"/>
        <pt x="683" y="467" on="1"/>
        <pt x="672" y="467" on="0"/>
        <pt x="666" y="472" on="0"/>
        <pt x="666" y="483" on="1"/>
        <pt x="666" y="494" on="0"/>
        <pt x="672" y="499" on="0"/>
        <pt x="683" y="499" on="1"/>
        <pt x="694" y="499" on="0"/>
        <pt x="699" y="494" on="0"/>
      </contour>
      <contour>
        <pt x="937" y="-121" on="1"/>
        <pt x="937" y="-132" on="0"/>
        <pt x="932" y="-137" on="0"/>
        <pt x="921" y="-137" on="1"/>
        <pt x="910" y="-137" on="0"/>
        <pt x="904" y="-132" on="0"/>
        <pt x="904" y="-121" on="1"/>
        <pt x="904" y="-110" on="0"/>
        <pt x="910" y="-105" on="0"/>
        <pt x="921" y="-105" on="1"/>
        <pt x="932" y="-105" on="0"/>
        <pt x="937" y="-110" on="0"/>
      </contour>
      <contour>
        <pt x="175" y="641" on="1"/>
        <pt x="175" y="630" on="0"/>
        <pt x="169" y="625" on="0"/>
        <pt x="158" y="625" on="1"/>
        <pt x="147" y="625" on="0"/>
        <pt x="142" y="630" on="0"/>
        <pt x="142" y="641" on="1"/>
        <pt x="142" y="652" on="0"/>
        <pt x="147" y="657" on="0"/>
        <pt x="158" y="657" on="1"/>
        <pt x="169" y="657" on="0"/>
        <pt x="175" y="652" on="0"/>
      </contour>
      <contour>
        <pt x="413" y="403" on="1"/>
        <pt x="413" y="392" on="0"/>
        <pt x="407" y="387" on="0"/>
        <pt x="396" y="387" on="1"/>
        <pt x="385" y="387" on="0"/>
        <pt x="380" y="392" on="0"/>
        <pt x="380" y="403" on="1"/>
        <pt x="380" y="414" on="0"/>
        <pt x="385" y="419" on="0"/>
        <pt x="396" y="419" on="1"/>
        <pt x="407" y="419" on="0"/>
        <pt x="413" y="414" on="0"/>
      </contour>
      <contour>
        <pt x="699" y="117" on="1"/>
        <pt x="699" y="106" on="0"/>
        <pt x="694" y="101" on="0"/>
        <pt x="683" y="101" on="1"/>
        <pt x="672" y="101" on="0"/>
        <pt x="666" y="106" on="0"/>
        <pt x="666" y="117" on="1"/>
        <pt x="666" y="128" on="0"/>
        <pt x="672" y="133" on="0"/>
        <pt x="683" y="133" on="1"/>
        <pt x="694" y="133" on="0"/>
        <pt x="699" y="128" on="0"/>
      </contour>
      <contour>
        <pt x="413" y="197" on="1"/>
        <pt x="413" y="186" on="0"/>
        <pt x="407" y="181" on="0"/>
        <pt x="396" y="181" on="1"/>
        <pt x="385" y="181" on="0"/>
        <pt x="380" y="186" on="0"/>
        <pt x="380" y="197" on="1"/>
        <pt x="380" y="208" on="0"/>
        <pt x="385" y="213" on="0"/>
        <pt x="396" y="213" on="1"/>
        <pt x="407" y="213" on="0"/>
        <pt x="413" y="208" on="0"/>
      </contour>
      <contour>
        <pt x="175" y="-41" on="1"/>
        <pt x="175" y="-52" on="0"/>
        <pt x="169" y="-57" on="0"/>
        <pt x="158" y="-57" on="1"/>
        <pt x="147" y="-57" on="0"/>
        <pt x="142" y="-52" on="0"/>
        <pt x="142" y="-41" on="1"/>
        <pt x="142" y="-30" on="0"/>
        <pt x="147" y="-25" on="0"/>
        <pt x="158" y="-25" on="1"/>
        <pt x="169" y="-25" on="0"/>
        <pt x="175" y="-30" on="0"/>
      </contour>
      <contour>
        <pt x="619" y="197" on="1"/>
        <pt x="619" y="186" on="0"/>
        <pt x="614" y="181" on="0"/>
        <pt x="603" y="181" on="1"/>
        <pt x="592" y="181" on="0"/>
        <pt x="587" y="186" on="0"/>
        <pt x="587" y="197" on="1"/>
        <pt x="587" y="208" on="0"/>
        <pt x="592" y="213" on="0"/>
        <pt x="603" y="213" on="1"/>
        <pt x="614" y="213" on="0"/>
        <pt x="619" y="208" on="0"/>
      </contour>
      <contour>
        <pt x="16" y="-200" on="1"/>
        <pt x="16" y="-211" on="0"/>
        <pt x="11" y="-216" on="0"/>
        <pt x="0" y="-216" on="1"/>
        <pt x="-11" y="-216" on="0"/>
        <pt x="-16" y="-211" on="0"/>
        <pt x="-16" y="-200" on="1"/>
        <pt x="-16" y="-189" on="0"/>
        <pt x="-11" y="-184" on="0"/>
        <pt x="0" y="-184" on="1"/>
        <pt x="11" y="-184" on="0"/>
        <pt x="16" y="-189" on="0"/>
      </contour>
      <contour>
        <pt x="857" y="-41" on="1"/>
        <pt x="857" y="-52" on="0"/>
        <pt x="852" y="-57" on="0"/>
        <pt x="841" y="-57" on="1"/>
        <pt x="830" y="-57" on="0"/>
        <pt x="825" y="-52" on="0"/>
        <pt x="825" y="-41" on="1"/>
        <pt x="825" y="-30" on="0"/>
        <pt x="830" y="-25" on="0"/>
        <pt x="841" y="-25" on="1"/>
        <pt x="852" y="-25" on="0"/>
        <pt x="857" y="-30" on="0"/>
      </contour>
      <contour>
        <pt x="1016" y="800" on="1"/>
        <pt x="1016" y="789" on="0"/>
        <pt x="1011" y="784" on="0"/>
        <pt x="1000" y="784" on="1"/>
        <pt x="989" y="784" on="0"/>
        <pt x="984" y="789" on="0"/>
        <pt x="984" y="800" on="1"/>
        <pt x="984" y="811" on="0"/>
        <pt x="989" y="816" on="0"/>
        <pt x="1000" y="816" on="1"/>
        <pt x="1011" y="816" on="0"/>
        <pt x="1016" y="811" on="0"/>
      </contour>
      <contour>
        <pt x="16" y="800" on="1"/>
        <pt x="16" y="789" on="0"/>
        <pt x="11" y="784" on="0"/>
        <pt x="0" y="784" on="1"/>
        <pt x="-11" y="784" on="0"/>
        <pt x="-16" y="789" on="0"/>
        <pt x="-16" y="800" on="1"/>
        <pt x="-16" y="811" on="0"/>
        <pt x="-11" y="816" on="0"/>
        <pt x="0" y="816" on="1"/>
        <pt x="11" y="816" on="0"/>
        <pt x="16" y="811" on="0"/>
      </contour>
      <contour>
        <pt x="1016" y="-200" on="1"/>
        <pt x="1016" y="-211" on="0"/>
        <pt x="1011" y="-216" on="0"/>
        <pt x="1000" y="-216" on="1"/>
        <pt x="989" y="-216" on="0"/>
        <pt x="984" y="-211" on="0"/>
        <pt x="984" y="-200" on="1"/>
        <pt x="984" y="-189" on="0"/>
        <pt x="989" y="-184" on="0"/>
        <pt x="1000" y="-184" on="1"/>
        <pt x="1011" y="-184" on="0"/>
        <pt x="1016" y="-189" on="0"/>
      </contour>
      <contour>
        <pt x="95" y="721" on="1"/>
        <pt x="95" y="710" on="0"/>
        <pt x="90" y="705" on="0"/>
        <pt x="79" y="705" on="1"/>
        <pt x="68" y="705" on="0"/>
        <pt x="63" y="710" on="0"/>
        <pt x="63" y="721" on="1"/>
        <pt x="63" y="732" on="0"/>
        <pt x="68" y="737" on="0"/>
        <pt x="79" y="737" on="1"/>
        <pt x="90" y="737" on="0"/>
        <pt x="95" y="732" on="0"/>
      </contour>
      <contour>
        <pt x="333" y="483" on="1"/>
        <pt x="333" y="472" on="0"/>
        <pt x="328" y="467" on="0"/>
        <pt x="317" y="467" on="1"/>
        <pt x="306" y="467" on="0"/>
        <pt x="301" y="472" on="0"/>
        <pt x="301" y="483" on="1"/>
        <pt x="301" y="494" on="0"/>
        <pt x="306" y="499" on="0"/>
        <pt x="317" y="499" on="1"/>
        <pt x="328" y="499" on="0"/>
        <pt x="333" y="494" on="0"/>
      </contour>
      <contour>
        <pt x="857" y="641" on="1"/>
        <pt x="857" y="630" on="0"/>
        <pt x="852" y="625" on="0"/>
        <pt x="841" y="625" on="1"/>
        <pt x="830" y="625" on="0"/>
        <pt x="825" y="630" on="0"/>
        <pt x="825" y="641" on="1"/>
        <pt x="825" y="652" on="0"/>
        <pt x="830" y="657" on="0"/>
        <pt x="841" y="657" on="1"/>
        <pt x="852" y="657" on="0"/>
        <pt x="857" y="652" on="0"/>
      </contour>
      <contour>
        <pt x="619" y="403" on="1"/>
        <pt x="619" y="392" on="0"/>
        <pt x="614" y="387" on="0"/>
        <pt x="603" y="387" on="1"/>
        <pt x="592" y="387" on="0"/>
        <pt x="587" y="392" on="0"/>
        <pt x="587" y="403" on="1"/>
        <pt x="587" y="414" on="0"/>
        <pt x="592" y="419" on="0"/>
        <pt x="603" y="419" on="1"/>
        <pt x="614" y="419" on="0"/>
        <pt x="619" y="414" on="0"/>
      </contour>
      <contour>
        <pt x="333" y="117" on="1"/>
        <pt x="333" y="106" on="0"/>
        <pt x="328" y="101" on="0"/>
        <pt x="317" y="101" on="1"/>
        <pt x="306" y="101" on="0"/>
        <pt x="301" y="106" on="0"/>
        <pt x="301" y="117" on="1"/>
        <pt x="301" y="128" on="0"/>
        <pt x="306" y="133" on="0"/>
        <pt x="317" y="133" on="1"/>
        <pt x="328" y="133" on="0"/>
        <pt x="333" y="128" on="0"/>
      </contour>
      <contour>
        <pt x="95" y="-121" on="1"/>
        <pt x="95" y="-132" on="0"/>
        <pt x="90" y="-137" on="0"/>
        <pt x="79" y="-137" on="1"/>
        <pt x="68" y="-137" on="0"/>
        <pt x="63" y="-132" on="0"/>
        <pt x="63" y="-121" on="1"/>
        <pt x="63" y="-110" on="0"/>
        <pt x="68" y="-105" on="0"/>
        <pt x="79" y="-105" on="1"/>
        <pt x="90" y="-105" on="0"/>
        <pt x="95" y="-110" on="0"/>
      </contour>
      <contour>
        <pt x="778" y="38" on="1"/>
        <pt x="778" y="27" on="0"/>
        <pt x="773" y="22" on="0"/>
        <pt x="762" y="22" on="1"/>
        <pt x="751" y="22" on="0"/>
        <pt x="746" y="27" on="0"/>
        <pt x="746" y="38" on="1"/>
        <pt x="746" y="49" on="0"/>
        <pt x="751" y="54" on="0"/>
        <pt x="762" y="54" on="1"/>
        <pt x="773" y="54" on="0"/>
        <pt x="778" y="49" on="0"/>
      </contour>
      <contour>
        <pt x="778" y="562" on="1"/>
        <pt x="778" y="551" on="0"/>
        <pt x="773" y="546" on="0"/>
        <pt x="762" y="546" on="1"/>
        <pt x="751" y="546" on="0"/>
        <pt x="746" y="551" on="0"/>
        <pt x="746" y="562" on="1"/>
        <pt x="746" y="573" on="0"/>
        <pt x="751" y="578" on="0"/>
        <pt x="762" y="578" on="1"/>
        <pt x="773" y="578" on="0"/>
        <pt x="778" y="573" on="0"/>
      </contour>
      <contour>
        <pt x="254" y="562" on="1"/>
        <pt x="254" y="551" on="0"/>
        <pt x="249" y="546" on="0"/>
        <pt x="238" y="546" on="1"/>
        <pt x="227" y="546" on="0"/>
        <pt x="222" y="551" on="0"/>
        <pt x="222" y="562" on="1"/>
        <pt x="222" y="573" on="0"/>
        <pt x="227" y="578" on="0"/>
        <pt x="238" y="578" on="1"/>
        <pt x="249" y="578" on="0"/>
        <pt x="254" y="573" on="0"/>
      </contour>
      <contour>
        <pt x="254" y="38" on="1"/>
        <pt x="254" y="27" on="0"/>
        <pt x="249" y="22" on="0"/>
        <pt x="238" y="22" on="1"/>
        <pt x="227" y="22" on="0"/>
        <pt x="222" y="27" on="0"/>
        <pt x="222" y="38" on="1"/>
        <pt x="222" y="49" on="0"/>
        <pt x="227" y="54" on="0"/>
        <pt x="238" y="54" on="1"/>
        <pt x="249" y="54" on="0"/>
        <pt x="254" y="49" on="0"/>
      </contour>
    </TTGlyph>
    <TTGlyph name="at" xMin="33" yMin="-77" xMax="1341" yMax="714">
      <contour>
        <pt x="1341" y="271" on="1"/>
        <pt x="1341" y="193" on="0"/>
        <pt x="1242" y="126" on="0"/>
        <pt x="1151" y="126" on="1"/>
        <pt x="1119" y="126" on="0"/>
        <pt x="1099" y="130" on="1"/>
        <pt x="1088" y="34" on="0"/>
        <pt x="966" y="-77" on="0"/>
        <pt x="857" y="-77" on="1"/>
        <pt x="809" y="-77" on="0"/>
        <pt x="733" y="-49" on="0"/>
        <pt x="680" y="-4" on="0"/>
        <pt x="651" y="53" on="0"/>
        <pt x="651" y="82" on="1"/>
        <pt x="651" y="152" on="0"/>
        <pt x="744" y="224" on="0"/>
        <pt x="827" y="224" on="1"/>
        <pt x="869" y="224" on="0"/>
        <pt x="932" y="215" on="0"/>
        <pt x="982" y="201" on="0"/>
        <pt x="1022" y="187" on="0"/>
        <pt x="1040" y="181" on="1"/>
        <pt x="1035" y="223" on="0"/>
        <pt x="996" y="295" on="0"/>
        <pt x="927" y="348" on="0"/>
        <pt x="827" y="379" on="0"/>
        <pt x="761" y="379" on="1"/>
        <pt x="685" y="379" on="0"/>
        <pt x="566" y="341" on="0"/>
        <pt x="485" y="284" on="0"/>
        <pt x="443" y="217" on="0"/>
        <pt x="443" y="189" on="1"/>
        <pt x="443" y="159" on="0"/>
        <pt x="473" y="130" on="0"/>
        <pt x="498" y="130" on="1"/>
        <pt x="523" y="130" on="0"/>
        <pt x="558" y="158" on="0"/>
        <pt x="571" y="175" on="1"/>
        <pt x="574" y="157" on="0"/>
        <pt x="574" y="140" on="1"/>
        <pt x="574" y="110" on="0"/>
        <pt x="553" y="62" on="0"/>
        <pt x="519" y="28" on="0"/>
        <pt x="475" y="9" on="0"/>
        <pt x="451" y="9" on="1"/>
        <pt x="425" y="9" on="0"/>
        <pt x="380" y="28" on="0"/>
        <pt x="346" y="62" on="0"/>
        <pt x="326" y="107" on="0"/>
        <pt x="326" y="134" on="1"/>
        <pt x="326" y="169" on="0"/>
        <pt x="348" y="219" on="0"/>
        <pt x="363" y="234" on="1"/>
        <pt x="335" y="226" on="0"/>
        <pt x="288" y="220" on="0"/>
        <pt x="259" y="220" on="1"/>
        <pt x="225" y="220" on="0"/>
        <pt x="163" y="230" on="0"/>
        <pt x="107" y="243" on="0"/>
        <pt x="56" y="254" on="0"/>
        <pt x="33" y="255" on="1"/>
        <pt x="58" y="273" on="0"/>
        <pt x="107" y="327" on="0"/>
        <pt x="168" y="383" on="0"/>
        <pt x="245" y="435" on="0"/>
        <pt x="298" y="452" on="1"/>
        <pt x="266" y="458" on="0"/>
        <pt x="218" y="486" on="0"/>
        <pt x="187" y="525" on="0"/>
        <pt x="171" y="570" on="0"/>
        <pt x="171" y="594" on="1"/>
        <pt x="171" y="619" on="0"/>
        <pt x="189" y="663" on="0"/>
        <pt x="222" y="696" on="0"/>
        <pt x="266" y="714" on="0"/>
        <pt x="293" y="714" on="1"/>
        <pt x="337" y="714" on="0"/>
        <pt x="394" y="660" on="0"/>
        <pt x="415" y="624" on="1"/>
        <pt x="391" y="632" on="0"/>
        <pt x="372" y="632" on="1"/>
        <pt x="344" y="632" on="0"/>
        <pt x="306" y="603" on="0"/>
        <pt x="306" y="575" on="1"/>
        <pt x="306" y="538" on="0"/>
        <pt x="358" y="512" on="0"/>
        <pt x="400" y="512" on="1"/>
        <pt x="449" y="512" on="0"/>
        <pt x="596" y="532" on="0"/>
        <pt x="698" y="532" on="1"/>
        <pt x="772" y="532" on="0"/>
        <pt x="916" y="481" on="0"/>
        <pt x="1030" y="385" on="0"/>
        <pt x="1101" y="249" on="0"/>
        <pt x="1101" y="165" on="1"/>
        <pt x="1111" y="162" on="0"/>
        <pt x="1137" y="158" on="0"/>
        <pt x="1151" y="158" on="1"/>
        <pt x="1191" y="158" on="0"/>
        <pt x="1247" y="173" on="0"/>
        <pt x="1280" y="199" on="0"/>
        <pt x="1295" y="236" on="0"/>
        <pt x="1295" y="257" on="1"/>
        <pt x="1295" y="290" on="0"/>
        <pt x="1236" y="337" on="0"/>
        <pt x="1165" y="344" on="1"/>
        <pt x="1159" y="345" on="0"/>
        <pt x="1153" y="364" on="0"/>
        <pt x="1153" y="378" on="1"/>
        <pt x="1153" y="392" on="0"/>
        <pt x="1159" y="426" on="0"/>
        <pt x="1170" y="455" on="0"/>
        <pt x="1184" y="474" on="0"/>
        <pt x="1193" y="474" on="1"/>
        <pt x="1198" y="474" on="0"/>
        <pt x="1200" y="473" on="1"/>
        <pt x="1222" y="463" on="0"/>
        <pt x="1272" y="427" on="0"/>
        <pt x="1314" y="376" on="0"/>
        <pt x="1341" y="311" on="0"/>
      </contour>
      <contour>
        <pt x="1041" y="146" on="1"/>
        <pt x="1020" y="151" on="0"/>
        <pt x="976" y="167" on="0"/>
        <pt x="925" y="182" on="0"/>
        <pt x="864" y="192" on="0"/>
        <pt x="827" y="192" on="1"/>
        <pt x="753" y="192" on="0"/>
        <pt x="687" y="130" on="0"/>
        <pt x="687" y="82" on="1"/>
        <pt x="687" y="61" on="0"/>
        <pt x="709" y="16" on="0"/>
        <pt x="753" y="-21" on="0"/>
        <pt x="816" y="-45" on="0"/>
        <pt x="857" y="-45" on="1"/>
        <pt x="953" y="-45" on="0"/>
        <pt x="1039" y="58" on="0"/>
      </contour>
    </TTGlyph>
    <TTGlyph name="b" xMin="-14" yMin="-214" xMax="1013" yMax="800">
      <contour>
        <pt x="1013" y="-200" on="1"/>
        <pt x="1013" y="-214" on="0"/>
        <pt x="1005" y="-214" on="1"/>
        <pt x="999" y="-214" on="1"/>
        <pt x="925" y="-214" on="0"/>
        <pt x="797" y="-196" on="0"/>
        <pt x="685" y="-163" on="0"/>
        <pt x="588" y="-118" on="0"/>
        <pt x="545" y="-92" on="1"/>
        <pt x="438" y="-149" on="0"/>
        <pt x="168" y="-214" on="0"/>
        <pt x="0" y="-214" on="1"/>
        <pt x="-6" y="-214" on="1"/>
        <pt x="-14" y="-214" on="0"/>
        <pt x="-14" y="-200" on="1"/>
        <pt x="-14" y="-186" on="0"/>
        <pt x="-6" y="-186" on="1"/>
        <pt x="0" y="-186" on="1"/>
        <pt x="158" y="-186" on="0"/>
        <pt x="414" y="-125" on="0"/>
        <pt x="516" y="-73" on="1"/>
        <pt x="461" y="-36" on="0"/>
        <pt x="366" y="46" on="0"/>
        <pt x="282" y="125" on="0"/>
        <pt x="205" y="198" on="0"/>
        <pt x="127" y="253" on="0"/>
        <pt x="46" y="286" on="0"/>
        <pt x="0" y="286" on="1"/>
        <pt x="-6" y="286" on="1"/>
        <pt x="-14" y="286" on="0"/>
        <pt x="-14" y="300" on="1"/>
        <pt x="-14" y="314" on="0"/>
        <pt x="-6" y="314" on="1"/>
        <pt x="0" y="315" on="1"/>
        <pt x="19" y="320" on="0"/>
        <pt x="49" y="327" on="0"/>
        <pt x="80" y="332" on="0"/>
        <pt x="116" y="334" on="0"/>
        <pt x="142" y="334" on="1"/>
        <pt x="232" y="334" on="0"/>
        <pt x="379" y="277" on="0"/>
        <pt x="503" y="187" on="0"/>
        <pt x="611" y="76" on="0"/>
        <pt x="662" y="22" on="1"/>
        <pt x="719" y="69" on="0"/>
        <pt x="803" y="175" on="0"/>
        <pt x="860" y="287" on="0"/>
        <pt x="888" y="401" on="0"/>
        <pt x="888" y="456" on="1"/>
        <pt x="888" y="525" on="0"/>
        <pt x="851" y="639" on="0"/>
        <pt x="784" y="722" on="0"/>
        <pt x="688" y="768" on="0"/>
        <pt x="629" y="768" on="1"/>
        <pt x="571" y="768" on="0"/>
        <pt x="487" y="739" on="0"/>
        <pt x="433" y="688" on="0"/>
        <pt x="407" y="617" on="0"/>
        <pt x="407" y="575" on="1"/>
        <pt x="432" y="596" on="0"/>
        <pt x="466" y="596" on="1"/>
        <pt x="492" y="596" on="0"/>
        <pt x="538" y="561" on="0"/>
        <pt x="545" y="523" on="1"/>
        <pt x="557" y="457" on="0"/>
        <pt x="591" y="378" on="0"/>
        <pt x="624" y="378" on="1"/>
        <pt x="647" y="378" on="0"/>
        <pt x="670" y="391" on="0"/>
        <pt x="675" y="400" on="1"/>
        <pt x="679" y="407" on="0"/>
        <pt x="691" y="402" on="1"/>
        <pt x="703" y="397" on="0"/>
        <pt x="701" y="389" on="1"/>
        <pt x="694" y="375" on="0"/>
        <pt x="659" y="346" on="0"/>
        <pt x="624" y="346" on="1"/>
        <pt x="570" y="346" on="0"/>
        <pt x="478" y="381" on="0"/>
        <pt x="412" y="443" on="0"/>
        <pt x="374" y="527" on="0"/>
        <pt x="374" y="575" on="1"/>
        <pt x="374" y="623" on="0"/>
        <pt x="405" y="706" on="0"/>
        <pt x="468" y="766" on="0"/>
        <pt x="564" y="800" on="0"/>
        <pt x="629" y="800" on="1"/>
        <pt x="694" y="800" on="0"/>
        <pt x="801" y="749" on="0"/>
        <pt x="878" y="658" on="0"/>
        <pt x="920" y="532" on="0"/>
        <pt x="920" y="456" on="1"/>
        <pt x="920" y="397" on="0"/>
        <pt x="890" y="276" on="0"/>
        <pt x="831" y="159" on="0"/>
        <pt x="742" y="48" on="0"/>
        <pt x="683" y="-1" on="1"/>
        <pt x="719" y="-39" on="0"/>
        <pt x="792" y="-106" on="0"/>
        <pt x="869" y="-157" on="0"/>
        <pt x="952" y="-186" on="0"/>
        <pt x="999" y="-186" on="1"/>
        <pt x="1005" y="-186" on="1"/>
        <pt x="1013" y="-186" on="0"/>
      </contour>
    </TTGlyph>
    <TTGlyph name="bracketleft" xMin="23" yMin="-146" xMax="489" yMax="720">
      <contour>
        <pt x="483" y="-133" on="1"/>
        <pt x="478" y="-146" on="0"/>
        <pt x="470" y="-142" on="1"/>
        <pt x="460" y="-137" on="0"/>
        <pt x="414" y="-126" on="0"/>
        <pt x="382" y="-126" on="1"/>
        <pt x="357" y="-126" on="0"/>
        <pt x="323" y="-132" on="0"/>
        <pt x="299" y="-138" on="0"/>
        <pt x="282" y="-144" on="0"/>
        <pt x="273" y="-144" on="1"/>
        <pt x="264" y="-144" on="0"/>
        <pt x="264" y="-133" on="1"/>
        <pt x="264" y="-119" on="0"/>
        <pt x="264" y="-69" on="0"/>
        <pt x="265" y="-5" on="0"/>
        <pt x="266" y="66" on="0"/>
        <pt x="267" y="136" on="0"/>
        <pt x="268" y="199" on="0"/>
        <pt x="268" y="223" on="1"/>
        <pt x="260" y="208" on="0"/>
        <pt x="225" y="185" on="0"/>
        <pt x="193" y="185" on="1"/>
        <pt x="151" y="185" on="0"/>
        <pt x="114" y="232" on="0"/>
        <pt x="114" y="262" on="1"/>
        <pt x="114" y="283" on="0"/>
        <pt x="132" y="315" on="0"/>
        <pt x="155" y="340" on="0"/>
        <pt x="173" y="360" on="0"/>
        <pt x="173" y="369" on="1"/>
        <pt x="173" y="380" on="0"/>
        <pt x="165" y="380" on="1"/>
        <pt x="157" y="380" on="0"/>
        <pt x="151" y="373" on="0"/>
        <pt x="148" y="373" on="1"/>
        <pt x="144" y="373" on="0"/>
        <pt x="136" y="381" on="0"/>
        <pt x="136" y="385" on="1"/>
        <pt x="136" y="391" on="0"/>
        <pt x="160" y="417" on="0"/>
        <pt x="177" y="417" on="1"/>
        <pt x="197" y="417" on="0"/>
        <pt x="216" y="386" on="0"/>
        <pt x="216" y="372" on="1"/>
        <pt x="216" y="355" on="0"/>
        <pt x="209" y="331" on="0"/>
        <pt x="201" y="312" on="0"/>
        <pt x="194" y="294" on="0"/>
        <pt x="194" y="283" on="1"/>
        <pt x="194" y="264" on="0"/>
        <pt x="208" y="250" on="0"/>
        <pt x="220" y="250" on="1"/>
        <pt x="230" y="250" on="0"/>
        <pt x="238" y="259" on="0"/>
        <pt x="238" y="265" on="1"/>
        <pt x="238" y="276" on="0"/>
        <pt x="230" y="276" on="1"/>
        <pt x="224" y="277" on="0"/>
        <pt x="224" y="286" on="1"/>
        <pt x="224" y="296" on="0"/>
        <pt x="230" y="296" on="1"/>
        <pt x="257" y="296" on="0"/>
        <pt x="268" y="278" on="1"/>
        <pt x="268" y="325" on="1"/>
        <pt x="268" y="355" on="0"/>
        <pt x="251" y="405" on="0"/>
        <pt x="221" y="441" on="0"/>
        <pt x="181" y="461" on="0"/>
        <pt x="159" y="461" on="1"/>
        <pt x="116" y="461" on="0"/>
        <pt x="61" y="414" on="0"/>
        <pt x="61" y="375" on="1"/>
        <pt x="61" y="350" on="0"/>
        <pt x="78" y="350" on="1"/>
        <pt x="85" y="350" on="0"/>
        <pt x="92" y="357" on="0"/>
        <pt x="95" y="357" on="1"/>
        <pt x="98" y="357" on="0"/>
        <pt x="106" y="350" on="0"/>
        <pt x="106" y="345" on="1"/>
        <pt x="106" y="339" on="0"/>
        <pt x="83" y="314" on="0"/>
        <pt x="66" y="314" on="1"/>
        <pt x="49" y="314" on="0"/>
        <pt x="23" y="339" on="0"/>
        <pt x="23" y="367" on="1"/>
        <pt x="23" y="390" on="0"/>
        <pt x="45" y="431" on="0"/>
        <pt x="83" y="462" on="0"/>
        <pt x="132" y="480" on="0"/>
        <pt x="159" y="480" on="1"/>
        <pt x="190" y="480" on="0"/>
        <pt x="252" y="444" on="0"/>
        <pt x="267" y="408" on="1"/>
        <pt x="267" y="447" on="0"/>
        <pt x="266" y="537" on="0"/>
        <pt x="265" y="621" on="0"/>
        <pt x="264" y="690" on="0"/>
        <pt x="264" y="707" on="1"/>
        <pt x="264" y="717" on="0"/>
        <pt x="273" y="717" on="1"/>
        <pt x="282" y="717" on="0"/>
        <pt x="299" y="712" on="0"/>
        <pt x="323" y="705" on="0"/>
        <pt x="357" y="700" on="0"/>
        <pt x="382" y="700" on="1"/>
        <pt x="414" y="700" on="0"/>
        <pt x="460" y="711" on="0"/>
        <pt x="470" y="716" on="1"/>
        <pt x="478" y="720" on="0"/>
        <pt x="483" y="707" on="1"/>
        <pt x="489" y="696" on="0"/>
        <pt x="482" y="691" on="1"/>
        <pt x="466" y="674" on="0"/>
        <pt x="427" y="647" on="0"/>
        <pt x="395" y="642" on="1"/>
        <pt x="395" y="-69" on="1"/>
        <pt x="427" y="-74" on="0"/>
        <pt x="466" y="-100" on="0"/>
        <pt x="482" y="-117" on="1"/>
        <pt x="488" y="-123" on="0"/>
      </contour>
      <contour>
        <pt x="375" y="640" on="1"/>
        <pt x="359" y="640" on="1"/>
        <pt x="344" y="640" on="0"/>
        <pt x="337" y="643" on="1"/>
        <pt x="336" y="602" on="0"/>
        <pt x="334" y="520" on="0"/>
        <pt x="333" y="434" on="0"/>
        <pt x="333" y="340" on="0"/>
        <pt x="333" y="287" on="1"/>
        <pt x="333" y="234" on="0"/>
        <pt x="333" y="140" on="0"/>
        <pt x="334" y="54" on="0"/>
        <pt x="336" y="-28" on="0"/>
        <pt x="337" y="-69" on="1"/>
        <pt x="344" y="-66" on="0"/>
        <pt x="359" y="-66" on="1"/>
        <pt x="375" y="-66" on="1"/>
      </contour>
    </TTGlyph>
    <TTGlyph name="bracketright" xMin="37" yMin="-146" xMax="503" yMax="720">
      <contour>
        <pt x="503" y="367" on="1"/>
        <pt x="503" y="339" on="0"/>
        <pt x="477" y="314" on="0"/>
        <pt x="460" y="314" on="1"/>
        <pt x="443" y="314" on="0"/>
        <pt x="420" y="339" on="0"/>
        <pt x="420" y="345" on="1"/>
        <pt x="420" y="350" on="0"/>
        <pt x="428" y="357" on="0"/>
        <pt x="431" y="357" on="1"/>
        <pt x="434" y="357" on="0"/>
        <pt x="441" y="350" on="0"/>
        <pt x="448" y="350" on="1"/>
        <pt x="465" y="350" on="0"/>
        <pt x="465" y="375" on="1"/>
        <pt x="465" y="414" on="0"/>
        <pt x="410" y="461" on="0"/>
        <pt x="367" y="461" on="1"/>
        <pt x="345" y="461" on="0"/>
        <pt x="305" y="441" on="0"/>
        <pt x="275" y="405" on="0"/>
        <pt x="258" y="355" on="0"/>
        <pt x="258" y="325" on="1"/>
        <pt x="258" y="278" on="1"/>
        <pt x="269" y="296" on="0"/>
        <pt x="296" y="296" on="1"/>
        <pt x="302" y="296" on="0"/>
        <pt x="302" y="286" on="1"/>
        <pt x="302" y="277" on="0"/>
        <pt x="296" y="276" on="1"/>
        <pt x="288" y="276" on="0"/>
        <pt x="288" y="265" on="1"/>
        <pt x="288" y="259" on="0"/>
        <pt x="296" y="250" on="0"/>
        <pt x="306" y="250" on="1"/>
        <pt x="318" y="250" on="0"/>
        <pt x="332" y="264" on="0"/>
        <pt x="332" y="283" on="1"/>
        <pt x="332" y="294" on="0"/>
        <pt x="325" y="312" on="0"/>
        <pt x="317" y="331" on="0"/>
        <pt x="310" y="355" on="0"/>
        <pt x="310" y="372" on="1"/>
        <pt x="310" y="386" on="0"/>
        <pt x="329" y="417" on="0"/>
        <pt x="349" y="417" on="1"/>
        <pt x="366" y="417" on="0"/>
        <pt x="390" y="391" on="0"/>
        <pt x="390" y="385" on="1"/>
        <pt x="390" y="381" on="0"/>
        <pt x="382" y="373" on="0"/>
        <pt x="378" y="373" on="1"/>
        <pt x="375" y="373" on="0"/>
        <pt x="369" y="380" on="0"/>
        <pt x="361" y="380" on="1"/>
        <pt x="353" y="380" on="0"/>
        <pt x="353" y="369" on="1"/>
        <pt x="353" y="360" on="0"/>
        <pt x="371" y="340" on="0"/>
        <pt x="394" y="315" on="0"/>
        <pt x="412" y="283" on="0"/>
        <pt x="412" y="262" on="1"/>
        <pt x="412" y="232" on="0"/>
        <pt x="375" y="185" on="0"/>
        <pt x="333" y="185" on="1"/>
        <pt x="301" y="185" on="0"/>
        <pt x="266" y="208" on="0"/>
        <pt x="258" y="223" on="1"/>
        <pt x="258" y="199" on="0"/>
        <pt x="259" y="136" on="0"/>
        <pt x="260" y="66" on="0"/>
        <pt x="261" y="-5" on="0"/>
        <pt x="262" y="-69" on="0"/>
        <pt x="262" y="-119" on="0"/>
        <pt x="262" y="-133" on="1"/>
        <pt x="262" y="-144" on="0"/>
        <pt x="253" y="-144" on="1"/>
        <pt x="244" y="-144" on="0"/>
        <pt x="227" y="-138" on="0"/>
        <pt x="203" y="-132" on="0"/>
        <pt x="169" y="-126" on="0"/>
        <pt x="144" y="-126" on="1"/>
        <pt x="112" y="-126" on="0"/>
        <pt x="66" y="-137" on="0"/>
        <pt x="56" y="-142" on="1"/>
        <pt x="48" y="-146" on="0"/>
        <pt x="43" y="-133" on="1"/>
        <pt x="38" y="-123" on="0"/>
        <pt x="44" y="-117" on="1"/>
        <pt x="60" y="-100" on="0"/>
        <pt x="99" y="-74" on="0"/>
        <pt x="131" y="-69" on="1"/>
        <pt x="131" y="642" on="1"/>
        <pt x="99" y="647" on="0"/>
        <pt x="60" y="674" on="0"/>
        <pt x="44" y="691" on="1"/>
        <pt x="37" y="696" on="0"/>
        <pt x="43" y="707" on="1"/>
        <pt x="48" y="720" on="0"/>
        <pt x="56" y="716" on="1"/>
        <pt x="66" y="711" on="0"/>
        <pt x="112" y="700" on="0"/>
        <pt x="144" y="700" on="1"/>
        <pt x="169" y="700" on="0"/>
        <pt x="203" y="705" on="0"/>
        <pt x="227" y="712" on="0"/>
        <pt x="244" y="717" on="0"/>
        <pt x="253" y="717" on="1"/>
        <pt x="262" y="717" on="0"/>
        <pt x="262" y="707" on="1"/>
        <pt x="262" y="690" on="0"/>
        <pt x="261" y="621" on="0"/>
        <pt x="260" y="537" on="0"/>
        <pt x="259" y="447" on="0"/>
        <pt x="259" y="408" on="1"/>
        <pt x="274" y="444" on="0"/>
        <pt x="336" y="480" on="0"/>
        <pt x="367" y="480" on="1"/>
        <pt x="394" y="480" on="0"/>
        <pt x="443" y="462" on="0"/>
        <pt x="481" y="431" on="0"/>
        <pt x="503" y="390" on="0"/>
      </contour>
      <contour>
        <pt x="193" y="287" on="1"/>
        <pt x="193" y="340" on="0"/>
        <pt x="193" y="434" on="0"/>
        <pt x="192" y="520" on="0"/>
        <pt x="190" y="602" on="0"/>
        <pt x="189" y="643" on="1"/>
        <pt x="181" y="640" on="0"/>
        <pt x="167" y="640" on="1"/>
        <pt x="151" y="640" on="1"/>
        <pt x="151" y="-66" on="1"/>
        <pt x="167" y="-66" on="1"/>
        <pt x="181" y="-66" on="0"/>
        <pt x="189" y="-69" on="1"/>
        <pt x="190" y="-28" on="0"/>
        <pt x="192" y="54" on="0"/>
        <pt x="193" y="140" on="0"/>
        <pt x="193" y="234" on="0"/>
      </contour>
    </TTGlyph>
    <TTGlyph name="c" xMin="-13" yMin="-200" xMax="1014" yMax="814">
      <contour>
        <pt x="1014" y="300" on="1"/>
        <pt x="1014" y="286" on="0"/>
        <pt x="1006" y="286" on="1"/>
        <pt x="1000" y="285" on="1"/>
        <pt x="981" y="280" on="0"/>
        <pt x="951" y="273" on="0"/>
        <pt x="920" y="268" on="0"/>
        <pt x="884" y="266" on="0"/>
        <pt x="858" y="266" on="1"/>
        <pt x="768" y="266" on="0"/>
        <pt x="621" y="323" on="0"/>
        <pt x="497" y="413" on="0"/>
        <pt x="389" y="524" on="0"/>
        <pt x="338" y="578" on="1"/>
        <pt x="281" y="531" on="0"/>
        <pt x="197" y="425" on="0"/>
        <pt x="140" y="313" on="0"/>
        <pt x="112" y="199" on="0"/>
        <pt x="112" y="144" on="1"/>
        <pt x="112" y="75" on="0"/>
        <pt x="149" y="-39" on="0"/>
        <pt x="216" y="-122" on="0"/>
        <pt x="312" y="-168" on="0"/>
        <pt x="371" y="-168" on="1"/>
        <pt x="429" y="-168" on="0"/>
        <pt x="513" y="-139" on="0"/>
        <pt x="567" y="-88" on="0"/>
        <pt x="593" y="-17" on="0"/>
        <pt x="593" y="25" on="1"/>
        <pt x="580" y="14" on="0"/>
        <pt x="552" y="4" on="0"/>
        <pt x="534" y="4" on="1"/>
        <pt x="508" y="4" on="0"/>
        <pt x="462" y="39" on="0"/>
        <pt x="455" y="77" on="1"/>
        <pt x="443" y="143" on="0"/>
        <pt x="409" y="222" on="0"/>
        <pt x="376" y="222" on="1"/>
        <pt x="353" y="222" on="0"/>
        <pt x="330" y="209" on="0"/>
        <pt x="325" y="200" on="1"/>
        <pt x="321" y="193" on="0"/>
        <pt x="309" y="198" on="1"/>
        <pt x="297" y="203" on="0"/>
        <pt x="299" y="211" on="1"/>
        <pt x="306" y="225" on="0"/>
        <pt x="341" y="254" on="0"/>
        <pt x="376" y="254" on="1"/>
        <pt x="430" y="254" on="0"/>
        <pt x="522" y="219" on="0"/>
        <pt x="588" y="157" on="0"/>
        <pt x="626" y="73" on="0"/>
        <pt x="626" y="25" on="1"/>
        <pt x="626" y="-23" on="0"/>
        <pt x="595" y="-106" on="0"/>
        <pt x="532" y="-166" on="0"/>
        <pt x="436" y="-200" on="0"/>
        <pt x="371" y="-200" on="1"/>
        <pt x="306" y="-200" on="0"/>
        <pt x="198" y="-149" on="0"/>
        <pt x="122" y="-58" on="0"/>
        <pt x="80" y="68" on="0"/>
        <pt x="80" y="144" on="1"/>
        <pt x="80" y="203" on="0"/>
        <pt x="110" y="324" on="0"/>
        <pt x="169" y="441" on="0"/>
        <pt x="258" y="552" on="0"/>
        <pt x="317" y="601" on="1"/>
        <pt x="281" y="639" on="0"/>
        <pt x="208" y="706" on="0"/>
        <pt x="131" y="757" on="0"/>
        <pt x="48" y="786" on="0"/>
        <pt x="1" y="786" on="1"/>
        <pt x="-5" y="786" on="1"/>
        <pt x="-13" y="786" on="0"/>
        <pt x="-13" y="800" on="1"/>
        <pt x="-13" y="814" on="0"/>
        <pt x="-5" y="814" on="1"/>
        <pt x="1" y="814" on="1"/>
        <pt x="74" y="814" on="0"/>
        <pt x="203" y="796" on="0"/>
        <pt x="315" y="763" on="0"/>
        <pt x="412" y="718" on="0"/>
        <pt x="455" y="692" on="1"/>
        <pt x="562" y="749" on="0"/>
        <pt x="832" y="814" on="0"/>
        <pt x="1000" y="814" on="1"/>
        <pt x="1006" y="814" on="1"/>
        <pt x="1014" y="814" on="0"/>
        <pt x="1014" y="800" on="1"/>
        <pt x="1014" y="786" on="0"/>
        <pt x="1006" y="786" on="1"/>
        <pt x="1000" y="786" on="1"/>
        <pt x="842" y="786" on="0"/>
        <pt x="586" y="725" on="0"/>
        <pt x="484" y="673" on="1"/>
        <pt x="539" y="636" on="0"/>
        <pt x="634" y="554" on="0"/>
        <pt x="718" y="475" on="0"/>
        <pt x="795" y="402" on="0"/>
        <pt x="873" y="347" on="0"/>
        <pt x="954" y="314" on="0"/>
        <pt x="1000" y="314" on="1"/>
        <pt x="1006" y="314" on="1"/>
        <pt x="1014" y="314" on="0"/>
      </contour>
    </TTGlyph>
    <TTGlyph name="colon" xMin="9" yMin="-311" xMax="736" yMax="751">
      <contour>
        <pt x="736" y="633" on="1"/>
        <pt x="736" y="604" on="0"/>
        <pt x="711" y="539" on="0"/>
        <pt x="655" y="482" on="0"/>
        <pt x="567" y="438" on="0"/>
        <pt x="503" y="431" on="1"/>
        <pt x="504" y="424" on="0"/>
        <pt x="505" y="411" on="0"/>
        <pt x="505" y="403" on="1"/>
        <pt x="548" y="400" on="0"/>
        <pt x="625" y="373" on="0"/>
        <pt x="684" y="328" on="0"/>
        <pt x="719" y="266" on="0"/>
        <pt x="719" y="228" on="1"/>
        <pt x="719" y="196" on="0"/>
        <pt x="698" y="153" on="0"/>
        <pt x="665" y="125" on="0"/>
        <pt x="624" y="110" on="0"/>
        <pt x="605" y="107" on="1"/>
        <pt x="617" y="81" on="0"/>
        <pt x="629" y="13" on="0"/>
        <pt x="629" y="-22" on="1"/>
        <pt x="629" y="-89" on="0"/>
        <pt x="606" y="-175" on="0"/>
        <pt x="573" y="-228" on="0"/>
        <pt x="536" y="-253" on="0"/>
        <pt x="521" y="-258" on="1"/>
        <pt x="503" y="-266" on="0"/>
        <pt x="494" y="-286" on="0"/>
        <pt x="494" y="-299" on="1"/>
        <pt x="494" y="-311" on="0"/>
        <pt x="480" y="-311" on="1"/>
        <pt x="466" y="-311" on="0"/>
        <pt x="466" y="-299" on="1"/>
        <pt x="466" y="-286" on="0"/>
        <pt x="457" y="-266" on="0"/>
        <pt x="439" y="-258" on="1"/>
        <pt x="424" y="-253" on="0"/>
        <pt x="387" y="-228" on="0"/>
        <pt x="354" y="-175" on="0"/>
        <pt x="331" y="-89" on="0"/>
        <pt x="331" y="-22" on="1"/>
        <pt x="331" y="13" on="0"/>
        <pt x="343" y="81" on="0"/>
        <pt x="354" y="107" on="1"/>
        <pt x="335" y="110" on="0"/>
        <pt x="295" y="125" on="0"/>
        <pt x="262" y="153" on="0"/>
        <pt x="241" y="196" on="0"/>
        <pt x="241" y="228" on="1"/>
        <pt x="241" y="266" on="0"/>
        <pt x="278" y="328" on="0"/>
        <pt x="339" y="373" on="0"/>
        <pt x="418" y="401" on="0"/>
        <pt x="460" y="404" on="1"/>
        <pt x="461" y="410" on="0"/>
        <pt x="462" y="422" on="0"/>
        <pt x="462" y="428" on="1"/>
        <pt x="457" y="428" on="0"/>
        <pt x="446" y="427" on="0"/>
        <pt x="441" y="427" on="1"/>
        <pt x="407" y="427" on="0"/>
        <pt x="330" y="443" on="0"/>
        <pt x="255" y="485" on="0"/>
        <pt x="187" y="557" on="0"/>
        <pt x="161" y="613" on="1"/>
        <pt x="133" y="584" on="0"/>
        <pt x="96" y="517" on="0"/>
        <pt x="79" y="472" on="1"/>
        <pt x="77" y="466" on="0"/>
        <pt x="69" y="459" on="0"/>
        <pt x="64" y="459" on="1"/>
        <pt x="47" y="459" on="0"/>
        <pt x="19" y="478" on="0"/>
        <pt x="11" y="492" on="1"/>
        <pt x="9" y="496" on="0"/>
        <pt x="9" y="501" on="1"/>
        <pt x="9" y="506" on="0"/>
        <pt x="11" y="510" on="1"/>
        <pt x="32" y="552" on="0"/>
        <pt x="85" y="625" on="0"/>
        <pt x="149" y="679" on="0"/>
        <pt x="226" y="710" on="0"/>
        <pt x="272" y="710" on="1"/>
        <pt x="317" y="710" on="0"/>
        <pt x="393" y="674" on="0"/>
        <pt x="452" y="610" on="0"/>
        <pt x="491" y="518" on="0"/>
        <pt x="500" y="463" on="1"/>
        <pt x="591" y="475" on="0"/>
        <pt x="691" y="562" on="0"/>
        <pt x="691" y="619" on="1"/>
        <pt x="691" y="643" on="0"/>
        <pt x="673" y="643" on="1"/>
        <pt x="666" y="643" on="0"/>
        <pt x="657" y="632" on="0"/>
        <pt x="643" y="620" on="0"/>
        <pt x="623" y="609" on="0"/>
        <pt x="606" y="609" on="1"/>
        <pt x="584" y="609" on="0"/>
        <pt x="549" y="639" on="0"/>
        <pt x="549" y="670" on="1"/>
        <pt x="549" y="707" on="0"/>
        <pt x="597" y="751" on="0"/>
        <pt x="636" y="751" on="1"/>
        <pt x="656" y="751" on="0"/>
        <pt x="693" y="733" on="0"/>
        <pt x="720" y="702" on="0"/>
        <pt x="736" y="658" on="0"/>
      </contour>
      <contour>
        <pt x="597" y="-22" on="1"/>
        <pt x="597" y="0" on="0"/>
        <pt x="591" y="50" on="0"/>
        <pt x="578" y="93" on="0"/>
        <pt x="557" y="121" on="0"/>
        <pt x="542" y="121" on="1"/>
        <pt x="511" y="121" on="0"/>
        <pt x="478" y="54" on="0"/>
        <pt x="471" y="-22" on="1"/>
        <pt x="467" y="-61" on="0"/>
        <pt x="458" y="-113" on="0"/>
        <pt x="447" y="-146" on="0"/>
        <pt x="436" y="-166" on="0"/>
        <pt x="431" y="-175" on="1"/>
        <pt x="425" y="-184" on="0"/>
        <pt x="425" y="-195" on="1"/>
        <pt x="425" y="-209" on="0"/>
        <pt x="453" y="-232" on="0"/>
        <pt x="480" y="-232" on="1"/>
        <pt x="531" y="-232" on="0"/>
        <pt x="597" y="-129" on="0"/>
      </contour>
      <contour>
        <pt x="461" y="460" on="1"/>
        <pt x="457" y="504" on="0"/>
        <pt x="425" y="579" on="0"/>
        <pt x="375" y="633" on="0"/>
        <pt x="313" y="663" on="0"/>
        <pt x="279" y="663" on="1"/>
        <pt x="250" y="663" on="0"/>
        <pt x="210" y="650" on="0"/>
        <pt x="191" y="636" on="1"/>
        <pt x="207" y="584" on="0"/>
        <pt x="269" y="516" on="0"/>
        <pt x="341" y="476" on="0"/>
        <pt x="414" y="460" on="0"/>
        <pt x="441" y="460" on="1"/>
      </contour>
      <contour>
        <pt x="646" y="191" on="1"/>
        <pt x="646" y="209" on="0"/>
        <pt x="619" y="236" on="0"/>
        <pt x="573" y="254" on="0"/>
        <pt x="513" y="263" on="0"/>
        <pt x="480" y="263" on="1"/>
        <pt x="447" y="263" on="0"/>
        <pt x="387" y="254" on="0"/>
        <pt x="341" y="236" on="0"/>
        <pt x="314" y="209" on="0"/>
        <pt x="314" y="191" on="1"/>
        <pt x="314" y="147" on="0"/>
        <pt x="369" y="135" on="1"/>
        <pt x="388" y="164" on="0"/>
        <pt x="445" y="199" on="0"/>
        <pt x="480" y="199" on="1"/>
        <pt x="515" y="199" on="0"/>
        <pt x="572" y="164" on="0"/>
        <pt x="591" y="135" on="1"/>
        <pt x="646" y="147" on="0"/>
      </contour>
      <contour>
        <pt x="687" y="228" on="1"/>
        <pt x="687" y="256" on="0"/>
        <pt x="663" y="301" on="0"/>
        <pt x="623" y="336" on="0"/>
        <pt x="571" y="360" on="0"/>
        <pt x="542" y="366" on="1"/>
        <pt x="538" y="367" on="0"/>
        <pt x="530" y="367" on="1"/>
        <pt x="516" y="367" on="0"/>
        <pt x="502" y="351" on="0"/>
        <pt x="497" y="338" on="1"/>
        <pt x="494" y="331" on="0"/>
        <pt x="492" y="318" on="0"/>
        <pt x="492" y="312" on="1"/>
        <pt x="492" y="305" on="0"/>
        <pt x="495" y="295" on="0"/>
        <pt x="497" y="295" on="1"/>
        <pt x="531" y="294" on="0"/>
        <pt x="597" y="280" on="0"/>
        <pt x="649" y="255" on="0"/>
        <pt x="680" y="217" on="0"/>
        <pt x="680" y="191" on="1"/>
        <pt x="687" y="208" on="0"/>
      </contour>
    </TTGlyph>
    <TTGlyph name="d" xMin="-14" yMin="-200" xMax="1013" yMax="814">
      <contour>
        <pt x="1013" y="800" on="1"/>
        <pt x="1013" y="786" on="0"/>
        <pt x="1005" y="786" on="1"/>
        <pt x="999" y="786" on="1"/>
        <pt x="952" y="786" on="0"/>
        <pt x="869" y="757" on="0"/>
        <pt x="792" y="706" on="0"/>
        <pt x="719" y="639" on="0"/>
        <pt x="683" y="601" on="1"/>
        <pt x="742" y="552" on="0"/>
        <pt x="831" y="441" on="0"/>
        <pt x="890" y="324" on="0"/>
        <pt x="920" y="203" on="0"/>
        <pt x="920" y="144" on="1"/>
        <pt x="920" y="68" on="0"/>
        <pt x="878" y="-58" on="0"/>
        <pt x="801" y="-149" on="0"/>
        <pt x="694" y="-200" on="0"/>
        <pt x="629" y="-200" on="1"/>
        <pt x="564" y="-200" on="0"/>
        <pt x="468" y="-166" on="0"/>
        <pt x="405" y="-106" on="0"/>
        <pt x="374" y="-23" on="0"/>
        <pt x="374" y="25" on="1"/>
        <pt x="374" y="73" on="0"/>
        <pt x="412" y="157" on="0"/>
        <pt x="478" y="219" on="0"/>
        <pt x="570" y="254" on="0"/>
        <pt x="624" y="254" on="1"/>
        <pt x="659" y="254" on="0"/>
        <pt x="694" y="225" on="0"/>
        <pt x="701" y="211" on="1"/>
        <pt x="703" y="203" on="0"/>
        <pt x="691" y="198" on="1"/>
        <pt x="679" y="193" on="0"/>
        <pt x="675" y="200" on="1"/>
        <pt x="670" y="209" on="0"/>
        <pt x="647" y="222" on="0"/>
        <pt x="624" y="222" on="1"/>
        <pt x="591" y="222" on="0"/>
        <pt x="557" y="143" on="0"/>
        <pt x="545" y="77" on="1"/>
        <pt x="538" y="39" on="0"/>
        <pt x="492" y="4" on="0"/>
        <pt x="466" y="4" on="1"/>
        <pt x="432" y="4" on="0"/>
        <pt x="407" y="25" on="1"/>
        <pt x="407" y="-17" on="0"/>
        <pt x="433" y="-88" on="0"/>
        <pt x="487" y="-139" on="0"/>
        <pt x="571" y="-168" on="0"/>
        <pt x="629" y="-168" on="1"/>
        <pt x="688" y="-168" on="0"/>
        <pt x="784" y="-122" on="0"/>
        <pt x="851" y="-39" on="0"/>
        <pt x="888" y="75" on="0"/>
        <pt x="888" y="144" on="1"/>
        <pt x="888" y="199" on="0"/>
        <pt x="860" y="313" on="0"/>
        <pt x="803" y="425" on="0"/>
        <pt x="719" y="531" on="0"/>
        <pt x="662" y="578" on="1"/>
        <pt x="611" y="524" on="0"/>
        <pt x="503" y="413" on="0"/>
        <pt x="379" y="323" on="0"/>
        <pt x="232" y="266" on="0"/>
        <pt x="142" y="266" on="1"/>
        <pt x="116" y="266" on="0"/>
        <pt x="80" y="268" on="0"/>
        <pt x="49" y="273" on="0"/>
        <pt x="19" y="280" on="0"/>
        <pt x="0" y="285" on="1"/>
        <pt x="-6" y="286" on="1"/>
        <pt x="-14" y="286" on="0"/>
        <pt x="-14" y="300" on="1"/>
        <pt x="-14" y="314" on="0"/>
        <pt x="-6" y="314" on="1"/>
        <pt x="0" y="314" on="1"/>
        <pt x="46" y="314" on="0"/>
        <pt x="127" y="347" on="0"/>
        <pt x="205" y="402" on="0"/>
        <pt x="282" y="475" on="0"/>
        <pt x="366" y="554" on="0"/>
        <pt x="460" y="636" on="0"/>
        <pt x="516" y="673" on="1"/>
        <pt x="414" y="725" on="0"/>
        <pt x="158" y="786" on="0"/>
        <pt x="0" y="786" on="1"/>
        <pt x="-6" y="786" on="1"/>
        <pt x="-14" y="786" on="0"/>
        <pt x="-14" y="800" on="1"/>
        <pt x="-14" y="814" on="0"/>
        <pt x="-6" y="814" on="1"/>
        <pt x="0" y="814" on="1"/>
        <pt x="168" y="814" on="0"/>
        <pt x="438" y="749" on="0"/>
        <pt x="545" y="692" on="1"/>
        <pt x="588" y="718" on="0"/>
        <pt x="685" y="763" on="0"/>
        <pt x="797" y="796" on="0"/>
        <pt x="925" y="814" on="0"/>
        <pt x="999" y="814" on="1"/>
        <pt x="1005" y="814" on="1"/>
        <pt x="1013" y="814" on="0"/>
      </contour>
    </TTGlyph>
    <TTGlyph name="dollar" xMin="24" yMin="-133" xMax="1086" yMax="594">
      <contour>
        <pt x="1086" y="494" on="1"/>
        <pt x="1086" y="455" on="0"/>
        <pt x="1042" y="407" on="0"/>
        <pt x="1005" y="407" on="1"/>
        <pt x="974" y="407" on="0"/>
        <pt x="944" y="442" on="0"/>
        <pt x="944" y="464" on="1"/>
        <pt x="944" y="481" on="0"/>
        <pt x="955" y="501" on="0"/>
        <pt x="967" y="515" on="0"/>
        <pt x="978" y="524" on="0"/>
        <pt x="978" y="531" on="1"/>
        <pt x="978" y="549" on="0"/>
        <pt x="954" y="549" on="1"/>
        <pt x="897" y="549" on="0"/>
        <pt x="810" y="449" on="0"/>
        <pt x="798" y="358" on="1"/>
        <pt x="853" y="349" on="0"/>
        <pt x="945" y="310" on="0"/>
        <pt x="1009" y="251" on="0"/>
        <pt x="1045" y="175" on="0"/>
        <pt x="1045" y="130" on="1"/>
        <pt x="1045" y="84" on="0"/>
        <pt x="1014" y="7" on="0"/>
        <pt x="960" y="-57" on="0"/>
        <pt x="887" y="-110" on="0"/>
        <pt x="845" y="-131" on="1"/>
        <pt x="841" y="-133" on="0"/>
        <pt x="836" y="-133" on="1"/>
        <pt x="831" y="-133" on="0"/>
        <pt x="827" y="-131" on="1"/>
        <pt x="813" y="-123" on="0"/>
        <pt x="794" y="-95" on="0"/>
        <pt x="794" y="-78" on="1"/>
        <pt x="794" y="-73" on="0"/>
        <pt x="801" y="-65" on="0"/>
        <pt x="807" y="-63" on="1"/>
        <pt x="852" y="-46" on="0"/>
        <pt x="919" y="-9" on="0"/>
        <pt x="948" y="19" on="1"/>
        <pt x="892" y="45" on="0"/>
        <pt x="820" y="113" on="0"/>
        <pt x="778" y="188" on="0"/>
        <pt x="762" y="265" on="0"/>
        <pt x="762" y="299" on="1"/>
        <pt x="762" y="304" on="0"/>
        <pt x="763" y="315" on="0"/>
        <pt x="763" y="320" on="1"/>
        <pt x="757" y="320" on="0"/>
        <pt x="745" y="319" on="0"/>
        <pt x="739" y="318" on="1"/>
        <pt x="736" y="276" on="0"/>
        <pt x="708" y="197" on="0"/>
        <pt x="663" y="136" on="0"/>
        <pt x="601" y="99" on="0"/>
        <pt x="563" y="99" on="1"/>
        <pt x="531" y="99" on="0"/>
        <pt x="488" y="120" on="0"/>
        <pt x="460" y="153" on="0"/>
        <pt x="445" y="193" on="0"/>
        <pt x="442" y="212" on="1"/>
        <pt x="416" y="201" on="0"/>
        <pt x="348" y="189" on="0"/>
        <pt x="313" y="189" on="1"/>
        <pt x="246" y="189" on="0"/>
        <pt x="160" y="212" on="0"/>
        <pt x="107" y="245" on="0"/>
        <pt x="82" y="282" on="0"/>
        <pt x="77" y="297" on="1"/>
        <pt x="69" y="315" on="0"/>
        <pt x="49" y="324" on="0"/>
        <pt x="36" y="324" on="1"/>
        <pt x="24" y="324" on="0"/>
        <pt x="24" y="338" on="1"/>
        <pt x="24" y="352" on="0"/>
        <pt x="36" y="352" on="1"/>
        <pt x="49" y="352" on="0"/>
        <pt x="69" y="361" on="0"/>
        <pt x="77" y="379" on="1"/>
        <pt x="82" y="394" on="0"/>
        <pt x="107" y="431" on="0"/>
        <pt x="160" y="464" on="0"/>
        <pt x="246" y="487" on="0"/>
        <pt x="313" y="487" on="1"/>
        <pt x="348" y="487" on="0"/>
        <pt x="416" y="475" on="0"/>
        <pt x="442" y="463" on="1"/>
        <pt x="445" y="482" on="0"/>
        <pt x="460" y="523" on="0"/>
        <pt x="488" y="556" on="0"/>
        <pt x="531" y="577" on="0"/>
        <pt x="563" y="577" on="1"/>
        <pt x="601" y="577" on="0"/>
        <pt x="663" y="542" on="0"/>
        <pt x="708" y="483" on="0"/>
        <pt x="735" y="406" on="0"/>
        <pt x="738" y="363" on="1"/>
        <pt x="746" y="363" on="0"/>
        <pt x="759" y="362" on="0"/>
        <pt x="766" y="361" on="1"/>
        <pt x="773" y="425" on="0"/>
        <pt x="817" y="513" on="0"/>
        <pt x="874" y="569" on="0"/>
        <pt x="939" y="594" on="0"/>
        <pt x="968" y="594" on="1"/>
        <pt x="993" y="594" on="0"/>
        <pt x="1037" y="578" on="0"/>
        <pt x="1068" y="551" on="0"/>
        <pt x="1086" y="514" on="0"/>
      </contour>
      <contour>
        <pt x="456" y="400" on="1"/>
        <pt x="456" y="415" on="0"/>
        <pt x="428" y="436" on="0"/>
        <pt x="385" y="449" on="0"/>
        <pt x="335" y="455" on="0"/>
        <pt x="313" y="455" on="1"/>
        <pt x="206" y="455" on="0"/>
        <pt x="103" y="389" on="0"/>
        <pt x="103" y="338" on="1"/>
        <pt x="103" y="311" on="0"/>
        <pt x="126" y="283" on="0"/>
        <pt x="140" y="283" on="1"/>
        <pt x="151" y="283" on="0"/>
        <pt x="160" y="289" on="1"/>
        <pt x="169" y="294" on="0"/>
        <pt x="189" y="305" on="0"/>
        <pt x="222" y="316" on="0"/>
        <pt x="274" y="325" on="0"/>
        <pt x="313" y="329" on="1"/>
        <pt x="389" y="336" on="0"/>
        <pt x="456" y="369" on="0"/>
      </contour>
      <contour>
        <pt x="998" y="137" on="1"/>
        <pt x="998" y="171" on="0"/>
        <pt x="968" y="233" on="0"/>
        <pt x="914" y="283" on="0"/>
        <pt x="839" y="315" on="0"/>
        <pt x="795" y="319" on="1"/>
        <pt x="795" y="299" on="1"/>
        <pt x="795" y="272" on="0"/>
        <pt x="811" y="199" on="0"/>
        <pt x="851" y="127" on="0"/>
        <pt x="919" y="65" on="0"/>
        <pt x="971" y="49" on="1"/>
        <pt x="985" y="68" on="0"/>
        <pt x="998" y="108" on="0"/>
      </contour>
      <contour>
        <pt x="598" y="338" on="1"/>
        <pt x="598" y="371" on="0"/>
        <pt x="589" y="431" on="0"/>
        <pt x="571" y="477" on="0"/>
        <pt x="544" y="504" on="0"/>
        <pt x="526" y="504" on="1"/>
        <pt x="482" y="504" on="0"/>
        <pt x="470" y="449" on="1"/>
        <pt x="499" y="430" on="0"/>
        <pt x="534" y="373" on="0"/>
        <pt x="534" y="338" on="1"/>
        <pt x="534" y="303" on="0"/>
        <pt x="499" y="246" on="0"/>
        <pt x="470" y="227" on="1"/>
        <pt x="482" y="172" on="0"/>
        <pt x="526" y="172" on="1"/>
        <pt x="544" y="172" on="0"/>
        <pt x="571" y="199" on="0"/>
        <pt x="589" y="245" on="0"/>
        <pt x="598" y="305" on="0"/>
      </contour>
      <contour>
        <pt x="702" y="388" on="1"/>
        <pt x="702" y="396" on="0"/>
        <pt x="701" y="400" on="1"/>
        <pt x="695" y="429" on="0"/>
        <pt x="671" y="481" on="0"/>
        <pt x="636" y="521" on="0"/>
        <pt x="591" y="545" on="0"/>
        <pt x="563" y="545" on="1"/>
        <pt x="543" y="545" on="0"/>
        <pt x="526" y="538" on="1"/>
        <pt x="552" y="538" on="0"/>
        <pt x="590" y="507" on="0"/>
        <pt x="615" y="455" on="0"/>
        <pt x="629" y="389" on="0"/>
        <pt x="630" y="355" on="1"/>
        <pt x="630" y="353" on="0"/>
        <pt x="640" y="350" on="0"/>
        <pt x="647" y="350" on="1"/>
        <pt x="653" y="350" on="0"/>
        <pt x="666" y="352" on="0"/>
        <pt x="673" y="355" on="1"/>
        <pt x="686" y="360" on="0"/>
        <pt x="702" y="374" on="0"/>
      </contour>
    </TTGlyph>
    <TTGlyph name="e" xMin="0" yMin="-213" xMax="1014" yMax="814">
      <contour>
        <pt x="1014" y="-205" on="1"/>
        <pt x="1014" y="-213" on="0"/>
        <pt x="1000" y="-213" on="1"/>
        <pt x="986" y="-213" on="0"/>
        <pt x="986" y="-205" on="1"/>
        <pt x="986" y="-199" on="1"/>
        <pt x="986" y="-152" on="0"/>
        <pt x="957" y="-69" on="0"/>
        <pt x="906" y="8" on="0"/>
        <pt x="839" y="81" on="0"/>
        <pt x="801" y="117" on="1"/>
        <pt x="752" y="58" on="0"/>
        <pt x="641" y="-31" on="0"/>
        <pt x="524" y="-90" on="0"/>
        <pt x="403" y="-120" on="0"/>
        <pt x="344" y="-120" on="1"/>
        <pt x="268" y="-120" on="0"/>
        <pt x="142" y="-78" on="0"/>
        <pt x="51" y="-2" on="0"/>
        <pt x="0" y="106" on="0"/>
        <pt x="0" y="171" on="1"/>
        <pt x="0" y="236" on="0"/>
        <pt x="34" y="332" on="0"/>
        <pt x="94" y="395" on="0"/>
        <pt x="177" y="426" on="0"/>
        <pt x="225" y="426" on="1"/>
        <pt x="273" y="426" on="0"/>
        <pt x="357" y="388" on="0"/>
        <pt x="419" y="322" on="0"/>
        <pt x="454" y="230" on="0"/>
        <pt x="454" y="176" on="1"/>
        <pt x="454" y="141" on="0"/>
        <pt x="425" y="106" on="0"/>
        <pt x="411" y="99" on="1"/>
        <pt x="403" y="97" on="0"/>
        <pt x="398" y="109" on="1"/>
        <pt x="393" y="121" on="0"/>
        <pt x="400" y="125" on="1"/>
        <pt x="409" y="130" on="0"/>
        <pt x="422" y="153" on="0"/>
        <pt x="422" y="176" on="1"/>
        <pt x="422" y="209" on="0"/>
        <pt x="343" y="243" on="0"/>
        <pt x="277" y="255" on="1"/>
        <pt x="239" y="262" on="0"/>
        <pt x="204" y="308" on="0"/>
        <pt x="204" y="334" on="1"/>
        <pt x="204" y="352" on="0"/>
        <pt x="214" y="380" on="0"/>
        <pt x="225" y="393" on="1"/>
        <pt x="183" y="393" on="0"/>
        <pt x="112" y="367" on="0"/>
        <pt x="61" y="313" on="0"/>
        <pt x="32" y="229" on="0"/>
        <pt x="32" y="171" on="1"/>
        <pt x="32" y="112" on="0"/>
        <pt x="78" y="16" on="0"/>
        <pt x="161" y="-51" on="0"/>
        <pt x="275" y="-88" on="0"/>
        <pt x="344" y="-88" on="1"/>
        <pt x="399" y="-88" on="0"/>
        <pt x="513" y="-60" on="0"/>
        <pt x="625" y="-3" on="0"/>
        <pt x="731" y="81" on="0"/>
        <pt x="778" y="138" on="1"/>
        <pt x="724" y="189" on="0"/>
        <pt x="613" y="297" on="0"/>
        <pt x="523" y="421" on="0"/>
        <pt x="466" y="568" on="0"/>
        <pt x="466" y="658" on="1"/>
        <pt x="466" y="684" on="0"/>
        <pt x="468" y="720" on="0"/>
        <pt x="473" y="751" on="0"/>
        <pt x="480" y="781" on="0"/>
        <pt x="485" y="800" on="1"/>
        <pt x="486" y="806" on="1"/>
        <pt x="486" y="814" on="0"/>
        <pt x="500" y="814" on="1"/>
        <pt x="514" y="814" on="0"/>
        <pt x="514" y="806" on="1"/>
        <pt x="514" y="800" on="1"/>
        <pt x="514" y="754" on="0"/>
        <pt x="547" y="673" on="0"/>
        <pt x="602" y="595" on="0"/>
        <pt x="675" y="518" on="0"/>
        <pt x="754" y="434" on="0"/>
        <pt x="836" y="339" on="0"/>
        <pt x="873" y="284" on="1"/>
        <pt x="925" y="386" on="0"/>
        <pt x="986" y="642" on="0"/>
        <pt x="986" y="800" on="1"/>
        <pt x="986" y="806" on="1"/>
        <pt x="986" y="814" on="0"/>
        <pt x="1000" y="814" on="1"/>
        <pt x="1014" y="814" on="0"/>
        <pt x="1014" y="806" on="1"/>
        <pt x="1014" y="800" on="1"/>
        <pt x="1014" y="632" on="0"/>
        <pt x="949" y="362" on="0"/>
        <pt x="892" y="255" on="1"/>
        <pt x="918" y="212" on="0"/>
        <pt x="963" y="115" on="0"/>
        <pt x="996" y="3" on="0"/>
        <pt x="1014" y="-126" on="0"/>
        <pt x="1014" y="-199" on="1"/>
        <pt x="1014" y="-205" on="1"/>
      </contour>
    </TTGlyph>
    <TTGlyph name="eight" xMin="-7" yMin="302" xMax="1569" yMax="389">
      <contour>
        <pt x="1569" y="345" on="1"/>
        <pt x="1569" y="329" on="0"/>
        <pt x="1562" y="329" on="1"/>
        <pt x="1494" y="329" on="0"/>
        <pt x="1343" y="325" on="0"/>
        <pt x="1190" y="319" on="0"/>
        <pt x="1043" y="312" on="0"/>
        <pt x="915" y="306" on="0"/>
        <pt x="813" y="302" on="0"/>
        <pt x="781" y="302" on="1"/>
        <pt x="749" y="302" on="0"/>
        <pt x="647" y="306" on="0"/>
        <pt x="519" y="312" on="0"/>
        <pt x="372" y="319" on="0"/>
        <pt x="219" y="325" on="0"/>
        <pt x="68" y="329" on="0"/>
        <pt x="0" y="329" on="1"/>
        <pt x="-7" y="329" on="0"/>
        <pt x="-7" y="345" on="1"/>
        <pt x="-7" y="352" on="0"/>
        <pt x="-3" y="362" on="0"/>
        <pt x="0" y="362" on="1"/>
        <pt x="68" y="362" on="0"/>
        <pt x="219" y="366" on="0"/>
        <pt x="372" y="372" on="0"/>
        <pt x="519" y="379" on="0"/>
        <pt x="647" y="385" on="0"/>
        <pt x="749" y="389" on="0"/>
        <pt x="781" y="389" on="1"/>
        <pt x="813" y="389" on="0"/>
        <pt x="915" y="385" on="0"/>
        <pt x="1043" y="379" on="0"/>
        <pt x="1190" y="372" on="0"/>
        <pt x="1343" y="366" on="0"/>
        <pt x="1494" y="362" on="0"/>
        <pt x="1562" y="362" on="1"/>
        <pt x="1566" y="362" on="0"/>
        <pt x="1569" y="352" on="0"/>
      </contour>
    </TTGlyph>
    <TTGlyph name="ellipsis" xMin="156" yMin="-260" xMax="883" yMax="802">
      <contour>
        <pt x="883" y="-10" on="1"/>
        <pt x="883" y="-15" on="0"/>
        <pt x="881" y="-19" on="1"/>
        <pt x="860" y="-61" on="0"/>
        <pt x="807" y="-134" on="0"/>
        <pt x="743" y="-188" on="0"/>
        <pt x="666" y="-219" on="0"/>
        <pt x="620" y="-219" on="1"/>
        <pt x="575" y="-219" on="0"/>
        <pt x="498" y="-183" on="0"/>
        <pt x="440" y="-119" on="0"/>
        <pt x="401" y="-28" on="0"/>
        <pt x="392" y="28" on="1"/>
        <pt x="301" y="16" on="0"/>
        <pt x="201" y="-71" on="0"/>
        <pt x="201" y="-128" on="1"/>
        <pt x="201" y="-152" on="0"/>
        <pt x="219" y="-152" on="1"/>
        <pt x="226" y="-152" on="0"/>
        <pt x="235" y="-141" on="0"/>
        <pt x="249" y="-129" on="0"/>
        <pt x="269" y="-118" on="0"/>
        <pt x="286" y="-118" on="1"/>
        <pt x="308" y="-118" on="0"/>
        <pt x="343" y="-148" on="0"/>
        <pt x="343" y="-179" on="1"/>
        <pt x="343" y="-216" on="0"/>
        <pt x="295" y="-260" on="0"/>
        <pt x="256" y="-260" on="1"/>
        <pt x="236" y="-260" on="0"/>
        <pt x="199" y="-242" on="0"/>
        <pt x="172" y="-211" on="0"/>
        <pt x="156" y="-168" on="0"/>
        <pt x="156" y="-142" on="1"/>
        <pt x="156" y="-113" on="0"/>
        <pt x="181" y="-48" on="0"/>
        <pt x="236" y="9" on="0"/>
        <pt x="325" y="52" on="0"/>
        <pt x="389" y="60" on="1"/>
        <pt x="388" y="67" on="0"/>
        <pt x="387" y="80" on="0"/>
        <pt x="387" y="88" on="1"/>
        <pt x="344" y="91" on="0"/>
        <pt x="267" y="118" on="0"/>
        <pt x="208" y="163" on="0"/>
        <pt x="173" y="225" on="0"/>
        <pt x="173" y="263" on="1"/>
        <pt x="173" y="294" on="0"/>
        <pt x="194" y="338" on="0"/>
        <pt x="227" y="366" on="0"/>
        <pt x="268" y="381" on="0"/>
        <pt x="287" y="384" on="1"/>
        <pt x="275" y="410" on="0"/>
        <pt x="263" y="478" on="0"/>
        <pt x="263" y="513" on="1"/>
        <pt x="263" y="580" on="0"/>
        <pt x="286" y="666" on="0"/>
        <pt x="319" y="719" on="0"/>
        <pt x="356" y="744" on="0"/>
        <pt x="371" y="749" on="1"/>
        <pt x="389" y="757" on="0"/>
        <pt x="398" y="777" on="0"/>
        <pt x="398" y="790" on="1"/>
        <pt x="398" y="802" on="0"/>
        <pt x="412" y="802" on="1"/>
        <pt x="426" y="802" on="0"/>
        <pt x="426" y="790" on="1"/>
        <pt x="426" y="777" on="0"/>
        <pt x="435" y="757" on="0"/>
        <pt x="453" y="749" on="1"/>
        <pt x="468" y="744" on="0"/>
        <pt x="505" y="719" on="0"/>
        <pt x="538" y="666" on="0"/>
        <pt x="561" y="580" on="0"/>
        <pt x="561" y="513" on="1"/>
        <pt x="561" y="478" on="0"/>
        <pt x="549" y="410" on="0"/>
        <pt x="538" y="384" on="1"/>
        <pt x="557" y="381" on="0"/>
        <pt x="597" y="366" on="0"/>
        <pt x="630" y="338" on="0"/>
        <pt x="651" y="294" on="0"/>
        <pt x="651" y="263" on="1"/>
        <pt x="651" y="225" on="0"/>
        <pt x="614" y="163" on="0"/>
        <pt x="553" y="118" on="0"/>
        <pt x="474" y="90" on="0"/>
        <pt x="432" y="87" on="1"/>
        <pt x="431" y="81" on="0"/>
        <pt x="430" y="69" on="0"/>
        <pt x="430" y="63" on="1"/>
        <pt x="435" y="63" on="0"/>
        <pt x="446" y="64" on="0"/>
        <pt x="451" y="64" on="1"/>
        <pt x="485" y="64" on="0"/>
        <pt x="562" y="48" on="0"/>
        <pt x="637" y="6" on="0"/>
        <pt x="705" y="-66" on="0"/>
        <pt x="731" y="-122" on="1"/>
        <pt x="759" y="-93" on="0"/>
        <pt x="796" y="-26" on="0"/>
        <pt x="813" y="19" on="1"/>
        <pt x="815" y="25" on="0"/>
        <pt x="823" y="32" on="0"/>
        <pt x="828" y="32" on="1"/>
        <pt x="845" y="32" on="0"/>
        <pt x="873" y="13" on="0"/>
        <pt x="881" y="-1" on="1"/>
        <pt x="883" y="-5" on="0"/>
      </contour>
      <contour>
        <pt x="701" y="-145" on="1"/>
        <pt x="684" y="-93" on="0"/>
        <pt x="623" y="-25" on="0"/>
        <pt x="551" y="15" on="0"/>
        <pt x="478" y="31" on="0"/>
        <pt x="451" y="31" on="1"/>
        <pt x="431" y="31" on="1"/>
        <pt x="435" y="-13" on="0"/>
        <pt x="467" y="-88" on="0"/>
        <pt x="517" y="-142" on="0"/>
        <pt x="579" y="-172" on="0"/>
        <pt x="613" y="-172" on="1"/>
        <pt x="642" y="-172" on="0"/>
        <pt x="682" y="-159" on="0"/>
      </contour>
      <contour>
        <pt x="578" y="300" on="1"/>
        <pt x="578" y="344" on="0"/>
        <pt x="523" y="356" on="1"/>
        <pt x="504" y="327" on="0"/>
        <pt x="447" y="292" on="0"/>
        <pt x="412" y="292" on="1"/>
        <pt x="377" y="292" on="0"/>
        <pt x="320" y="327" on="0"/>
        <pt x="301" y="356" on="1"/>
        <pt x="246" y="344" on="0"/>
        <pt x="246" y="300" on="1"/>
        <pt x="246" y="282" on="0"/>
        <pt x="273" y="255" on="0"/>
        <pt x="319" y="237" on="0"/>
        <pt x="379" y="228" on="0"/>
        <pt x="412" y="228" on="1"/>
        <pt x="445" y="228" on="0"/>
        <pt x="505" y="237" on="0"/>
        <pt x="551" y="255" on="0"/>
        <pt x="578" y="282" on="0"/>
      </contour>
    </TTGlyph>
    <TTGlyph name="exclam" xMin="24" yMin="-133" xMax="1086" yMax="594">
      <contour>
        <pt x="1086" y="494" on="1"/>
        <pt x="1086" y="455" on="0"/>
        <pt x="1042" y="407" on="0"/>
        <pt x="1005" y="407" on="1"/>
        <pt x="974" y="407" on="0"/>
        <pt x="944" y="442" on="0"/>
        <pt x="944" y="464" on="1"/>
        <pt x="944" y="481" on="0"/>
        <pt x="955" y="501" on="0"/>
        <pt x="967" y="515" on="0"/>
        <pt x="978" y="524" on="0"/>
        <pt x="978" y="531" on="1"/>
        <pt x="978" y="549" on="0"/>
        <pt x="954" y="549" on="1"/>
        <pt x="897" y="549" on="0"/>
        <pt x="810" y="449" on="0"/>
        <pt x="798" y="358" on="1"/>
        <pt x="853" y="349" on="0"/>
        <pt x="945" y="310" on="0"/>
        <pt x="1009" y="251" on="0"/>
        <pt x="1045" y="175" on="0"/>
        <pt x="1045" y="130" on="1"/>
        <pt x="1045" y="84" on="0"/>
        <pt x="1014" y="7" on="0"/>
        <pt x="960" y="-57" on="0"/>
        <pt x="887" y="-110" on="0"/>
        <pt x="845" y="-131" on="1"/>
        <pt x="841" y="-133" on="0"/>
        <pt x="836" y="-133" on="1"/>
        <pt x="831" y="-133" on="0"/>
        <pt x="827" y="-131" on="1"/>
        <pt x="813" y="-123" on="0"/>
        <pt x="794" y="-95" on="0"/>
        <pt x="794" y="-78" on="1"/>
        <pt x="794" y="-73" on="0"/>
        <pt x="801" y="-65" on="0"/>
        <pt x="807" y="-63" on="1"/>
        <pt x="852" y="-46" on="0"/>
        <pt x="919" y="-9" on="0"/>
        <pt x="948" y="19" on="1"/>
        <pt x="892" y="45" on="0"/>
        <pt x="820" y="113" on="0"/>
        <pt x="778" y="188" on="0"/>
        <pt x="762" y="265" on="0"/>
        <pt x="762" y="299" on="1"/>
        <pt x="762" y="304" on="0"/>
        <pt x="763" y="315" on="0"/>
        <pt x="763" y="320" on="1"/>
        <pt x="757" y="320" on="0"/>
        <pt x="745" y="319" on="0"/>
        <pt x="739" y="318" on="1"/>
        <pt x="736" y="276" on="0"/>
        <pt x="708" y="197" on="0"/>
        <pt x="663" y="136" on="0"/>
        <pt x="601" y="99" on="0"/>
        <pt x="563" y="99" on="1"/>
        <pt x="531" y="99" on="0"/>
        <pt x="488" y="120" on="0"/>
        <pt x="460" y="153" on="0"/>
        <pt x="445" y="193" on="0"/>
        <pt x="442" y="212" on="1"/>
        <pt x="416" y="201" on="0"/>
        <pt x="348" y="189" on="0"/>
        <pt x="313" y="189" on="1"/>
        <pt x="246" y="189" on="0"/>
        <pt x="160" y="212" on="0"/>
        <pt x="107" y="245" on="0"/>
        <pt x="82" y="282" on="0"/>
        <pt x="77" y="297" on="1"/>
        <pt x="69" y="315" on="0"/>
        <pt x="49" y="324" on="0"/>
        <pt x="36" y="324" on="1"/>
        <pt x="24" y="324" on="0"/>
        <pt x="24" y="338" on="1"/>
        <pt x="24" y="352" on="0"/>
        <pt x="36" y="352" on="1"/>
        <pt x="49" y="352" on="0"/>
        <pt x="69" y="361" on="0"/>
        <pt x="77" y="379" on="1"/>
        <pt x="82" y="394" on="0"/>
        <pt x="107" y="431" on="0"/>
        <pt x="160" y="464" on="0"/>
        <pt x="246" y="487" on="0"/>
        <pt x="313" y="487" on="1"/>
        <pt x="348" y="487" on="0"/>
        <pt x="416" y="475" on="0"/>
        <pt x="442" y="463" on="1"/>
        <pt x="445" y="482" on="0"/>
        <pt x="460" y="523" on="0"/>
        <pt x="488" y="556" on="0"/>
        <pt x="531" y="577" on="0"/>
        <pt x="563" y="577" on="1"/>
        <pt x="601" y="577" on="0"/>
        <pt x="663" y="542" on="0"/>
        <pt x="708" y="483" on="0"/>
        <pt x="735" y="406" on="0"/>
        <pt x="738" y="363" on="1"/>
        <pt x="746" y="363" on="0"/>
        <pt x="759" y="362" on="0"/>
        <pt x="766" y="361" on="1"/>
        <pt x="773" y="425" on="0"/>
        <pt x="817" y="513" on="0"/>
        <pt x="874" y="569" on="0"/>
        <pt x="939" y="594" on="0"/>
        <pt x="968" y="594" on="1"/>
        <pt x="993" y="594" on="0"/>
        <pt x="1037" y="578" on="0"/>
        <pt x="1068" y="551" on="0"/>
        <pt x="1086" y="514" on="0"/>
      </contour>
      <contour>
        <pt x="998" y="137" on="1"/>
        <pt x="998" y="171" on="0"/>
        <pt x="968" y="233" on="0"/>
        <pt x="914" y="283" on="0"/>
        <pt x="839" y="315" on="0"/>
        <pt x="795" y="319" on="1"/>
        <pt x="795" y="299" on="1"/>
        <pt x="795" y="272" on="0"/>
        <pt x="811" y="199" on="0"/>
        <pt x="851" y="127" on="0"/>
        <pt x="919" y="65" on="0"/>
        <pt x="971" y="49" on="1"/>
        <pt x="985" y="68" on="0"/>
        <pt x="998" y="108" on="0"/>
      </contour>
      <contour>
        <pt x="598" y="338" on="1"/>
        <pt x="598" y="371" on="0"/>
        <pt x="589" y="431" on="0"/>
        <pt x="571" y="477" on="0"/>
        <pt x="544" y="504" on="0"/>
        <pt x="526" y="504" on="1"/>
        <pt x="482" y="504" on="0"/>
        <pt x="470" y="449" on="1"/>
        <pt x="499" y="430" on="0"/>
        <pt x="534" y="373" on="0"/>
        <pt x="534" y="338" on="1"/>
        <pt x="534" y="303" on="0"/>
        <pt x="499" y="246" on="0"/>
        <pt x="470" y="227" on="1"/>
        <pt x="482" y="172" on="0"/>
        <pt x="526" y="172" on="1"/>
        <pt x="544" y="172" on="0"/>
        <pt x="571" y="199" on="0"/>
        <pt x="589" y="245" on="0"/>
        <pt x="598" y="305" on="0"/>
      </contour>
    </TTGlyph>
</ttFont>
